M48
;DRILL file {KiCad 4.0.7-e2-6376~61~ubuntu18.04.1} date Sun Dec  9 20:36:39 2018
;FORMAT={-:-/ absolute / metric / decimal}
FMAT,2
METRIC,TZ
T1C0.400
T2C0.800
T3C1.000
T4C1.016
T5C1.050
T6C2.700
%
G90
G05
M71
T1
X59.835Y-71.785
X59.885Y-56.035
X71.385Y-34.435
X74.285Y-36.735
X74.985Y-40.185
X76.485Y-38.985
X76.585Y-48.535
X77.435Y-48.535
X77.885Y-47.435
X78.185Y-40.135
X79.535Y-73.085
X80.535Y-40.235
X80.535Y-41.185
X80.985Y-43.535
X82.685Y-67.585
X82.735Y-37.435
X82.735Y-38.485
X83.585Y-78.085
X87.935Y-41.085
X88.135Y-38.435
X88.635Y-22.185
X89.035Y-38.485
X89.035Y-41.185
X90.439Y-38.914
X90.535Y-45.285
X93.485Y-45.035
X93.485Y-46.385
X94.235Y-42.635
X94.635Y-36.785
X94.685Y-49.085
X96.085Y-49.585
X96.235Y-46.385
X96.335Y-38.035
X97.585Y-49.585
X98.485Y-41.035
X98.735Y-37.935
X99.785Y-49.685
X100.085Y-46.935
X100.435Y-41.585
X101.485Y-41.585
X101.485Y-42.735
X101.685Y-48.435
X101.935Y-56.935
X103.535Y-38.435
X103.585Y-39.535
X104.085Y-53.635
X104.435Y-55.185
X104.835Y-39.535
X105.185Y-44.485
X105.254Y-45.61
X106.885Y-61.885
X107.885Y-62.885
X108.835Y-61.835
X109.235Y-54.485
X109.585Y-50.235
X110.034Y-54.448
X110.035Y-52.585
X110.585Y-59.135
X110.735Y-50.235
X110.835Y-38.335
X110.835Y-39.135
X110.835Y-47.035
X112.585Y-47.535
X113.585Y-61.835
X113.735Y-50.535
X114.535Y-60.885
X114.685Y-62.185
X116.535Y-70.135
X117.285Y-65.235
X117.335Y-64.285
X119.785Y-70.535
X121.485Y-46.985
X121.635Y-58.835
X122.085Y-69.935
X122.935Y-38.035
X122.935Y-38.785
X122.985Y-50.235
X123.035Y-49.385
X123.085Y-45.935
X123.435Y-57.935
X125.205Y-69.94
X125.485Y-62.285
T2
X59.73Y-19.09
X59.73Y-34.965
X63.23Y-19.09
X63.23Y-34.965
T3
X65.535Y-25.47
X65.535Y-28.01
X66.715Y-59.095
X66.835Y-66.715
X66.835Y-74.335
X68.075Y-25.47
X68.075Y-28.01
X69.215Y-59.095
X69.335Y-66.715
X69.335Y-74.335
X70.615Y-25.47
X70.615Y-28.01
X71.715Y-59.095
X71.835Y-66.715
X71.835Y-74.335
X73.155Y-25.47
X73.155Y-28.01
X74.215Y-59.095
X74.335Y-66.715
X74.335Y-74.335
X75.695Y-25.47
X75.695Y-28.01
X78.235Y-25.47
X78.235Y-28.01
X80.775Y-25.47
X80.775Y-28.01
X83.315Y-25.47
X83.315Y-28.01
X83.635Y-20.135
X85.855Y-25.47
X85.855Y-28.01
X86.135Y-20.135
X88.395Y-25.47
X88.395Y-28.01
X88.635Y-20.135
X89.695Y-59.095
X89.695Y-66.715
X89.695Y-74.335
X90.935Y-25.47
X90.935Y-28.01
X91.135Y-20.135
X92.195Y-59.095
X92.195Y-66.715
X92.195Y-74.335
X93.475Y-25.47
X93.475Y-28.01
X93.635Y-20.135
X94.695Y-59.095
X94.695Y-66.715
X94.695Y-74.335
X96.015Y-25.47
X96.015Y-28.01
X96.135Y-20.135
X97.195Y-59.095
X97.195Y-66.715
X97.195Y-74.335
X98.555Y-25.47
X98.555Y-28.01
X98.635Y-20.135
X101.095Y-25.47
X101.095Y-28.01
X103.635Y-25.47
X103.635Y-28.01
X106.175Y-25.47
X106.175Y-28.01
X106.635Y-20.135
X108.715Y-25.47
X108.715Y-28.01
X109.135Y-20.135
X111.255Y-25.47
X111.255Y-28.01
X111.635Y-20.135
X113.795Y-25.47
X113.795Y-28.01
X114.135Y-20.135
X116.635Y-20.135
X119.135Y-20.135
X127.875Y-59.095
X130.375Y-59.095
X132.755Y-51.475
X132.875Y-36.235
X132.875Y-59.095
X132.875Y-66.715
X132.875Y-74.335
X135.255Y-51.475
X135.295Y-43.855
X135.375Y-28.615
X135.375Y-36.235
X135.375Y-59.095
X135.375Y-66.715
X135.375Y-74.335
X137.755Y-51.475
X137.795Y-43.855
X137.875Y-28.615
X137.875Y-36.235
X137.875Y-59.095
X137.875Y-66.715
X137.875Y-74.335
X140.255Y-51.475
X140.295Y-43.855
X140.375Y-28.615
X140.375Y-36.235
X140.375Y-59.095
X140.375Y-66.715
X140.375Y-74.335
T4
X59.095Y-41.315
X59.095Y-43.855
X59.095Y-46.395
X59.095Y-48.935
X59.095Y-51.475
X59.095Y-54.015
X61.635Y-41.315
X61.635Y-43.855
X61.635Y-46.395
X61.635Y-48.935
X61.635Y-51.475
X61.635Y-54.015
X64.175Y-41.315
X64.175Y-43.855
X64.175Y-46.395
X64.175Y-48.935
X64.175Y-51.475
X64.175Y-54.015
X66.715Y-41.315
X66.715Y-43.855
X66.715Y-46.395
X66.715Y-48.935
X66.715Y-51.475
X66.715Y-54.015
X69.255Y-36.235
X69.255Y-38.775
X69.255Y-41.315
X69.255Y-43.855
X69.255Y-46.395
X69.255Y-48.935
X69.255Y-51.475
X69.255Y-54.015
X71.795Y-46.395
X71.795Y-48.935
X71.795Y-51.475
X71.795Y-54.015
X104.815Y-66.715
X104.815Y-69.255
X104.815Y-71.795
X104.815Y-74.335
X104.815Y-76.875
X107.355Y-66.715
X107.355Y-69.255
X107.355Y-71.795
X107.355Y-74.335
X107.355Y-76.875
X109.895Y-74.335
X109.895Y-76.875
X112.435Y-74.335
X112.435Y-76.875
T5
X126.935Y-20.995
X129.435Y-20.995
X137.875Y-20.995
X140.375Y-20.995
T6
X60.635Y-26.735
X60.635Y-75.735
X118.635Y-26.735
X118.635Y-75.735
T0
M30
