G04 #@! TF.FileFunction,Legend,Bot*
%FSLAX46Y46*%
G04 Gerber Fmt 4.6, Leading zero omitted, Abs format (unit mm)*
G04 Created by KiCad (PCBNEW 4.0.7-e2-6376~61~ubuntu18.04.1) date Sun Dec  9 20:36:19 2018*
%MOMM*%
%LPD*%
G01*
G04 APERTURE LIST*
%ADD10C,0.100000*%
%ADD11C,0.120000*%
%ADD12C,0.150000*%
%ADD13R,2.635200X2.635200*%
%ADD14R,2.150000X2.150000*%
%ADD15C,2.150000*%
%ADD16R,1.900000X1.650000*%
%ADD17R,1.650000X1.900000*%
%ADD18C,3.100000*%
%ADD19R,2.100000X2.100000*%
%ADD20O,2.100000X2.100000*%
%ADD21R,1.370000X1.670000*%
%ADD22R,2.000000X2.000000*%
%ADD23C,2.000000*%
G04 APERTURE END LIST*
D10*
D11*
X97985000Y-37585000D02*
X96985000Y-37585000D01*
X96985000Y-35885000D02*
X97985000Y-35885000D01*
X105635000Y-46235000D02*
X105635000Y-45235000D01*
X107335000Y-45235000D02*
X107335000Y-46235000D01*
X95535000Y-45785000D02*
X95535000Y-46785000D01*
X93835000Y-46785000D02*
X93835000Y-45785000D01*
X98335000Y-47585000D02*
X99335000Y-47585000D01*
X99335000Y-49285000D02*
X98335000Y-49285000D01*
X112935000Y-50035000D02*
X112935000Y-51035000D01*
X111235000Y-51035000D02*
X111235000Y-50035000D01*
X66805000Y-29340000D02*
X115125000Y-29340000D01*
X115125000Y-29340000D02*
X115125000Y-24140000D01*
X115125000Y-24140000D02*
X64205000Y-24140000D01*
X64205000Y-24140000D02*
X64205000Y-26740000D01*
X64205000Y-26740000D02*
X66805000Y-26740000D01*
X66805000Y-26740000D02*
X66805000Y-29340000D01*
X65535000Y-29340000D02*
X64205000Y-29340000D01*
X64205000Y-29340000D02*
X64205000Y-28070000D01*
X133705000Y-19525000D02*
X131165000Y-19525000D01*
X131165000Y-17745000D02*
X133705000Y-17745000D01*
X131165000Y-17745000D02*
X131165000Y-19525000D01*
X133705000Y-19525000D02*
X133705000Y-17745000D01*
D12*
X101461666Y-37092143D02*
X101509285Y-37139762D01*
X101652142Y-37187381D01*
X101747380Y-37187381D01*
X101890238Y-37139762D01*
X101985476Y-37044524D01*
X102033095Y-36949286D01*
X102080714Y-36758810D01*
X102080714Y-36615952D01*
X102033095Y-36425476D01*
X101985476Y-36330238D01*
X101890238Y-36235000D01*
X101747380Y-36187381D01*
X101652142Y-36187381D01*
X101509285Y-36235000D01*
X101461666Y-36282619D01*
X100509285Y-37187381D02*
X101080714Y-37187381D01*
X100795000Y-37187381D02*
X100795000Y-36187381D01*
X100890238Y-36330238D01*
X100985476Y-36425476D01*
X101080714Y-36473095D01*
X104992143Y-45518334D02*
X105039762Y-45470715D01*
X105087381Y-45327858D01*
X105087381Y-45232620D01*
X105039762Y-45089762D01*
X104944524Y-44994524D01*
X104849286Y-44946905D01*
X104658810Y-44899286D01*
X104515952Y-44899286D01*
X104325476Y-44946905D01*
X104230238Y-44994524D01*
X104135000Y-45089762D01*
X104087381Y-45232620D01*
X104087381Y-45327858D01*
X104135000Y-45470715D01*
X104182619Y-45518334D01*
X104182619Y-45899286D02*
X104135000Y-45946905D01*
X104087381Y-46042143D01*
X104087381Y-46280239D01*
X104135000Y-46375477D01*
X104182619Y-46423096D01*
X104277857Y-46470715D01*
X104373095Y-46470715D01*
X104515952Y-46423096D01*
X105087381Y-45851667D01*
X105087381Y-46470715D01*
X95142143Y-42568334D02*
X95189762Y-42520715D01*
X95237381Y-42377858D01*
X95237381Y-42282620D01*
X95189762Y-42139762D01*
X95094524Y-42044524D01*
X94999286Y-41996905D01*
X94808810Y-41949286D01*
X94665952Y-41949286D01*
X94475476Y-41996905D01*
X94380238Y-42044524D01*
X94285000Y-42139762D01*
X94237381Y-42282620D01*
X94237381Y-42377858D01*
X94285000Y-42520715D01*
X94332619Y-42568334D01*
X94237381Y-42901667D02*
X94237381Y-43520715D01*
X94618333Y-43187381D01*
X94618333Y-43330239D01*
X94665952Y-43425477D01*
X94713571Y-43473096D01*
X94808810Y-43520715D01*
X95046905Y-43520715D01*
X95142143Y-43473096D01*
X95189762Y-43425477D01*
X95237381Y-43330239D01*
X95237381Y-43044524D01*
X95189762Y-42949286D01*
X95142143Y-42901667D01*
X102401666Y-48792143D02*
X102449285Y-48839762D01*
X102592142Y-48887381D01*
X102687380Y-48887381D01*
X102830238Y-48839762D01*
X102925476Y-48744524D01*
X102973095Y-48649286D01*
X103020714Y-48458810D01*
X103020714Y-48315952D01*
X102973095Y-48125476D01*
X102925476Y-48030238D01*
X102830238Y-47935000D01*
X102687380Y-47887381D01*
X102592142Y-47887381D01*
X102449285Y-47935000D01*
X102401666Y-47982619D01*
X101544523Y-48220714D02*
X101544523Y-48887381D01*
X101782619Y-47839762D02*
X102020714Y-48554048D01*
X101401666Y-48554048D01*
X114192143Y-49892143D02*
X114239762Y-49844524D01*
X114287381Y-49701667D01*
X114287381Y-49606429D01*
X114239762Y-49463571D01*
X114144524Y-49368333D01*
X114049286Y-49320714D01*
X113858810Y-49273095D01*
X113715952Y-49273095D01*
X113525476Y-49320714D01*
X113430238Y-49368333D01*
X113335000Y-49463571D01*
X113287381Y-49606429D01*
X113287381Y-49701667D01*
X113335000Y-49844524D01*
X113382619Y-49892143D01*
X114287381Y-50844524D02*
X114287381Y-50273095D01*
X114287381Y-50558809D02*
X113287381Y-50558809D01*
X113430238Y-50463571D01*
X113525476Y-50368333D01*
X113573095Y-50273095D01*
X113287381Y-51463571D02*
X113287381Y-51558810D01*
X113335000Y-51654048D01*
X113382619Y-51701667D01*
X113477857Y-51749286D01*
X113668333Y-51796905D01*
X113906429Y-51796905D01*
X114096905Y-51749286D01*
X114192143Y-51701667D01*
X114239762Y-51654048D01*
X114287381Y-51558810D01*
X114287381Y-51463571D01*
X114239762Y-51368333D01*
X114192143Y-51320714D01*
X114096905Y-51273095D01*
X113906429Y-51225476D01*
X113668333Y-51225476D01*
X113477857Y-51273095D01*
X113382619Y-51320714D01*
X113335000Y-51368333D01*
X113287381Y-51463571D01*
X62657381Y-26406667D02*
X63371667Y-26406667D01*
X63514524Y-26359047D01*
X63609762Y-26263809D01*
X63657381Y-26120952D01*
X63657381Y-26025714D01*
X63657381Y-27406667D02*
X63657381Y-26835238D01*
X63657381Y-27120952D02*
X62657381Y-27120952D01*
X62800238Y-27025714D01*
X62895476Y-26930476D01*
X62943095Y-26835238D01*
X133244523Y-16307381D02*
X133244523Y-17021667D01*
X133292143Y-17164524D01*
X133387381Y-17259762D01*
X133530238Y-17307381D01*
X133625476Y-17307381D01*
X132244523Y-17307381D02*
X132815952Y-17307381D01*
X132530238Y-17307381D02*
X132530238Y-16307381D01*
X132625476Y-16450238D01*
X132720714Y-16545476D01*
X132815952Y-16593095D01*
X131768333Y-17307381D02*
X131577857Y-17307381D01*
X131482618Y-17259762D01*
X131434999Y-17212143D01*
X131339761Y-17069286D01*
X131292142Y-16878810D01*
X131292142Y-16497857D01*
X131339761Y-16402619D01*
X131387380Y-16355000D01*
X131482618Y-16307381D01*
X131673095Y-16307381D01*
X131768333Y-16355000D01*
X131815952Y-16402619D01*
X131863571Y-16497857D01*
X131863571Y-16735952D01*
X131815952Y-16831190D01*
X131768333Y-16878810D01*
X131673095Y-16926429D01*
X131482618Y-16926429D01*
X131387380Y-16878810D01*
X131339761Y-16831190D01*
X131292142Y-16735952D01*
%LPC*%
D13*
X112435000Y-74335000D03*
X112435000Y-76875000D03*
X104815000Y-66715000D03*
X107355000Y-66715000D03*
X109895000Y-74335000D03*
X109895000Y-76875000D03*
X104815000Y-69255000D03*
X107355000Y-69255000D03*
X107355000Y-71795000D03*
X104815000Y-71795000D03*
X104815000Y-74335000D03*
X107355000Y-74335000D03*
X107355000Y-76875000D03*
X104815000Y-76875000D03*
X71795000Y-46395000D03*
X71795000Y-48935000D03*
X71795000Y-51475000D03*
X71795000Y-54015000D03*
X69255000Y-36235000D03*
X69255000Y-38775000D03*
X69255000Y-54015000D03*
X66715000Y-54015000D03*
X64175000Y-54015000D03*
X61635000Y-54015000D03*
X59095000Y-54015000D03*
X69255000Y-51475000D03*
X66715000Y-51475000D03*
X64175000Y-51475000D03*
X61635000Y-51475000D03*
X59095000Y-51475000D03*
X69255000Y-48935000D03*
X66715000Y-48935000D03*
X64175000Y-48935000D03*
X61635000Y-48935000D03*
X59095000Y-48935000D03*
X69255000Y-46395000D03*
X66715000Y-46395000D03*
X64175000Y-46395000D03*
X61635000Y-46395000D03*
X59095000Y-46395000D03*
X69255000Y-43855000D03*
X66715000Y-43855000D03*
X64175000Y-43855000D03*
X61635000Y-43855000D03*
X59095000Y-43855000D03*
X69255000Y-41315000D03*
X66715000Y-41315000D03*
X64175000Y-41315000D03*
X61635000Y-41315000D03*
D14*
X129435000Y-20995000D03*
D15*
X126935000Y-20995000D03*
D16*
X96235000Y-36735000D03*
X98735000Y-36735000D03*
D17*
X106485000Y-44485000D03*
X106485000Y-46985000D03*
X94685000Y-47535000D03*
X94685000Y-45035000D03*
D16*
X100085000Y-48435000D03*
X97585000Y-48435000D03*
D17*
X112085000Y-51785000D03*
X112085000Y-49285000D03*
D14*
X140375000Y-20995000D03*
D15*
X137875000Y-20995000D03*
D14*
X98635000Y-20135000D03*
D15*
X96135000Y-20135000D03*
X93635000Y-20135000D03*
X91135000Y-20135000D03*
X88635000Y-20135000D03*
X86135000Y-20135000D03*
X83635000Y-20135000D03*
D14*
X140375000Y-28615000D03*
D15*
X137875000Y-28615000D03*
X135375000Y-28615000D03*
D14*
X140375000Y-36235000D03*
D15*
X137875000Y-36235000D03*
X135375000Y-36235000D03*
X132875000Y-36235000D03*
D14*
X140375000Y-59095000D03*
D15*
X137875000Y-59095000D03*
X135375000Y-59095000D03*
X132875000Y-59095000D03*
X130375000Y-59095000D03*
X127875000Y-59095000D03*
D14*
X140295000Y-43855000D03*
D15*
X137795000Y-43855000D03*
X135295000Y-43855000D03*
D14*
X140255000Y-51475000D03*
D15*
X137755000Y-51475000D03*
X135255000Y-51475000D03*
X132755000Y-51475000D03*
D14*
X140375000Y-66715000D03*
D15*
X137875000Y-66715000D03*
X135375000Y-66715000D03*
X132875000Y-66715000D03*
D14*
X140375000Y-74335000D03*
D15*
X137875000Y-74335000D03*
X135375000Y-74335000D03*
X132875000Y-74335000D03*
D18*
X60635000Y-26735000D03*
X60635000Y-75735000D03*
X118635000Y-26735000D03*
X118635000Y-75735000D03*
D14*
X74215000Y-59095000D03*
D15*
X71715000Y-59095000D03*
X69215000Y-59095000D03*
X66715000Y-59095000D03*
D14*
X74335000Y-74335000D03*
D15*
X71835000Y-74335000D03*
X69335000Y-74335000D03*
X66835000Y-74335000D03*
D14*
X97195000Y-59095000D03*
D15*
X94695000Y-59095000D03*
X92195000Y-59095000D03*
X89695000Y-59095000D03*
D14*
X74335000Y-66715000D03*
D15*
X71835000Y-66715000D03*
X69335000Y-66715000D03*
X66835000Y-66715000D03*
D14*
X97195000Y-74335000D03*
D15*
X94695000Y-74335000D03*
X92195000Y-74335000D03*
X89695000Y-74335000D03*
D14*
X97195000Y-66715000D03*
D15*
X94695000Y-66715000D03*
X92195000Y-66715000D03*
X89695000Y-66715000D03*
D14*
X119135000Y-20135000D03*
D15*
X116635000Y-20135000D03*
X114135000Y-20135000D03*
X111635000Y-20135000D03*
X109135000Y-20135000D03*
X106635000Y-20135000D03*
D19*
X65535000Y-28010000D03*
D20*
X65535000Y-25470000D03*
X68075000Y-28010000D03*
X68075000Y-25470000D03*
X70615000Y-28010000D03*
X70615000Y-25470000D03*
X73155000Y-28010000D03*
X73155000Y-25470000D03*
X75695000Y-28010000D03*
X75695000Y-25470000D03*
X78235000Y-28010000D03*
X78235000Y-25470000D03*
X80775000Y-28010000D03*
X80775000Y-25470000D03*
X83315000Y-28010000D03*
X83315000Y-25470000D03*
X85855000Y-28010000D03*
X85855000Y-25470000D03*
X88395000Y-28010000D03*
X88395000Y-25470000D03*
X90935000Y-28010000D03*
X90935000Y-25470000D03*
X93475000Y-28010000D03*
X93475000Y-25470000D03*
X96015000Y-28010000D03*
X96015000Y-25470000D03*
X98555000Y-28010000D03*
X98555000Y-25470000D03*
X101095000Y-28010000D03*
X101095000Y-25470000D03*
X103635000Y-28010000D03*
X103635000Y-25470000D03*
X106175000Y-28010000D03*
X106175000Y-25470000D03*
X108715000Y-28010000D03*
X108715000Y-25470000D03*
X111255000Y-28010000D03*
X111255000Y-25470000D03*
X113795000Y-28010000D03*
X113795000Y-25470000D03*
D21*
X133075000Y-18635000D03*
X131795000Y-18635000D03*
D22*
X59730000Y-34965000D03*
D23*
X63230000Y-34965000D03*
D13*
X59095000Y-41315000D03*
D22*
X59730000Y-19090000D03*
D23*
X63230000Y-19090000D03*
M02*
