G04 #@! TF.FileFunction,Copper,L2,Bot,Signal*
%FSLAX46Y46*%
G04 Gerber Fmt 4.6, Leading zero omitted, Abs format (unit mm)*
G04 Created by KiCad (PCBNEW 4.0.7-e2-6376~61~ubuntu18.04.1) date Sun Dec  9 20:36:19 2018*
%MOMM*%
%LPD*%
G01*
G04 APERTURE LIST*
%ADD10C,0.100000*%
%ADD11R,2.235200X2.235200*%
%ADD12R,1.750000X1.750000*%
%ADD13C,1.750000*%
%ADD14R,1.500000X1.250000*%
%ADD15R,1.250000X1.500000*%
%ADD16R,1.700000X1.700000*%
%ADD17O,1.700000X1.700000*%
%ADD18R,0.970000X1.270000*%
%ADD19R,1.600000X1.600000*%
%ADD20C,1.600000*%
%ADD21C,0.600000*%
%ADD22C,0.250000*%
%ADD23C,4.000000*%
%ADD24C,2.000000*%
%ADD25C,1.000000*%
%ADD26C,0.254000*%
G04 APERTURE END LIST*
D10*
D11*
X112435000Y-74335000D03*
X112435000Y-76875000D03*
X104815000Y-66715000D03*
X107355000Y-66715000D03*
X109895000Y-74335000D03*
X109895000Y-76875000D03*
X104815000Y-69255000D03*
X107355000Y-69255000D03*
X107355000Y-71795000D03*
X104815000Y-71795000D03*
X104815000Y-74335000D03*
X107355000Y-74335000D03*
X107355000Y-76875000D03*
X104815000Y-76875000D03*
X71795000Y-46395000D03*
X71795000Y-48935000D03*
X71795000Y-51475000D03*
X71795000Y-54015000D03*
X69255000Y-36235000D03*
X69255000Y-38775000D03*
X69255000Y-54015000D03*
X66715000Y-54015000D03*
X64175000Y-54015000D03*
X61635000Y-54015000D03*
X59095000Y-54015000D03*
X69255000Y-51475000D03*
X66715000Y-51475000D03*
X64175000Y-51475000D03*
X61635000Y-51475000D03*
X59095000Y-51475000D03*
X69255000Y-48935000D03*
X66715000Y-48935000D03*
X64175000Y-48935000D03*
X61635000Y-48935000D03*
X59095000Y-48935000D03*
X69255000Y-46395000D03*
X66715000Y-46395000D03*
X64175000Y-46395000D03*
X61635000Y-46395000D03*
X59095000Y-46395000D03*
X69255000Y-43855000D03*
X66715000Y-43855000D03*
X64175000Y-43855000D03*
X61635000Y-43855000D03*
X59095000Y-43855000D03*
X69255000Y-41315000D03*
X66715000Y-41315000D03*
X64175000Y-41315000D03*
X61635000Y-41315000D03*
D12*
X129435000Y-20995000D03*
D13*
X126935000Y-20995000D03*
D14*
X96235000Y-36735000D03*
X98735000Y-36735000D03*
D15*
X106485000Y-44485000D03*
X106485000Y-46985000D03*
X94685000Y-47535000D03*
X94685000Y-45035000D03*
D14*
X100085000Y-48435000D03*
X97585000Y-48435000D03*
D15*
X112085000Y-51785000D03*
X112085000Y-49285000D03*
D12*
X140375000Y-20995000D03*
D13*
X137875000Y-20995000D03*
D12*
X98635000Y-20135000D03*
D13*
X96135000Y-20135000D03*
X93635000Y-20135000D03*
X91135000Y-20135000D03*
X88635000Y-20135000D03*
X86135000Y-20135000D03*
X83635000Y-20135000D03*
D12*
X140375000Y-28615000D03*
D13*
X137875000Y-28615000D03*
X135375000Y-28615000D03*
D12*
X140375000Y-36235000D03*
D13*
X137875000Y-36235000D03*
X135375000Y-36235000D03*
X132875000Y-36235000D03*
D12*
X140375000Y-59095000D03*
D13*
X137875000Y-59095000D03*
X135375000Y-59095000D03*
X132875000Y-59095000D03*
X130375000Y-59095000D03*
X127875000Y-59095000D03*
D12*
X140295000Y-43855000D03*
D13*
X137795000Y-43855000D03*
X135295000Y-43855000D03*
D12*
X140255000Y-51475000D03*
D13*
X137755000Y-51475000D03*
X135255000Y-51475000D03*
X132755000Y-51475000D03*
D12*
X140375000Y-66715000D03*
D13*
X137875000Y-66715000D03*
X135375000Y-66715000D03*
X132875000Y-66715000D03*
D12*
X140375000Y-74335000D03*
D13*
X137875000Y-74335000D03*
X135375000Y-74335000D03*
X132875000Y-74335000D03*
D12*
X74215000Y-59095000D03*
D13*
X71715000Y-59095000D03*
X69215000Y-59095000D03*
X66715000Y-59095000D03*
D12*
X74335000Y-74335000D03*
D13*
X71835000Y-74335000D03*
X69335000Y-74335000D03*
X66835000Y-74335000D03*
D12*
X97195000Y-59095000D03*
D13*
X94695000Y-59095000D03*
X92195000Y-59095000D03*
X89695000Y-59095000D03*
D12*
X74335000Y-66715000D03*
D13*
X71835000Y-66715000D03*
X69335000Y-66715000D03*
X66835000Y-66715000D03*
D12*
X97195000Y-74335000D03*
D13*
X94695000Y-74335000D03*
X92195000Y-74335000D03*
X89695000Y-74335000D03*
D12*
X97195000Y-66715000D03*
D13*
X94695000Y-66715000D03*
X92195000Y-66715000D03*
X89695000Y-66715000D03*
D12*
X119135000Y-20135000D03*
D13*
X116635000Y-20135000D03*
X114135000Y-20135000D03*
X111635000Y-20135000D03*
X109135000Y-20135000D03*
X106635000Y-20135000D03*
D16*
X65535000Y-28010000D03*
D17*
X65535000Y-25470000D03*
X68075000Y-28010000D03*
X68075000Y-25470000D03*
X70615000Y-28010000D03*
X70615000Y-25470000D03*
X73155000Y-28010000D03*
X73155000Y-25470000D03*
X75695000Y-28010000D03*
X75695000Y-25470000D03*
X78235000Y-28010000D03*
X78235000Y-25470000D03*
X80775000Y-28010000D03*
X80775000Y-25470000D03*
X83315000Y-28010000D03*
X83315000Y-25470000D03*
X85855000Y-28010000D03*
X85855000Y-25470000D03*
X88395000Y-28010000D03*
X88395000Y-25470000D03*
X90935000Y-28010000D03*
X90935000Y-25470000D03*
X93475000Y-28010000D03*
X93475000Y-25470000D03*
X96015000Y-28010000D03*
X96015000Y-25470000D03*
X98555000Y-28010000D03*
X98555000Y-25470000D03*
X101095000Y-28010000D03*
X101095000Y-25470000D03*
X103635000Y-28010000D03*
X103635000Y-25470000D03*
X106175000Y-28010000D03*
X106175000Y-25470000D03*
X108715000Y-28010000D03*
X108715000Y-25470000D03*
X111255000Y-28010000D03*
X111255000Y-25470000D03*
X113795000Y-28010000D03*
X113795000Y-25470000D03*
D18*
X133075000Y-18635000D03*
X131795000Y-18635000D03*
D19*
X59730000Y-34965000D03*
D20*
X63230000Y-34965000D03*
D11*
X59095000Y-41315000D03*
D19*
X59730000Y-19090000D03*
D20*
X63230000Y-19090000D03*
D21*
X94635000Y-36785000D03*
X101685000Y-48435000D03*
X100085000Y-46935000D03*
X96235000Y-46385000D03*
X94685000Y-49085000D03*
X100435000Y-41585000D03*
X101485000Y-42735000D03*
X103535000Y-38435000D03*
X104835000Y-39535000D03*
X80535000Y-41185000D03*
X80535000Y-40235000D03*
X82735000Y-38485000D03*
X82735000Y-37435000D03*
X112585000Y-47535000D03*
X109235000Y-54485000D03*
X109585000Y-50235000D03*
X101485000Y-41585000D03*
X103585000Y-39534999D03*
X96335000Y-38035000D03*
X93485000Y-46385000D03*
X99785000Y-49685002D03*
X105185000Y-44485000D03*
X74285000Y-36735000D03*
X71385000Y-34435000D03*
X76484998Y-38985000D03*
X74985000Y-40185000D03*
X78185000Y-40135000D03*
X77435000Y-48535000D03*
X76585000Y-48535000D03*
X77885000Y-47435000D03*
X117335000Y-64285000D03*
X119785000Y-70535000D03*
X110735000Y-50235000D03*
X110835000Y-39135000D03*
X98485000Y-41035000D03*
X90535000Y-45285000D03*
X96085000Y-49585000D03*
X117285000Y-65235001D03*
X116535000Y-70135000D03*
X110585000Y-59135000D03*
X80985000Y-43535000D03*
X79535000Y-73085000D03*
X110835000Y-47035000D03*
X113735000Y-50535000D03*
X105253586Y-45610020D03*
X110835000Y-38335000D03*
X98735000Y-37935000D03*
X93485000Y-45035000D03*
X97585000Y-49585000D03*
X125485000Y-62285000D03*
X114685000Y-62185000D03*
X113584998Y-61835000D03*
X106885000Y-61885000D03*
X107885000Y-62885000D03*
X114535000Y-60884998D03*
X108834980Y-61835000D03*
X59885000Y-56035000D03*
X82685000Y-67585000D03*
X59835000Y-71785000D03*
X83585000Y-78085000D03*
X101935000Y-56935000D03*
X90439387Y-38914285D03*
X94235000Y-42635000D03*
X89035000Y-38485000D03*
X89035000Y-41185000D03*
X88634994Y-22185000D03*
X122085000Y-69935000D03*
X121635000Y-58835000D03*
X123035000Y-49385000D03*
X121485000Y-46985000D03*
X122935000Y-38035000D03*
X125205000Y-69940000D03*
X123085000Y-45935000D03*
X122935000Y-38785000D03*
X122985000Y-50235000D03*
X123435000Y-57935000D03*
X87934999Y-41085001D03*
X88135000Y-38435000D03*
X104085000Y-53635000D03*
X104435002Y-55185000D03*
X110035000Y-52585000D03*
X110034167Y-54448241D03*
D22*
X94635000Y-36785000D02*
X96185000Y-36785000D01*
X96185000Y-36785000D02*
X96235000Y-36735000D01*
X100085000Y-48435000D02*
X101685000Y-48435000D01*
X100085000Y-48435000D02*
X100085000Y-46935000D01*
X94685000Y-47535000D02*
X95085000Y-47535000D01*
X95085000Y-47535000D02*
X96235000Y-46385000D01*
X94685000Y-47535000D02*
X94685000Y-49085000D01*
D23*
X103585000Y-39534999D02*
X103535001Y-39534999D01*
X103535001Y-39534999D02*
X101485000Y-41585000D01*
D24*
X103535000Y-38435000D02*
X103535000Y-39484999D01*
X103535000Y-39484999D02*
X103585000Y-39534999D01*
X100435000Y-41585000D02*
X101485000Y-41585000D01*
X101485000Y-41585000D02*
X101485000Y-42735000D01*
X103585000Y-39534999D02*
X104834999Y-39534999D01*
X104834999Y-39534999D02*
X104835000Y-39535000D01*
X65535000Y-30385000D02*
X67035001Y-30385000D01*
X65535000Y-28010000D02*
X65535000Y-30385000D01*
D22*
X67485000Y-30335000D02*
X68685002Y-30335000D01*
X80535000Y-40235000D02*
X80535000Y-41185000D01*
D24*
X85855000Y-28010000D02*
X85855000Y-34315000D01*
X85855000Y-34315000D02*
X82735000Y-37435000D01*
D22*
X112085000Y-49285000D02*
X112085000Y-48035000D01*
X112085000Y-48035000D02*
X112585000Y-47535000D01*
X109235000Y-50585000D02*
X109235000Y-54485000D01*
X109585000Y-50235000D02*
X109235000Y-50585000D01*
X112385000Y-48985000D02*
X112085000Y-49285000D01*
X96335000Y-38035000D02*
X96335000Y-36835000D01*
X96335000Y-36835000D02*
X96235000Y-36735000D01*
X93485000Y-46385000D02*
X93535000Y-46385000D01*
X93535000Y-46385000D02*
X94685000Y-47535000D01*
X99785000Y-49685002D02*
X100085000Y-49385002D01*
X100085000Y-49385002D02*
X100085000Y-48435000D01*
X106485000Y-44485000D02*
X105185000Y-44485000D01*
X76185000Y-38985000D02*
X76484998Y-38985000D01*
X74985000Y-40185000D02*
X76185000Y-38985000D01*
X110835000Y-39135000D02*
X111035000Y-38935000D01*
X111035000Y-38935000D02*
X111035000Y-38835000D01*
X96135000Y-49110736D02*
X96135000Y-48885000D01*
X96135000Y-48885000D02*
X96585000Y-48435000D01*
X96585000Y-48435000D02*
X97585000Y-48435000D01*
X96085000Y-49585000D02*
X96085000Y-49160736D01*
X96085000Y-49160736D02*
X96135000Y-49110736D01*
X75695000Y-28010000D02*
X76970000Y-26735000D01*
X76970000Y-26735000D02*
X79510000Y-26735000D01*
X79510000Y-26735000D02*
X80775000Y-25470000D01*
D24*
X80775000Y-25470000D02*
X80775000Y-24267919D01*
X80775000Y-24267919D02*
X79592081Y-23085000D01*
X79592081Y-23085000D02*
X71594998Y-23085000D01*
X71594998Y-23085000D02*
X70839999Y-23839999D01*
X70615000Y-25470000D02*
X70615000Y-24064998D01*
X70615000Y-24064998D02*
X70839999Y-23839999D01*
X66090000Y-19090000D02*
X70839999Y-23839999D01*
X66090000Y-19090000D02*
X63230000Y-19090000D01*
D25*
X70839999Y-23839999D02*
X69682081Y-22682081D01*
X66090000Y-19090000D02*
X66185000Y-19185000D01*
D24*
X69682081Y-22682081D02*
X66185000Y-19185000D01*
X69682081Y-23335000D02*
X69682081Y-22682081D01*
D25*
X70615000Y-25470000D02*
X70615000Y-24267919D01*
X70615000Y-24267919D02*
X69682081Y-23335000D01*
D22*
X98735000Y-37935000D02*
X98735000Y-36735000D01*
X93485000Y-45035000D02*
X94685000Y-45035000D01*
D25*
X127875000Y-59095000D02*
X127875000Y-59895000D01*
X127875000Y-59895000D02*
X125485000Y-62285000D01*
D22*
X114535000Y-62035000D02*
X114685000Y-62185000D01*
X114535000Y-60884998D02*
X114535000Y-62035000D01*
X114535000Y-60884998D02*
X113584998Y-61835000D01*
D23*
X106885000Y-61885000D02*
X108784980Y-61885000D01*
X108784980Y-61885000D02*
X108834980Y-61835000D01*
D22*
X64085000Y-15785000D02*
X60780000Y-19090000D01*
X60780000Y-19090000D02*
X59730000Y-19090000D01*
X121725000Y-15785000D02*
X64085000Y-15785000D01*
D23*
X108834980Y-61835000D02*
X113584998Y-61835000D01*
D22*
X82685000Y-67585000D02*
X82685000Y-77185000D01*
X82685000Y-77185000D02*
X83585000Y-78085000D01*
X121725000Y-15785000D02*
X126935000Y-20995000D01*
D25*
X79960000Y-78085000D02*
X66685000Y-78085000D01*
X66685000Y-78085000D02*
X64835000Y-76235000D01*
X64835000Y-76235000D02*
X64835000Y-74235000D01*
X64835000Y-74235000D02*
X62385000Y-71785000D01*
X62385000Y-71785000D02*
X59835000Y-71785000D01*
X95320000Y-78085000D02*
X83585000Y-78085000D01*
X83585000Y-78085000D02*
X79960000Y-78085000D01*
D22*
X101435000Y-56935000D02*
X99275000Y-59095000D01*
X99275000Y-59095000D02*
X97195000Y-59095000D01*
X101935000Y-56935000D02*
X101435000Y-56935000D01*
D25*
X79960000Y-78085000D02*
X79934994Y-78059994D01*
X97195000Y-76210000D02*
X95320000Y-78085000D01*
X79960000Y-78085000D02*
X76210000Y-74335000D01*
X76210000Y-74335000D02*
X74335000Y-74335000D01*
X74215000Y-59095000D02*
X74215000Y-66595000D01*
X74215000Y-66595000D02*
X74335000Y-66715000D01*
X74335000Y-74335000D02*
X74335000Y-66715000D01*
X97195000Y-74335000D02*
X97195000Y-76210000D01*
X97195000Y-66715000D02*
X97195000Y-74335000D01*
X97195000Y-59095000D02*
X97195000Y-66715000D01*
D22*
X90514285Y-38914285D02*
X90439387Y-38914285D01*
X94235000Y-42635000D02*
X90514285Y-38914285D01*
X89035000Y-41185000D02*
X89035000Y-38485000D01*
X88635000Y-20135000D02*
X88635000Y-22184994D01*
X88635000Y-22184994D02*
X88634994Y-22185000D01*
X88135000Y-40885000D02*
X87934999Y-41085001D01*
X88135000Y-38435000D02*
X88135000Y-40885000D01*
X104435002Y-53985002D02*
X104085000Y-53635000D01*
X104435002Y-55185000D02*
X104435002Y-53985002D01*
X110034167Y-54448241D02*
X110034167Y-52585833D01*
X110034167Y-52585833D02*
X110035000Y-52585000D01*
D26*
G36*
X130675000Y-18349250D02*
X130833750Y-18508000D01*
X131668000Y-18508000D01*
X131668000Y-18488000D01*
X131922000Y-18488000D01*
X131922000Y-18508000D01*
X131942000Y-18508000D01*
X131942000Y-18762000D01*
X131922000Y-18762000D01*
X131922000Y-19746250D01*
X132080750Y-19905000D01*
X132108000Y-19905000D01*
X132108000Y-23186938D01*
X131621099Y-24893450D01*
X126394938Y-33407036D01*
X125506678Y-34312122D01*
X124495485Y-34608000D01*
X120685000Y-34608000D01*
X120635590Y-34618006D01*
X120595197Y-34645197D01*
X118945197Y-36295197D01*
X118917334Y-36337211D01*
X118908000Y-36385285D01*
X118910396Y-37451481D01*
X118903609Y-37482893D01*
X118812312Y-58252980D01*
X118586517Y-60102186D01*
X118586391Y-60103227D01*
X118361391Y-61980199D01*
X118358000Y-62036972D01*
X118358000Y-64085000D01*
X118396523Y-64272794D01*
X118504131Y-64428591D01*
X119503420Y-65390882D01*
X119665411Y-65493396D01*
X119852276Y-65523952D01*
X120300972Y-65507020D01*
X121008000Y-66187870D01*
X121008000Y-70235000D01*
X121043059Y-70414492D01*
X121147710Y-70572290D01*
X122147710Y-71572290D01*
X122299420Y-71674419D01*
X122485000Y-71712000D01*
X129685000Y-71712000D01*
X129864492Y-71676941D01*
X130022290Y-71572290D01*
X131022290Y-70572290D01*
X131124419Y-70420580D01*
X131162000Y-70235000D01*
X131162000Y-66982750D01*
X131522766Y-66982750D01*
X131728162Y-67479846D01*
X132108154Y-67860501D01*
X132604891Y-68066765D01*
X133142750Y-68067234D01*
X133639846Y-67861838D01*
X134020501Y-67481846D01*
X134125002Y-67230180D01*
X134228162Y-67479846D01*
X134608154Y-67860501D01*
X135104891Y-68066765D01*
X135642750Y-68067234D01*
X136139846Y-67861838D01*
X136224771Y-67777060D01*
X136992545Y-67777060D01*
X137075884Y-68030953D01*
X137640306Y-68236590D01*
X138240458Y-68210579D01*
X138674116Y-68030953D01*
X138757455Y-67777060D01*
X137875000Y-66894605D01*
X136992545Y-67777060D01*
X136224771Y-67777060D01*
X136520501Y-67481846D01*
X136533106Y-67451489D01*
X136559047Y-67514116D01*
X136812940Y-67597455D01*
X137695395Y-66715000D01*
X138054605Y-66715000D01*
X138937060Y-67597455D01*
X139013656Y-67572313D01*
X139013656Y-67590000D01*
X139046917Y-67766765D01*
X139151385Y-67929113D01*
X139310785Y-68038027D01*
X139500000Y-68076344D01*
X141250000Y-68076344D01*
X141426765Y-68043083D01*
X141589113Y-67938615D01*
X141698027Y-67779215D01*
X141736344Y-67590000D01*
X141736344Y-65840000D01*
X141703083Y-65663235D01*
X141598615Y-65500887D01*
X141439215Y-65391973D01*
X141250000Y-65353656D01*
X139500000Y-65353656D01*
X139323235Y-65386917D01*
X139160887Y-65491385D01*
X139051973Y-65650785D01*
X139013656Y-65840000D01*
X139013656Y-65857687D01*
X138937060Y-65832545D01*
X138054605Y-66715000D01*
X137695395Y-66715000D01*
X136812940Y-65832545D01*
X136559047Y-65915884D01*
X136534976Y-65981952D01*
X136521838Y-65950154D01*
X136225142Y-65652940D01*
X136992545Y-65652940D01*
X137875000Y-66535395D01*
X138757455Y-65652940D01*
X138674116Y-65399047D01*
X138109694Y-65193410D01*
X137509542Y-65219421D01*
X137075884Y-65399047D01*
X136992545Y-65652940D01*
X136225142Y-65652940D01*
X136141846Y-65569499D01*
X135645109Y-65363235D01*
X135107250Y-65362766D01*
X134610154Y-65568162D01*
X134229499Y-65948154D01*
X134124998Y-66199820D01*
X134021838Y-65950154D01*
X133641846Y-65569499D01*
X133145109Y-65363235D01*
X132607250Y-65362766D01*
X132110154Y-65568162D01*
X131729499Y-65948154D01*
X131523235Y-66444891D01*
X131522766Y-66982750D01*
X131162000Y-66982750D01*
X131162000Y-65482580D01*
X131882580Y-64762000D01*
X144335000Y-64762000D01*
X144514492Y-64726941D01*
X144672290Y-64622290D01*
X144783000Y-64511580D01*
X144783000Y-75680630D01*
X144548606Y-76859013D01*
X143911904Y-77811904D01*
X142959012Y-78448606D01*
X141780635Y-78683000D01*
X120603367Y-78683000D01*
X121580938Y-77707134D01*
X122111395Y-76429652D01*
X122112602Y-75046416D01*
X121929284Y-74602750D01*
X131522766Y-74602750D01*
X131728162Y-75099846D01*
X132108154Y-75480501D01*
X132604891Y-75686765D01*
X133142750Y-75687234D01*
X133639846Y-75481838D01*
X134020501Y-75101846D01*
X134125002Y-74850180D01*
X134228162Y-75099846D01*
X134608154Y-75480501D01*
X135104891Y-75686765D01*
X135642750Y-75687234D01*
X136139846Y-75481838D01*
X136224771Y-75397060D01*
X136992545Y-75397060D01*
X137075884Y-75650953D01*
X137640306Y-75856590D01*
X138240458Y-75830579D01*
X138674116Y-75650953D01*
X138757455Y-75397060D01*
X137875000Y-74514605D01*
X136992545Y-75397060D01*
X136224771Y-75397060D01*
X136520501Y-75101846D01*
X136533106Y-75071489D01*
X136559047Y-75134116D01*
X136812940Y-75217455D01*
X137695395Y-74335000D01*
X138054605Y-74335000D01*
X138937060Y-75217455D01*
X139013656Y-75192313D01*
X139013656Y-75210000D01*
X139046917Y-75386765D01*
X139151385Y-75549113D01*
X139310785Y-75658027D01*
X139500000Y-75696344D01*
X141250000Y-75696344D01*
X141426765Y-75663083D01*
X141589113Y-75558615D01*
X141698027Y-75399215D01*
X141736344Y-75210000D01*
X141736344Y-73460000D01*
X141703083Y-73283235D01*
X141598615Y-73120887D01*
X141439215Y-73011973D01*
X141250000Y-72973656D01*
X139500000Y-72973656D01*
X139323235Y-73006917D01*
X139160887Y-73111385D01*
X139051973Y-73270785D01*
X139013656Y-73460000D01*
X139013656Y-73477687D01*
X138937060Y-73452545D01*
X138054605Y-74335000D01*
X137695395Y-74335000D01*
X136812940Y-73452545D01*
X136559047Y-73535884D01*
X136534976Y-73601952D01*
X136521838Y-73570154D01*
X136225142Y-73272940D01*
X136992545Y-73272940D01*
X137875000Y-74155395D01*
X138757455Y-73272940D01*
X138674116Y-73019047D01*
X138109694Y-72813410D01*
X137509542Y-72839421D01*
X137075884Y-73019047D01*
X136992545Y-73272940D01*
X136225142Y-73272940D01*
X136141846Y-73189499D01*
X135645109Y-72983235D01*
X135107250Y-72982766D01*
X134610154Y-73188162D01*
X134229499Y-73568154D01*
X134124998Y-73819820D01*
X134021838Y-73570154D01*
X133641846Y-73189499D01*
X133145109Y-72983235D01*
X132607250Y-72982766D01*
X132110154Y-73188162D01*
X131729499Y-73568154D01*
X131523235Y-74064891D01*
X131522766Y-74602750D01*
X121929284Y-74602750D01*
X121584376Y-73768011D01*
X120607134Y-72789062D01*
X119329652Y-72258605D01*
X117946416Y-72257398D01*
X116668011Y-72785624D01*
X115689062Y-73762866D01*
X115158605Y-75040348D01*
X115157398Y-76423584D01*
X115685624Y-77701989D01*
X116662866Y-78680938D01*
X116667832Y-78683000D01*
X104189369Y-78683000D01*
X103967696Y-78638907D01*
X103825863Y-78544137D01*
X103782302Y-78478944D01*
X105932600Y-78478944D01*
X106090594Y-78449215D01*
X106237400Y-78478944D01*
X108472600Y-78478944D01*
X108630594Y-78449215D01*
X108777400Y-78478944D01*
X111012600Y-78478944D01*
X111170594Y-78449215D01*
X111317400Y-78478944D01*
X113552600Y-78478944D01*
X113729365Y-78445683D01*
X113891713Y-78341215D01*
X114000627Y-78181815D01*
X114038944Y-77992600D01*
X114038944Y-75757400D01*
X114009215Y-75599406D01*
X114038944Y-75452600D01*
X114038944Y-73217400D01*
X114005683Y-73040635D01*
X113901215Y-72878287D01*
X113741815Y-72769373D01*
X113552600Y-72731056D01*
X111317400Y-72731056D01*
X111159406Y-72760785D01*
X111012600Y-72731056D01*
X108958944Y-72731056D01*
X108958944Y-70677400D01*
X108929215Y-70519406D01*
X108958944Y-70372600D01*
X108958944Y-68244282D01*
X109010927Y-68192299D01*
X109107600Y-67958910D01*
X109107600Y-67000750D01*
X108948850Y-66842000D01*
X107482000Y-66842000D01*
X107482000Y-66862000D01*
X107228000Y-66862000D01*
X107228000Y-66842000D01*
X107208000Y-66842000D01*
X107208000Y-66588000D01*
X107228000Y-66588000D01*
X107228000Y-65121150D01*
X107482000Y-65121150D01*
X107482000Y-66588000D01*
X108948850Y-66588000D01*
X109107600Y-66429250D01*
X109107600Y-65471090D01*
X109010927Y-65237701D01*
X108832298Y-65059073D01*
X108598909Y-64962400D01*
X107640750Y-64962400D01*
X107482000Y-65121150D01*
X107228000Y-65121150D01*
X107069250Y-64962400D01*
X106111091Y-64962400D01*
X105877702Y-65059073D01*
X105825719Y-65111056D01*
X103712000Y-65111056D01*
X103712000Y-61885000D01*
X104408000Y-61885000D01*
X104596550Y-62832907D01*
X105133497Y-63636503D01*
X105937093Y-64173450D01*
X106885000Y-64362000D01*
X108784980Y-64362000D01*
X109036348Y-64312000D01*
X113584998Y-64312000D01*
X114532905Y-64123450D01*
X115336501Y-63586503D01*
X115873448Y-62782907D01*
X116061998Y-61835000D01*
X115873448Y-60887093D01*
X115336501Y-60083497D01*
X114532905Y-59546550D01*
X113584998Y-59358000D01*
X108834980Y-59358000D01*
X108583612Y-59408000D01*
X106885000Y-59408000D01*
X105937093Y-59596550D01*
X105133497Y-60133497D01*
X104596550Y-60937093D01*
X104408000Y-61885000D01*
X103712000Y-61885000D01*
X103712000Y-55469886D01*
X103775910Y-55624560D01*
X103994292Y-55843324D01*
X104279769Y-55961865D01*
X104588879Y-55962134D01*
X104874562Y-55844092D01*
X105093326Y-55625710D01*
X105211867Y-55340233D01*
X105212136Y-55031123D01*
X105094094Y-54745440D01*
X105037002Y-54688248D01*
X105037002Y-54638877D01*
X108457866Y-54638877D01*
X108575908Y-54924560D01*
X108794290Y-55143324D01*
X109079767Y-55261865D01*
X109388877Y-55262134D01*
X109674560Y-55144092D01*
X109677284Y-55141373D01*
X109878934Y-55225106D01*
X110188044Y-55225375D01*
X110473727Y-55107333D01*
X110692491Y-54888951D01*
X110811032Y-54603474D01*
X110811301Y-54294364D01*
X110693259Y-54008681D01*
X110636167Y-53951489D01*
X110636167Y-53082767D01*
X110693324Y-53025710D01*
X110811865Y-52740233D01*
X110812134Y-52431123D01*
X110694092Y-52145440D01*
X110619533Y-52070750D01*
X110825000Y-52070750D01*
X110825000Y-52661309D01*
X110921673Y-52894698D01*
X111100301Y-53073327D01*
X111333690Y-53170000D01*
X111799250Y-53170000D01*
X111958000Y-53011250D01*
X111958000Y-51912000D01*
X112212000Y-51912000D01*
X112212000Y-53011250D01*
X112370750Y-53170000D01*
X112836310Y-53170000D01*
X113069699Y-53073327D01*
X113248327Y-52894698D01*
X113345000Y-52661309D01*
X113345000Y-52070750D01*
X113186250Y-51912000D01*
X112212000Y-51912000D01*
X111958000Y-51912000D01*
X110983750Y-51912000D01*
X110825000Y-52070750D01*
X110619533Y-52070750D01*
X110475710Y-51926676D01*
X110190233Y-51808135D01*
X109881123Y-51807866D01*
X109837000Y-51826097D01*
X109837000Y-50971590D01*
X109989227Y-50908691D01*
X110825000Y-50908691D01*
X110825000Y-51499250D01*
X110983750Y-51658000D01*
X111958000Y-51658000D01*
X111958000Y-51638000D01*
X112212000Y-51638000D01*
X112212000Y-51658000D01*
X113186250Y-51658000D01*
X113345000Y-51499250D01*
X113345000Y-50908691D01*
X113248327Y-50675302D01*
X113069699Y-50496673D01*
X112950284Y-50447210D01*
X113049113Y-50383615D01*
X113158027Y-50224215D01*
X113196344Y-50035000D01*
X113196344Y-48535000D01*
X113163083Y-48358235D01*
X113058615Y-48195887D01*
X113037330Y-48181344D01*
X113243324Y-47975710D01*
X113361865Y-47690233D01*
X113362134Y-47381123D01*
X113244092Y-47095440D01*
X113025710Y-46876676D01*
X112740233Y-46758135D01*
X112431123Y-46757866D01*
X112145440Y-46875908D01*
X111926676Y-47094290D01*
X111808135Y-47379767D01*
X111808065Y-47460579D01*
X111659322Y-47609322D01*
X111528825Y-47804625D01*
X111483000Y-48035000D01*
X111483000Y-48048656D01*
X111460000Y-48048656D01*
X111283235Y-48081917D01*
X111120887Y-48186385D01*
X111011973Y-48345785D01*
X110973656Y-48535000D01*
X110973656Y-50035000D01*
X111006917Y-50211765D01*
X111111385Y-50374113D01*
X111218875Y-50447558D01*
X111100301Y-50496673D01*
X110921673Y-50675302D01*
X110825000Y-50908691D01*
X109989227Y-50908691D01*
X110024560Y-50894092D01*
X110243324Y-50675710D01*
X110361865Y-50390233D01*
X110362134Y-50081123D01*
X110244092Y-49795440D01*
X110025710Y-49576676D01*
X109740233Y-49458135D01*
X109431123Y-49457866D01*
X109145440Y-49575908D01*
X108926676Y-49794290D01*
X108808135Y-50079767D01*
X108808064Y-50161205D01*
X108678825Y-50354625D01*
X108633000Y-50585000D01*
X108633000Y-53988064D01*
X108576676Y-54044290D01*
X108458135Y-54329767D01*
X108457866Y-54638877D01*
X105037002Y-54638877D01*
X105037002Y-53985002D01*
X104991177Y-53754627D01*
X104960112Y-53708135D01*
X104862064Y-53561394D01*
X104862134Y-53481123D01*
X104744092Y-53195440D01*
X104525710Y-52976676D01*
X104240233Y-52858135D01*
X103931123Y-52857866D01*
X103645440Y-52975908D01*
X103426676Y-53194290D01*
X103308135Y-53479767D01*
X103307866Y-53788877D01*
X103425908Y-54074560D01*
X103644290Y-54293324D01*
X103833002Y-54371684D01*
X103833002Y-54688064D01*
X103776678Y-54744290D01*
X103712000Y-54900051D01*
X103712000Y-54835000D01*
X103679378Y-54661631D01*
X103576917Y-54502402D01*
X103420580Y-54395581D01*
X103235000Y-54358000D01*
X95835000Y-54358000D01*
X95659517Y-54391452D01*
X95500777Y-54494670D01*
X95394702Y-54651515D01*
X95358005Y-54837271D01*
X95371801Y-57734484D01*
X94929694Y-57573410D01*
X94329542Y-57599421D01*
X93895884Y-57779047D01*
X93812545Y-58032940D01*
X94695000Y-58915395D01*
X94709143Y-58901253D01*
X94888748Y-59080858D01*
X94874605Y-59095000D01*
X94888748Y-59109143D01*
X94709143Y-59288748D01*
X94695000Y-59274605D01*
X93812545Y-60157060D01*
X93895884Y-60410953D01*
X94460306Y-60616590D01*
X95060458Y-60590579D01*
X95384762Y-60456249D01*
X95408150Y-65367727D01*
X94929694Y-65193410D01*
X94329542Y-65219421D01*
X93895884Y-65399047D01*
X93812545Y-65652940D01*
X94695000Y-66535395D01*
X94709143Y-66521253D01*
X94888748Y-66700858D01*
X94874605Y-66715000D01*
X94888748Y-66729143D01*
X94709143Y-66908748D01*
X94695000Y-66894605D01*
X93812545Y-67777060D01*
X93895884Y-68030953D01*
X94460306Y-68236590D01*
X95060458Y-68210579D01*
X95420976Y-68061248D01*
X95444499Y-73000970D01*
X94929694Y-72813410D01*
X94329542Y-72839421D01*
X93895884Y-73019047D01*
X93812545Y-73272940D01*
X94695000Y-74155395D01*
X94709143Y-74141253D01*
X94888748Y-74320858D01*
X94874605Y-74335000D01*
X94888748Y-74349143D01*
X94709143Y-74528748D01*
X94695000Y-74514605D01*
X94680858Y-74528748D01*
X94501253Y-74349143D01*
X94515395Y-74335000D01*
X93632940Y-73452545D01*
X93379047Y-73535884D01*
X93354976Y-73601952D01*
X93341838Y-73570154D01*
X92961846Y-73189499D01*
X92465109Y-72983235D01*
X91927250Y-72982766D01*
X91430154Y-73188162D01*
X91049499Y-73568154D01*
X90944998Y-73819820D01*
X90841838Y-73570154D01*
X90461846Y-73189499D01*
X89965109Y-72983235D01*
X89427250Y-72982766D01*
X88930154Y-73188162D01*
X88549499Y-73568154D01*
X88343235Y-74064891D01*
X88342766Y-74602750D01*
X88548162Y-75099846D01*
X88805866Y-75358000D01*
X83287000Y-75358000D01*
X83287000Y-68081936D01*
X83343324Y-68025710D01*
X83461865Y-67740233D01*
X83462134Y-67431123D01*
X83344092Y-67145440D01*
X83181687Y-66982750D01*
X88342766Y-66982750D01*
X88548162Y-67479846D01*
X88928154Y-67860501D01*
X89424891Y-68066765D01*
X89962750Y-68067234D01*
X90459846Y-67861838D01*
X90840501Y-67481846D01*
X90945002Y-67230180D01*
X91048162Y-67479846D01*
X91428154Y-67860501D01*
X91924891Y-68066765D01*
X92462750Y-68067234D01*
X92959846Y-67861838D01*
X93340501Y-67481846D01*
X93353106Y-67451489D01*
X93379047Y-67514116D01*
X93632940Y-67597455D01*
X94515395Y-66715000D01*
X93632940Y-65832545D01*
X93379047Y-65915884D01*
X93354976Y-65981952D01*
X93341838Y-65950154D01*
X92961846Y-65569499D01*
X92465109Y-65363235D01*
X91927250Y-65362766D01*
X91430154Y-65568162D01*
X91049499Y-65948154D01*
X90944998Y-66199820D01*
X90841838Y-65950154D01*
X90461846Y-65569499D01*
X89965109Y-65363235D01*
X89427250Y-65362766D01*
X88930154Y-65568162D01*
X88549499Y-65948154D01*
X88343235Y-66444891D01*
X88342766Y-66982750D01*
X83181687Y-66982750D01*
X83125710Y-66926676D01*
X82840233Y-66808135D01*
X82531123Y-66807866D01*
X82245440Y-66925908D01*
X82026676Y-67144290D01*
X81908135Y-67429767D01*
X81907866Y-67738877D01*
X82025908Y-68024560D01*
X82083000Y-68081752D01*
X82083000Y-75358000D01*
X78614686Y-75358000D01*
X76900843Y-73644157D01*
X76790090Y-73570154D01*
X76583882Y-73432370D01*
X76210000Y-73358000D01*
X75677151Y-73358000D01*
X75663083Y-73283235D01*
X75558615Y-73120887D01*
X75399215Y-73011973D01*
X75312000Y-72994312D01*
X75312000Y-68057151D01*
X75386765Y-68043083D01*
X75549113Y-67938615D01*
X75658027Y-67779215D01*
X75696344Y-67590000D01*
X75696344Y-65840000D01*
X75663083Y-65663235D01*
X75558615Y-65500887D01*
X75399215Y-65391973D01*
X75210000Y-65353656D01*
X75192000Y-65353656D01*
X75192000Y-60437151D01*
X75266765Y-60423083D01*
X75429113Y-60318615D01*
X75538027Y-60159215D01*
X75576344Y-59970000D01*
X75576344Y-59362750D01*
X88342766Y-59362750D01*
X88548162Y-59859846D01*
X88928154Y-60240501D01*
X89424891Y-60446765D01*
X89962750Y-60447234D01*
X90459846Y-60241838D01*
X90840501Y-59861846D01*
X90945002Y-59610180D01*
X91048162Y-59859846D01*
X91428154Y-60240501D01*
X91924891Y-60446765D01*
X92462750Y-60447234D01*
X92959846Y-60241838D01*
X93340501Y-59861846D01*
X93353106Y-59831489D01*
X93379047Y-59894116D01*
X93632940Y-59977455D01*
X94515395Y-59095000D01*
X93632940Y-58212545D01*
X93379047Y-58295884D01*
X93354976Y-58361952D01*
X93341838Y-58330154D01*
X92961846Y-57949499D01*
X92465109Y-57743235D01*
X91927250Y-57742766D01*
X91430154Y-57948162D01*
X91049499Y-58328154D01*
X90944998Y-58579820D01*
X90841838Y-58330154D01*
X90461846Y-57949499D01*
X89965109Y-57743235D01*
X89427250Y-57742766D01*
X88930154Y-57948162D01*
X88549499Y-58328154D01*
X88343235Y-58824891D01*
X88342766Y-59362750D01*
X75576344Y-59362750D01*
X75576344Y-58220000D01*
X75543083Y-58043235D01*
X75438615Y-57880887D01*
X75279215Y-57771973D01*
X75090000Y-57733656D01*
X73340000Y-57733656D01*
X73163235Y-57766917D01*
X73000887Y-57871385D01*
X72891973Y-58030785D01*
X72853656Y-58220000D01*
X72853656Y-58237687D01*
X72777060Y-58212545D01*
X71894605Y-59095000D01*
X72777060Y-59977455D01*
X72853656Y-59952313D01*
X72853656Y-59970000D01*
X72886917Y-60146765D01*
X72991385Y-60309113D01*
X73150785Y-60418027D01*
X73238000Y-60435688D01*
X73238000Y-65416025D01*
X73120887Y-65491385D01*
X73011973Y-65650785D01*
X72973656Y-65840000D01*
X72973656Y-65857687D01*
X72897060Y-65832545D01*
X72014605Y-66715000D01*
X72897060Y-67597455D01*
X72973656Y-67572313D01*
X72973656Y-67590000D01*
X73006917Y-67766765D01*
X73111385Y-67929113D01*
X73270785Y-68038027D01*
X73358000Y-68055688D01*
X73358000Y-72992849D01*
X73283235Y-73006917D01*
X73120887Y-73111385D01*
X73011973Y-73270785D01*
X72973656Y-73460000D01*
X72973656Y-73477687D01*
X72897060Y-73452545D01*
X72014605Y-74335000D01*
X72028748Y-74349143D01*
X71849143Y-74528748D01*
X71835000Y-74514605D01*
X71820858Y-74528748D01*
X71641253Y-74349143D01*
X71655395Y-74335000D01*
X70772940Y-73452545D01*
X70519047Y-73535884D01*
X70494976Y-73601952D01*
X70481838Y-73570154D01*
X70185142Y-73272940D01*
X70952545Y-73272940D01*
X71835000Y-74155395D01*
X72717455Y-73272940D01*
X72634116Y-73019047D01*
X72069694Y-72813410D01*
X71469542Y-72839421D01*
X71035884Y-73019047D01*
X70952545Y-73272940D01*
X70185142Y-73272940D01*
X70101846Y-73189499D01*
X69605109Y-72983235D01*
X69067250Y-72982766D01*
X68570154Y-73188162D01*
X68189499Y-73568154D01*
X68084998Y-73819820D01*
X67981838Y-73570154D01*
X67601846Y-73189499D01*
X67105109Y-72983235D01*
X66567250Y-72982766D01*
X66070154Y-73188162D01*
X65723848Y-73533865D01*
X65711648Y-73216667D01*
X65676941Y-73055508D01*
X65572290Y-72897710D01*
X63172290Y-70497710D01*
X63020580Y-70395581D01*
X62835000Y-70358000D01*
X61162000Y-70358000D01*
X61162000Y-66982750D01*
X65482766Y-66982750D01*
X65688162Y-67479846D01*
X66068154Y-67860501D01*
X66564891Y-68066765D01*
X67102750Y-68067234D01*
X67599846Y-67861838D01*
X67980501Y-67481846D01*
X68085002Y-67230180D01*
X68188162Y-67479846D01*
X68568154Y-67860501D01*
X69064891Y-68066765D01*
X69602750Y-68067234D01*
X70099846Y-67861838D01*
X70184771Y-67777060D01*
X70952545Y-67777060D01*
X71035884Y-68030953D01*
X71600306Y-68236590D01*
X72200458Y-68210579D01*
X72634116Y-68030953D01*
X72717455Y-67777060D01*
X71835000Y-66894605D01*
X70952545Y-67777060D01*
X70184771Y-67777060D01*
X70480501Y-67481846D01*
X70493106Y-67451489D01*
X70519047Y-67514116D01*
X70772940Y-67597455D01*
X71655395Y-66715000D01*
X70772940Y-65832545D01*
X70519047Y-65915884D01*
X70494976Y-65981952D01*
X70481838Y-65950154D01*
X70185142Y-65652940D01*
X70952545Y-65652940D01*
X71835000Y-66535395D01*
X72717455Y-65652940D01*
X72634116Y-65399047D01*
X72069694Y-65193410D01*
X71469542Y-65219421D01*
X71035884Y-65399047D01*
X70952545Y-65652940D01*
X70185142Y-65652940D01*
X70101846Y-65569499D01*
X69605109Y-65363235D01*
X69067250Y-65362766D01*
X68570154Y-65568162D01*
X68189499Y-65948154D01*
X68084998Y-66199820D01*
X67981838Y-65950154D01*
X67601846Y-65569499D01*
X67105109Y-65363235D01*
X66567250Y-65362766D01*
X66070154Y-65568162D01*
X65689499Y-65948154D01*
X65483235Y-66444891D01*
X65482766Y-66982750D01*
X61162000Y-66982750D01*
X61162000Y-59362750D01*
X65362766Y-59362750D01*
X65568162Y-59859846D01*
X65948154Y-60240501D01*
X66444891Y-60446765D01*
X66982750Y-60447234D01*
X67479846Y-60241838D01*
X67860501Y-59861846D01*
X67965002Y-59610180D01*
X68068162Y-59859846D01*
X68448154Y-60240501D01*
X68944891Y-60446765D01*
X69482750Y-60447234D01*
X69979846Y-60241838D01*
X70064771Y-60157060D01*
X70832545Y-60157060D01*
X70915884Y-60410953D01*
X71480306Y-60616590D01*
X72080458Y-60590579D01*
X72514116Y-60410953D01*
X72597455Y-60157060D01*
X71715000Y-59274605D01*
X70832545Y-60157060D01*
X70064771Y-60157060D01*
X70360501Y-59861846D01*
X70373106Y-59831489D01*
X70399047Y-59894116D01*
X70652940Y-59977455D01*
X71535395Y-59095000D01*
X70652940Y-58212545D01*
X70399047Y-58295884D01*
X70374976Y-58361952D01*
X70361838Y-58330154D01*
X70065142Y-58032940D01*
X70832545Y-58032940D01*
X71715000Y-58915395D01*
X72597455Y-58032940D01*
X72514116Y-57779047D01*
X71949694Y-57573410D01*
X71349542Y-57599421D01*
X70915884Y-57779047D01*
X70832545Y-58032940D01*
X70065142Y-58032940D01*
X69981846Y-57949499D01*
X69485109Y-57743235D01*
X68947250Y-57742766D01*
X68450154Y-57948162D01*
X68069499Y-58328154D01*
X67964998Y-58579820D01*
X67861838Y-58330154D01*
X67481846Y-57949499D01*
X66985109Y-57743235D01*
X66447250Y-57742766D01*
X65950154Y-57948162D01*
X65569499Y-58328154D01*
X65363235Y-58824891D01*
X65362766Y-59362750D01*
X61162000Y-59362750D01*
X61162000Y-55618944D01*
X62752600Y-55618944D01*
X62910594Y-55589215D01*
X63057400Y-55618944D01*
X65292600Y-55618944D01*
X65450594Y-55589215D01*
X65597400Y-55618944D01*
X67832600Y-55618944D01*
X67990594Y-55589215D01*
X68137400Y-55618944D01*
X70372600Y-55618944D01*
X70530594Y-55589215D01*
X70677400Y-55618944D01*
X72912600Y-55618944D01*
X73089365Y-55585683D01*
X73251713Y-55481215D01*
X73360627Y-55321815D01*
X73398944Y-55132600D01*
X73398944Y-52897400D01*
X73369215Y-52739406D01*
X73398944Y-52592600D01*
X73398944Y-50464282D01*
X73450927Y-50412299D01*
X73547600Y-50178910D01*
X73547600Y-49220750D01*
X73388850Y-49062000D01*
X71922000Y-49062000D01*
X71922000Y-49082000D01*
X71668000Y-49082000D01*
X71668000Y-49062000D01*
X71648000Y-49062000D01*
X71648000Y-48808000D01*
X71668000Y-48808000D01*
X71668000Y-46522000D01*
X71922000Y-46522000D01*
X71922000Y-48808000D01*
X73388850Y-48808000D01*
X73547600Y-48649250D01*
X73547600Y-47691090D01*
X73536793Y-47665000D01*
X73547600Y-47638910D01*
X73547600Y-46680750D01*
X73405727Y-46538877D01*
X92707866Y-46538877D01*
X92825908Y-46824560D01*
X93044290Y-47043324D01*
X93329767Y-47161865D01*
X93460623Y-47161979D01*
X93573656Y-47275012D01*
X93573656Y-48285000D01*
X93606917Y-48461765D01*
X93711385Y-48624113D01*
X93870785Y-48733027D01*
X93980595Y-48755264D01*
X93908135Y-48929767D01*
X93907866Y-49238877D01*
X94025908Y-49524560D01*
X94244290Y-49743324D01*
X94529767Y-49861865D01*
X94838877Y-49862134D01*
X95124560Y-49744092D01*
X95343324Y-49525710D01*
X95461865Y-49240233D01*
X95462134Y-48931123D01*
X95389902Y-48756309D01*
X95486765Y-48738083D01*
X95513701Y-48720750D01*
X96200000Y-48720750D01*
X96200000Y-49186310D01*
X96296673Y-49419699D01*
X96475302Y-49598327D01*
X96708691Y-49695000D01*
X97299250Y-49695000D01*
X97458000Y-49536250D01*
X97458000Y-48562000D01*
X96358750Y-48562000D01*
X96200000Y-48720750D01*
X95513701Y-48720750D01*
X95649113Y-48633615D01*
X95758027Y-48474215D01*
X95796344Y-48285000D01*
X95796344Y-47683690D01*
X96200000Y-47683690D01*
X96200000Y-48149250D01*
X96358750Y-48308000D01*
X97458000Y-48308000D01*
X97458000Y-47333750D01*
X97712000Y-47333750D01*
X97712000Y-48308000D01*
X97732000Y-48308000D01*
X97732000Y-48562000D01*
X97712000Y-48562000D01*
X97712000Y-49536250D01*
X97870750Y-49695000D01*
X98461309Y-49695000D01*
X98694698Y-49598327D01*
X98873327Y-49419699D01*
X98922790Y-49300284D01*
X98986385Y-49399113D01*
X99045590Y-49439567D01*
X99008135Y-49529769D01*
X99007866Y-49838879D01*
X99125908Y-50124562D01*
X99344290Y-50343326D01*
X99629767Y-50461867D01*
X99938877Y-50462136D01*
X100224560Y-50344094D01*
X100443324Y-50125712D01*
X100561865Y-49840235D01*
X100561958Y-49733935D01*
X100641175Y-49615377D01*
X100654907Y-49546344D01*
X100835000Y-49546344D01*
X101011765Y-49513083D01*
X101174113Y-49408615D01*
X101283027Y-49249215D01*
X101309142Y-49120253D01*
X101529767Y-49211865D01*
X101838877Y-49212134D01*
X102124560Y-49094092D01*
X102343324Y-48875710D01*
X102461865Y-48590233D01*
X102462134Y-48281123D01*
X102344092Y-47995440D01*
X102125710Y-47776676D01*
X101840233Y-47658135D01*
X101531123Y-47657866D01*
X101309916Y-47749267D01*
X101288083Y-47633235D01*
X101183615Y-47470887D01*
X101024215Y-47361973D01*
X100835000Y-47323656D01*
X100764939Y-47323656D01*
X100786907Y-47270750D01*
X105225000Y-47270750D01*
X105225000Y-47861309D01*
X105321673Y-48094698D01*
X105500301Y-48273327D01*
X105733690Y-48370000D01*
X106199250Y-48370000D01*
X106358000Y-48211250D01*
X106358000Y-47112000D01*
X106612000Y-47112000D01*
X106612000Y-48211250D01*
X106770750Y-48370000D01*
X107236310Y-48370000D01*
X107469699Y-48273327D01*
X107648327Y-48094698D01*
X107745000Y-47861309D01*
X107745000Y-47270750D01*
X107586250Y-47112000D01*
X106612000Y-47112000D01*
X106358000Y-47112000D01*
X105383750Y-47112000D01*
X105225000Y-47270750D01*
X100786907Y-47270750D01*
X100861865Y-47090233D01*
X100862134Y-46781123D01*
X100744092Y-46495440D01*
X100525710Y-46276676D01*
X100240233Y-46158135D01*
X99931123Y-46157866D01*
X99645440Y-46275908D01*
X99426676Y-46494290D01*
X99308135Y-46779767D01*
X99307866Y-47088877D01*
X99404875Y-47323656D01*
X99335000Y-47323656D01*
X99158235Y-47356917D01*
X98995887Y-47461385D01*
X98922442Y-47568875D01*
X98873327Y-47450301D01*
X98694698Y-47271673D01*
X98461309Y-47175000D01*
X97870750Y-47175000D01*
X97712000Y-47333750D01*
X97458000Y-47333750D01*
X97299250Y-47175000D01*
X96708691Y-47175000D01*
X96475302Y-47271673D01*
X96296673Y-47450301D01*
X96200000Y-47683690D01*
X95796344Y-47683690D01*
X95796344Y-47675012D01*
X96309292Y-47162065D01*
X96388877Y-47162134D01*
X96674560Y-47044092D01*
X96893324Y-46825710D01*
X97011865Y-46540233D01*
X97012134Y-46231123D01*
X96894092Y-45945440D01*
X96675710Y-45726676D01*
X96390233Y-45608135D01*
X96081123Y-45607866D01*
X95945000Y-45664111D01*
X95945000Y-45320750D01*
X95786250Y-45162000D01*
X94812000Y-45162000D01*
X94812000Y-45182000D01*
X94558000Y-45182000D01*
X94558000Y-45162000D01*
X93583750Y-45162000D01*
X93425000Y-45320750D01*
X93425000Y-45607948D01*
X93331123Y-45607866D01*
X93045440Y-45725908D01*
X92826676Y-45944290D01*
X92708135Y-46229767D01*
X92707866Y-46538877D01*
X73405727Y-46538877D01*
X73388850Y-46522000D01*
X71922000Y-46522000D01*
X71668000Y-46522000D01*
X71648000Y-46522000D01*
X71648000Y-46268000D01*
X71668000Y-46268000D01*
X71668000Y-44801150D01*
X71922000Y-44801150D01*
X71922000Y-46268000D01*
X73388850Y-46268000D01*
X73547600Y-46109250D01*
X73547600Y-45151090D01*
X73450927Y-44917701D01*
X73272298Y-44739073D01*
X73038909Y-44642400D01*
X72080750Y-44642400D01*
X71922000Y-44801150D01*
X71668000Y-44801150D01*
X71509250Y-44642400D01*
X70858944Y-44642400D01*
X70858944Y-44158691D01*
X93425000Y-44158691D01*
X93425000Y-44749250D01*
X93583750Y-44908000D01*
X94558000Y-44908000D01*
X94558000Y-43808750D01*
X94812000Y-43808750D01*
X94812000Y-44908000D01*
X95786250Y-44908000D01*
X95945000Y-44749250D01*
X95945000Y-44638877D01*
X104407866Y-44638877D01*
X104525908Y-44924560D01*
X104744290Y-45143324D01*
X105029767Y-45261865D01*
X105338877Y-45262134D01*
X105375884Y-45246843D01*
X105406917Y-45411765D01*
X105511385Y-45574113D01*
X105618875Y-45647558D01*
X105500301Y-45696673D01*
X105321673Y-45875302D01*
X105225000Y-46108691D01*
X105225000Y-46699250D01*
X105383750Y-46858000D01*
X106358000Y-46858000D01*
X106358000Y-46838000D01*
X106612000Y-46838000D01*
X106612000Y-46858000D01*
X107586250Y-46858000D01*
X107745000Y-46699250D01*
X107745000Y-46108691D01*
X107648327Y-45875302D01*
X107469699Y-45696673D01*
X107350284Y-45647210D01*
X107449113Y-45583615D01*
X107558027Y-45424215D01*
X107596344Y-45235000D01*
X107596344Y-43735000D01*
X107563083Y-43558235D01*
X107458615Y-43395887D01*
X107299215Y-43286973D01*
X107110000Y-43248656D01*
X105860000Y-43248656D01*
X105683235Y-43281917D01*
X105520887Y-43386385D01*
X105411973Y-43545785D01*
X105376082Y-43723021D01*
X105340233Y-43708135D01*
X105031123Y-43707866D01*
X104745440Y-43825908D01*
X104526676Y-44044290D01*
X104408135Y-44329767D01*
X104407866Y-44638877D01*
X95945000Y-44638877D01*
X95945000Y-44158691D01*
X95848327Y-43925302D01*
X95669699Y-43746673D01*
X95436310Y-43650000D01*
X94970750Y-43650000D01*
X94812000Y-43808750D01*
X94558000Y-43808750D01*
X94399250Y-43650000D01*
X93933690Y-43650000D01*
X93700301Y-43746673D01*
X93521673Y-43925302D01*
X93425000Y-44158691D01*
X70858944Y-44158691D01*
X70858944Y-42737400D01*
X70829215Y-42579406D01*
X70858944Y-42432600D01*
X70858944Y-40197400D01*
X70829215Y-40039406D01*
X70858944Y-39892600D01*
X70858944Y-37657400D01*
X70829215Y-37499406D01*
X70858944Y-37352600D01*
X70858944Y-35117400D01*
X70825683Y-34940635D01*
X70721215Y-34778287D01*
X70561815Y-34669373D01*
X70372600Y-34631056D01*
X68137400Y-34631056D01*
X67960635Y-34664317D01*
X67798287Y-34768785D01*
X67689373Y-34928185D01*
X67651056Y-35117400D01*
X67651056Y-37352600D01*
X67680785Y-37510594D01*
X67651056Y-37657400D01*
X67651056Y-39711056D01*
X65597400Y-39711056D01*
X65439406Y-39740785D01*
X65292600Y-39711056D01*
X63057400Y-39711056D01*
X62899406Y-39740785D01*
X62752600Y-39711056D01*
X60517400Y-39711056D01*
X60359406Y-39740785D01*
X60212600Y-39711056D01*
X57977400Y-39711056D01*
X57800635Y-39744317D01*
X57687000Y-39817439D01*
X57687000Y-34165000D01*
X58443656Y-34165000D01*
X58443656Y-35765000D01*
X58476917Y-35941765D01*
X58581385Y-36104113D01*
X58740785Y-36213027D01*
X58930000Y-36251344D01*
X60530000Y-36251344D01*
X60706765Y-36218083D01*
X60869113Y-36113615D01*
X60965365Y-35972745D01*
X62401861Y-35972745D01*
X62475995Y-36218864D01*
X63013223Y-36411965D01*
X63583454Y-36384778D01*
X63984005Y-36218864D01*
X64058139Y-35972745D01*
X63230000Y-35144605D01*
X62401861Y-35972745D01*
X60965365Y-35972745D01*
X60978027Y-35954215D01*
X61016344Y-35765000D01*
X61016344Y-34748223D01*
X61783035Y-34748223D01*
X61810222Y-35318454D01*
X61976136Y-35719005D01*
X62222255Y-35793139D01*
X63050395Y-34965000D01*
X63409605Y-34965000D01*
X64237745Y-35793139D01*
X64483864Y-35719005D01*
X64676965Y-35181777D01*
X64649778Y-34611546D01*
X64483864Y-34210995D01*
X64237745Y-34136861D01*
X63409605Y-34965000D01*
X63050395Y-34965000D01*
X62222255Y-34136861D01*
X61976136Y-34210995D01*
X61783035Y-34748223D01*
X61016344Y-34748223D01*
X61016344Y-34165000D01*
X60983083Y-33988235D01*
X60963148Y-33957255D01*
X62401861Y-33957255D01*
X63230000Y-34785395D01*
X64058139Y-33957255D01*
X63984005Y-33711136D01*
X63446777Y-33518035D01*
X62876546Y-33545222D01*
X62475995Y-33711136D01*
X62401861Y-33957255D01*
X60963148Y-33957255D01*
X60878615Y-33825887D01*
X60719215Y-33716973D01*
X60530000Y-33678656D01*
X58930000Y-33678656D01*
X58753235Y-33711917D01*
X58590887Y-33816385D01*
X58481973Y-33975785D01*
X58443656Y-34165000D01*
X57687000Y-34165000D01*
X57687000Y-28703367D01*
X58662866Y-29680938D01*
X59940348Y-30211395D01*
X61323584Y-30212602D01*
X62601989Y-29684376D01*
X63580938Y-28707134D01*
X64111395Y-27429652D01*
X64112602Y-26046416D01*
X64098382Y-26012000D01*
X64314479Y-26012000D01*
X64596669Y-26434328D01*
X64941192Y-26664530D01*
X64927534Y-26673656D01*
X64685000Y-26673656D01*
X64508235Y-26706917D01*
X64345887Y-26811385D01*
X64236973Y-26970785D01*
X64198656Y-27160000D01*
X64198656Y-27402534D01*
X64170430Y-27444777D01*
X64058000Y-28010000D01*
X64058000Y-30385000D01*
X64170430Y-30950223D01*
X64490603Y-31429397D01*
X64969777Y-31749570D01*
X65535000Y-31862000D01*
X66208000Y-31862000D01*
X66208000Y-32085000D01*
X66240622Y-32258369D01*
X66343083Y-32417598D01*
X66499420Y-32524419D01*
X66685000Y-32562000D01*
X78860628Y-32562000D01*
X78908007Y-41137635D01*
X78956456Y-41344473D01*
X79071716Y-41494697D01*
X80621716Y-42844697D01*
X80822020Y-42948427D01*
X81011220Y-42955871D01*
X81188410Y-42889119D01*
X81325670Y-42758690D01*
X82390397Y-41238878D01*
X87157865Y-41238878D01*
X87275907Y-41524561D01*
X87494289Y-41743325D01*
X87779766Y-41861866D01*
X88088876Y-41862135D01*
X88374559Y-41744093D01*
X88435001Y-41683756D01*
X88594290Y-41843324D01*
X88879767Y-41961865D01*
X89188877Y-41962134D01*
X89474560Y-41844092D01*
X89693324Y-41625710D01*
X89811865Y-41340233D01*
X89812134Y-41031123D01*
X89694092Y-40745440D01*
X89637000Y-40688248D01*
X89637000Y-38981936D01*
X89662350Y-38956630D01*
X89662253Y-39068162D01*
X89780295Y-39353845D01*
X89998677Y-39572609D01*
X90284154Y-39691150D01*
X90439929Y-39691286D01*
X93457935Y-42709292D01*
X93457866Y-42788877D01*
X93575908Y-43074560D01*
X93794290Y-43293324D01*
X94079767Y-43411865D01*
X94388877Y-43412134D01*
X94674560Y-43294092D01*
X94893324Y-43075710D01*
X95011865Y-42790233D01*
X95012134Y-42481123D01*
X94894092Y-42195440D01*
X94675710Y-41976676D01*
X94390233Y-41858135D01*
X94309422Y-41858065D01*
X94036357Y-41585000D01*
X98958000Y-41585000D01*
X99070430Y-42150223D01*
X99141624Y-42256772D01*
X99196550Y-42532907D01*
X99733497Y-43336503D01*
X100537093Y-43873450D01*
X100600129Y-43885989D01*
X100919777Y-44099570D01*
X101485000Y-44212000D01*
X102050223Y-44099570D01*
X102369871Y-43885989D01*
X102432907Y-43873450D01*
X103236503Y-43336503D01*
X105185825Y-41387182D01*
X105336503Y-41286502D01*
X105752180Y-40664399D01*
X105879396Y-40579396D01*
X106199569Y-40100223D01*
X106312000Y-39535000D01*
X106199569Y-38969776D01*
X106137361Y-38876675D01*
X105879396Y-38490602D01*
X105871012Y-38485000D01*
X105752180Y-38405599D01*
X105336503Y-37783496D01*
X104532907Y-37246549D01*
X104292125Y-37198655D01*
X104100223Y-37070430D01*
X103535000Y-36958000D01*
X102969777Y-37070430D01*
X102756680Y-37212816D01*
X102587094Y-37246549D01*
X101783497Y-37783496D01*
X99733497Y-39833497D01*
X99196550Y-40637093D01*
X99141624Y-40913228D01*
X99070430Y-41019777D01*
X98958000Y-41585000D01*
X94036357Y-41585000D01*
X91216517Y-38765161D01*
X91216521Y-38760408D01*
X91098479Y-38474725D01*
X90880097Y-38255961D01*
X90594620Y-38137420D01*
X90285510Y-38137151D01*
X89999827Y-38255193D01*
X89812037Y-38442655D01*
X89812134Y-38331123D01*
X89694092Y-38045440D01*
X89475710Y-37826676D01*
X89190233Y-37708135D01*
X88881123Y-37707866D01*
X88616266Y-37817303D01*
X88575710Y-37776676D01*
X88290233Y-37658135D01*
X87981123Y-37657866D01*
X87695440Y-37775908D01*
X87476676Y-37994290D01*
X87358135Y-38279767D01*
X87357866Y-38588877D01*
X87475908Y-38874560D01*
X87533000Y-38931752D01*
X87533000Y-40410389D01*
X87495439Y-40425909D01*
X87276675Y-40644291D01*
X87158134Y-40929768D01*
X87157865Y-41238878D01*
X82390397Y-41238878D01*
X85402827Y-36938877D01*
X93857866Y-36938877D01*
X93975908Y-37224560D01*
X94194290Y-37443324D01*
X94479767Y-37561865D01*
X94788877Y-37562134D01*
X95018813Y-37467126D01*
X95031917Y-37536765D01*
X95136385Y-37699113D01*
X95295785Y-37808027D01*
X95485000Y-37846344D01*
X95572014Y-37846344D01*
X95558135Y-37879767D01*
X95557866Y-38188877D01*
X95675908Y-38474560D01*
X95894290Y-38693324D01*
X96179767Y-38811865D01*
X96488877Y-38812134D01*
X96774560Y-38694092D01*
X96993324Y-38475710D01*
X97111865Y-38190233D01*
X97112134Y-37881123D01*
X97089629Y-37826657D01*
X97161765Y-37813083D01*
X97324113Y-37708615D01*
X97397558Y-37601125D01*
X97446673Y-37719699D01*
X97625302Y-37898327D01*
X97858691Y-37995000D01*
X98449250Y-37995000D01*
X98608000Y-37836250D01*
X98608000Y-36862000D01*
X98862000Y-36862000D01*
X98862000Y-37836250D01*
X99020750Y-37995000D01*
X99611309Y-37995000D01*
X99844698Y-37898327D01*
X100023327Y-37719699D01*
X100120000Y-37486310D01*
X100120000Y-37020750D01*
X99961250Y-36862000D01*
X98862000Y-36862000D01*
X98608000Y-36862000D01*
X98588000Y-36862000D01*
X98588000Y-36608000D01*
X98608000Y-36608000D01*
X98608000Y-35633750D01*
X98862000Y-35633750D01*
X98862000Y-36608000D01*
X99961250Y-36608000D01*
X100120000Y-36449250D01*
X100120000Y-35983690D01*
X100023327Y-35750301D01*
X99844698Y-35571673D01*
X99611309Y-35475000D01*
X99020750Y-35475000D01*
X98862000Y-35633750D01*
X98608000Y-35633750D01*
X98449250Y-35475000D01*
X97858691Y-35475000D01*
X97625302Y-35571673D01*
X97446673Y-35750301D01*
X97397210Y-35869716D01*
X97333615Y-35770887D01*
X97174215Y-35661973D01*
X96985000Y-35623656D01*
X95485000Y-35623656D01*
X95308235Y-35656917D01*
X95145887Y-35761385D01*
X95036973Y-35920785D01*
X95001518Y-36095869D01*
X94790233Y-36008135D01*
X94481123Y-36007866D01*
X94195440Y-36125908D01*
X93976676Y-36344290D01*
X93858135Y-36629767D01*
X93857866Y-36938877D01*
X85402827Y-36938877D01*
X85596807Y-36661987D01*
X86899394Y-35359399D01*
X86899397Y-35359397D01*
X87219570Y-34880223D01*
X87332000Y-34315000D01*
X87332000Y-34185138D01*
X87525670Y-33908690D01*
X87574419Y-33820580D01*
X87612000Y-33635000D01*
X87612000Y-29535000D01*
X87579378Y-29361631D01*
X87476917Y-29202402D01*
X87332000Y-29103384D01*
X87332000Y-28787747D01*
X87456669Y-28974328D01*
X87887179Y-29261985D01*
X88395000Y-29362997D01*
X88902821Y-29261985D01*
X89333331Y-28974328D01*
X89620988Y-28543818D01*
X89665000Y-28322555D01*
X89709012Y-28543818D01*
X89996669Y-28974328D01*
X90427179Y-29261985D01*
X90935000Y-29362997D01*
X91442821Y-29261985D01*
X91873331Y-28974328D01*
X92160988Y-28543818D01*
X92205000Y-28322555D01*
X92249012Y-28543818D01*
X92536669Y-28974328D01*
X92967179Y-29261985D01*
X93475000Y-29362997D01*
X93982821Y-29261985D01*
X94413331Y-28974328D01*
X94674923Y-28582827D01*
X94819817Y-28891358D01*
X95248076Y-29281645D01*
X95658110Y-29451476D01*
X95888000Y-29330155D01*
X95888000Y-28137000D01*
X95868000Y-28137000D01*
X95868000Y-27883000D01*
X95888000Y-27883000D01*
X95888000Y-27863000D01*
X96142000Y-27863000D01*
X96142000Y-27883000D01*
X96162000Y-27883000D01*
X96162000Y-28137000D01*
X96142000Y-28137000D01*
X96142000Y-29330155D01*
X96371890Y-29451476D01*
X96781924Y-29281645D01*
X97210183Y-28891358D01*
X97355077Y-28582827D01*
X97616669Y-28974328D01*
X98047179Y-29261985D01*
X98555000Y-29362997D01*
X99062821Y-29261985D01*
X99493331Y-28974328D01*
X99780988Y-28543818D01*
X99825000Y-28322555D01*
X99869012Y-28543818D01*
X100156669Y-28974328D01*
X100587179Y-29261985D01*
X101095000Y-29362997D01*
X101602821Y-29261985D01*
X102033331Y-28974328D01*
X102320988Y-28543818D01*
X102365000Y-28322555D01*
X102409012Y-28543818D01*
X102696669Y-28974328D01*
X103127179Y-29261985D01*
X103635000Y-29362997D01*
X104142821Y-29261985D01*
X104573331Y-28974328D01*
X104860988Y-28543818D01*
X104905000Y-28322555D01*
X104949012Y-28543818D01*
X105236669Y-28974328D01*
X105667179Y-29261985D01*
X106175000Y-29362997D01*
X106682821Y-29261985D01*
X107113331Y-28974328D01*
X107400988Y-28543818D01*
X107445000Y-28322555D01*
X107489012Y-28543818D01*
X107776669Y-28974328D01*
X108207179Y-29261985D01*
X108715000Y-29362997D01*
X109222821Y-29261985D01*
X109653331Y-28974328D01*
X109940988Y-28543818D01*
X109985000Y-28322555D01*
X110029012Y-28543818D01*
X110316669Y-28974328D01*
X110747179Y-29261985D01*
X111255000Y-29362997D01*
X111762821Y-29261985D01*
X112193331Y-28974328D01*
X112454923Y-28582827D01*
X112599817Y-28891358D01*
X113028076Y-29281645D01*
X113438110Y-29451476D01*
X113668000Y-29330155D01*
X113668000Y-28137000D01*
X113922000Y-28137000D01*
X113922000Y-29330155D01*
X114151890Y-29451476D01*
X114561924Y-29281645D01*
X114990183Y-28891358D01*
X115236486Y-28366892D01*
X115115819Y-28137000D01*
X113922000Y-28137000D01*
X113668000Y-28137000D01*
X113648000Y-28137000D01*
X113648000Y-27883000D01*
X113668000Y-27883000D01*
X113668000Y-27863000D01*
X113922000Y-27863000D01*
X113922000Y-27883000D01*
X115115819Y-27883000D01*
X115236486Y-27653108D01*
X115128696Y-27423584D01*
X115157398Y-27423584D01*
X115685624Y-28701989D01*
X116662866Y-29680938D01*
X117940348Y-30211395D01*
X119323584Y-30212602D01*
X120601989Y-29684376D01*
X121580938Y-28707134D01*
X122111395Y-27429652D01*
X122112602Y-26046416D01*
X121584376Y-24768011D01*
X120607134Y-23789062D01*
X119329652Y-23258605D01*
X117946416Y-23257398D01*
X116668011Y-23785624D01*
X115689062Y-24762866D01*
X115158605Y-26040348D01*
X115157398Y-27423584D01*
X115128696Y-27423584D01*
X114990183Y-27128642D01*
X114561924Y-26738355D01*
X114386847Y-26665840D01*
X114733331Y-26434328D01*
X115020988Y-26003818D01*
X115122000Y-25495997D01*
X115122000Y-25444003D01*
X115020988Y-24936182D01*
X114733331Y-24505672D01*
X114302821Y-24218015D01*
X113795000Y-24117003D01*
X113287179Y-24218015D01*
X112856669Y-24505672D01*
X112569012Y-24936182D01*
X112525000Y-25157445D01*
X112480988Y-24936182D01*
X112193331Y-24505672D01*
X111762821Y-24218015D01*
X111255000Y-24117003D01*
X110747179Y-24218015D01*
X110316669Y-24505672D01*
X110029012Y-24936182D01*
X109985000Y-25157445D01*
X109940988Y-24936182D01*
X109653331Y-24505672D01*
X109222821Y-24218015D01*
X108715000Y-24117003D01*
X108207179Y-24218015D01*
X107776669Y-24505672D01*
X107515077Y-24897173D01*
X107370183Y-24588642D01*
X106941924Y-24198355D01*
X106531890Y-24028524D01*
X106302000Y-24149845D01*
X106302000Y-25343000D01*
X106322000Y-25343000D01*
X106322000Y-25597000D01*
X106302000Y-25597000D01*
X106302000Y-25617000D01*
X106048000Y-25617000D01*
X106048000Y-25597000D01*
X106028000Y-25597000D01*
X106028000Y-25343000D01*
X106048000Y-25343000D01*
X106048000Y-24149845D01*
X105818110Y-24028524D01*
X105408076Y-24198355D01*
X104979817Y-24588642D01*
X104834923Y-24897173D01*
X104573331Y-24505672D01*
X104142821Y-24218015D01*
X103635000Y-24117003D01*
X103127179Y-24218015D01*
X102696669Y-24505672D01*
X102435077Y-24897173D01*
X102290183Y-24588642D01*
X101861924Y-24198355D01*
X101451890Y-24028524D01*
X101222000Y-24149845D01*
X101222000Y-25343000D01*
X101242000Y-25343000D01*
X101242000Y-25597000D01*
X101222000Y-25597000D01*
X101222000Y-25617000D01*
X100968000Y-25617000D01*
X100968000Y-25597000D01*
X100948000Y-25597000D01*
X100948000Y-25343000D01*
X100968000Y-25343000D01*
X100968000Y-24149845D01*
X100738110Y-24028524D01*
X100328076Y-24198355D01*
X99899817Y-24588642D01*
X99754923Y-24897173D01*
X99493331Y-24505672D01*
X99062821Y-24218015D01*
X98555000Y-24117003D01*
X98047179Y-24218015D01*
X97616669Y-24505672D01*
X97329012Y-24936182D01*
X97285000Y-25157445D01*
X97240988Y-24936182D01*
X96953331Y-24505672D01*
X96522821Y-24218015D01*
X96015000Y-24117003D01*
X95507179Y-24218015D01*
X95076669Y-24505672D01*
X94789012Y-24936182D01*
X94745000Y-25157445D01*
X94700988Y-24936182D01*
X94413331Y-24505672D01*
X93982821Y-24218015D01*
X93475000Y-24117003D01*
X92967179Y-24218015D01*
X92536669Y-24505672D01*
X92249012Y-24936182D01*
X92205000Y-25157445D01*
X92160988Y-24936182D01*
X91873331Y-24505672D01*
X91442821Y-24218015D01*
X90935000Y-24117003D01*
X90427179Y-24218015D01*
X89996669Y-24505672D01*
X89735077Y-24897173D01*
X89590183Y-24588642D01*
X89161924Y-24198355D01*
X88751890Y-24028524D01*
X88522000Y-24149845D01*
X88522000Y-25343000D01*
X88542000Y-25343000D01*
X88542000Y-25597000D01*
X88522000Y-25597000D01*
X88522000Y-25617000D01*
X88268000Y-25617000D01*
X88268000Y-25597000D01*
X88248000Y-25597000D01*
X88248000Y-25343000D01*
X88268000Y-25343000D01*
X88268000Y-24149845D01*
X88038110Y-24028524D01*
X87628076Y-24198355D01*
X87199817Y-24588642D01*
X87054923Y-24897173D01*
X86793331Y-24505672D01*
X86362821Y-24218015D01*
X85855000Y-24117003D01*
X85347179Y-24218015D01*
X84916669Y-24505672D01*
X84629012Y-24936182D01*
X84585000Y-25157445D01*
X84540988Y-24936182D01*
X84253331Y-24505672D01*
X83822821Y-24218015D01*
X83315000Y-24117003D01*
X82807179Y-24218015D01*
X82376669Y-24505672D01*
X82115077Y-24897173D01*
X81970183Y-24588642D01*
X81541924Y-24198355D01*
X81131890Y-24028524D01*
X80902000Y-24149845D01*
X80902000Y-25343000D01*
X80922000Y-25343000D01*
X80922000Y-25597000D01*
X80902000Y-25597000D01*
X80902000Y-25617000D01*
X80648000Y-25617000D01*
X80648000Y-25597000D01*
X80628000Y-25597000D01*
X80628000Y-25343000D01*
X80648000Y-25343000D01*
X80648000Y-24149845D01*
X80418110Y-24028524D01*
X80008076Y-24198355D01*
X79579817Y-24588642D01*
X79434923Y-24897173D01*
X79173331Y-24505672D01*
X78742821Y-24218015D01*
X78253987Y-24120780D01*
X82022677Y-20612000D01*
X82369226Y-20612000D01*
X82488162Y-20899846D01*
X82868154Y-21280501D01*
X83364891Y-21486765D01*
X83902750Y-21487234D01*
X84399846Y-21281838D01*
X84780501Y-20901846D01*
X84885002Y-20650180D01*
X84988162Y-20899846D01*
X85368154Y-21280501D01*
X85864891Y-21486765D01*
X86402750Y-21487234D01*
X86899846Y-21281838D01*
X87280501Y-20901846D01*
X87385002Y-20650180D01*
X87488162Y-20899846D01*
X87868154Y-21280501D01*
X88033000Y-21348951D01*
X88033000Y-21688058D01*
X87976670Y-21744290D01*
X87858129Y-22029767D01*
X87857860Y-22338877D01*
X87975902Y-22624560D01*
X88194284Y-22843324D01*
X88479761Y-22961865D01*
X88788871Y-22962134D01*
X89074554Y-22844092D01*
X89293318Y-22625710D01*
X89411859Y-22340233D01*
X89412128Y-22031123D01*
X89294086Y-21745440D01*
X89237000Y-21688254D01*
X89237000Y-21349125D01*
X89399846Y-21281838D01*
X89780501Y-20901846D01*
X89885002Y-20650180D01*
X89988162Y-20899846D01*
X90368154Y-21280501D01*
X90864891Y-21486765D01*
X91402750Y-21487234D01*
X91899846Y-21281838D01*
X92280501Y-20901846D01*
X92385002Y-20650180D01*
X92488162Y-20899846D01*
X92868154Y-21280501D01*
X93364891Y-21486765D01*
X93902750Y-21487234D01*
X94399846Y-21281838D01*
X94780501Y-20901846D01*
X94885002Y-20650180D01*
X94988162Y-20899846D01*
X95368154Y-21280501D01*
X95864891Y-21486765D01*
X96402750Y-21487234D01*
X96899846Y-21281838D01*
X97125000Y-21057076D01*
X97125000Y-21136310D01*
X97221673Y-21369699D01*
X97400302Y-21548327D01*
X97633691Y-21645000D01*
X98349250Y-21645000D01*
X98508000Y-21486250D01*
X98508000Y-20262000D01*
X98762000Y-20262000D01*
X98762000Y-21486250D01*
X98920750Y-21645000D01*
X99636309Y-21645000D01*
X99869698Y-21548327D01*
X100048327Y-21369699D01*
X100145000Y-21136310D01*
X100145000Y-20420750D01*
X100127000Y-20402750D01*
X105282766Y-20402750D01*
X105488162Y-20899846D01*
X105868154Y-21280501D01*
X106364891Y-21486765D01*
X106902750Y-21487234D01*
X107399846Y-21281838D01*
X107780501Y-20901846D01*
X107885002Y-20650180D01*
X107988162Y-20899846D01*
X108368154Y-21280501D01*
X108864891Y-21486765D01*
X109402750Y-21487234D01*
X109899846Y-21281838D01*
X110280501Y-20901846D01*
X110385002Y-20650180D01*
X110488162Y-20899846D01*
X110868154Y-21280501D01*
X111364891Y-21486765D01*
X111902750Y-21487234D01*
X112399846Y-21281838D01*
X112780501Y-20901846D01*
X112885002Y-20650180D01*
X112988162Y-20899846D01*
X113368154Y-21280501D01*
X113864891Y-21486765D01*
X114402750Y-21487234D01*
X114899846Y-21281838D01*
X114984771Y-21197060D01*
X115752545Y-21197060D01*
X115835884Y-21450953D01*
X116400306Y-21656590D01*
X117000458Y-21630579D01*
X117434116Y-21450953D01*
X117517455Y-21197060D01*
X116635000Y-20314605D01*
X115752545Y-21197060D01*
X114984771Y-21197060D01*
X115280501Y-20901846D01*
X115293106Y-20871489D01*
X115319047Y-20934116D01*
X115572940Y-21017455D01*
X116455395Y-20135000D01*
X116814605Y-20135000D01*
X117697060Y-21017455D01*
X117773656Y-20992313D01*
X117773656Y-21010000D01*
X117806917Y-21186765D01*
X117911385Y-21349113D01*
X118070785Y-21458027D01*
X118260000Y-21496344D01*
X120010000Y-21496344D01*
X120186765Y-21463083D01*
X120349113Y-21358615D01*
X120458027Y-21199215D01*
X120496344Y-21010000D01*
X120496344Y-19260000D01*
X120463083Y-19083235D01*
X120358615Y-18920887D01*
X120199215Y-18811973D01*
X120010000Y-18773656D01*
X118260000Y-18773656D01*
X118083235Y-18806917D01*
X117920887Y-18911385D01*
X117811973Y-19070785D01*
X117773656Y-19260000D01*
X117773656Y-19277687D01*
X117697060Y-19252545D01*
X116814605Y-20135000D01*
X116455395Y-20135000D01*
X115572940Y-19252545D01*
X115319047Y-19335884D01*
X115294976Y-19401952D01*
X115281838Y-19370154D01*
X114985142Y-19072940D01*
X115752545Y-19072940D01*
X116635000Y-19955395D01*
X117517455Y-19072940D01*
X117434116Y-18819047D01*
X116869694Y-18613410D01*
X116269542Y-18639421D01*
X115835884Y-18819047D01*
X115752545Y-19072940D01*
X114985142Y-19072940D01*
X114901846Y-18989499D01*
X114405109Y-18783235D01*
X113867250Y-18782766D01*
X113370154Y-18988162D01*
X112989499Y-19368154D01*
X112884998Y-19619820D01*
X112781838Y-19370154D01*
X112401846Y-18989499D01*
X111905109Y-18783235D01*
X111367250Y-18782766D01*
X110870154Y-18988162D01*
X110489499Y-19368154D01*
X110384998Y-19619820D01*
X110281838Y-19370154D01*
X109901846Y-18989499D01*
X109405109Y-18783235D01*
X108867250Y-18782766D01*
X108370154Y-18988162D01*
X107989499Y-19368154D01*
X107884998Y-19619820D01*
X107781838Y-19370154D01*
X107401846Y-18989499D01*
X106905109Y-18783235D01*
X106367250Y-18782766D01*
X105870154Y-18988162D01*
X105489499Y-19368154D01*
X105283235Y-19864891D01*
X105282766Y-20402750D01*
X100127000Y-20402750D01*
X99986250Y-20262000D01*
X98762000Y-20262000D01*
X98508000Y-20262000D01*
X98488000Y-20262000D01*
X98488000Y-20008000D01*
X98508000Y-20008000D01*
X98508000Y-18783750D01*
X98762000Y-18783750D01*
X98762000Y-20008000D01*
X99986250Y-20008000D01*
X100145000Y-19849250D01*
X100145000Y-19133690D01*
X100048327Y-18900301D01*
X99869698Y-18721673D01*
X99636309Y-18625000D01*
X98920750Y-18625000D01*
X98762000Y-18783750D01*
X98508000Y-18783750D01*
X98349250Y-18625000D01*
X97844534Y-18625000D01*
X97855584Y-18612000D01*
X120675499Y-18612000D01*
X123834525Y-23494131D01*
X124049420Y-23674419D01*
X124235000Y-23712000D01*
X128035000Y-23712000D01*
X128208369Y-23679378D01*
X128367598Y-23576917D01*
X128474419Y-23420580D01*
X128512000Y-23235000D01*
X128512000Y-22505000D01*
X129149250Y-22505000D01*
X129308000Y-22346250D01*
X129308000Y-21122000D01*
X129562000Y-21122000D01*
X129562000Y-22346250D01*
X129720750Y-22505000D01*
X130436309Y-22505000D01*
X130669698Y-22408327D01*
X130848327Y-22229699D01*
X130945000Y-21996310D01*
X130945000Y-21280750D01*
X130786250Y-21122000D01*
X129562000Y-21122000D01*
X129308000Y-21122000D01*
X129288000Y-21122000D01*
X129288000Y-20868000D01*
X129308000Y-20868000D01*
X129308000Y-19643750D01*
X129562000Y-19643750D01*
X129562000Y-20868000D01*
X130786250Y-20868000D01*
X130945000Y-20709250D01*
X130945000Y-19993690D01*
X130848327Y-19760301D01*
X130669698Y-19581673D01*
X130436309Y-19485000D01*
X129720750Y-19485000D01*
X129562000Y-19643750D01*
X129308000Y-19643750D01*
X129149250Y-19485000D01*
X128512000Y-19485000D01*
X128512000Y-18920750D01*
X130675000Y-18920750D01*
X130675000Y-19396309D01*
X130771673Y-19629698D01*
X130950301Y-19808327D01*
X131183690Y-19905000D01*
X131509250Y-19905000D01*
X131668000Y-19746250D01*
X131668000Y-18762000D01*
X130833750Y-18762000D01*
X130675000Y-18920750D01*
X128512000Y-18920750D01*
X128512000Y-18012000D01*
X130675000Y-18012000D01*
X130675000Y-18349250D01*
X130675000Y-18349250D01*
G37*
X130675000Y-18349250D02*
X130833750Y-18508000D01*
X131668000Y-18508000D01*
X131668000Y-18488000D01*
X131922000Y-18488000D01*
X131922000Y-18508000D01*
X131942000Y-18508000D01*
X131942000Y-18762000D01*
X131922000Y-18762000D01*
X131922000Y-19746250D01*
X132080750Y-19905000D01*
X132108000Y-19905000D01*
X132108000Y-23186938D01*
X131621099Y-24893450D01*
X126394938Y-33407036D01*
X125506678Y-34312122D01*
X124495485Y-34608000D01*
X120685000Y-34608000D01*
X120635590Y-34618006D01*
X120595197Y-34645197D01*
X118945197Y-36295197D01*
X118917334Y-36337211D01*
X118908000Y-36385285D01*
X118910396Y-37451481D01*
X118903609Y-37482893D01*
X118812312Y-58252980D01*
X118586517Y-60102186D01*
X118586391Y-60103227D01*
X118361391Y-61980199D01*
X118358000Y-62036972D01*
X118358000Y-64085000D01*
X118396523Y-64272794D01*
X118504131Y-64428591D01*
X119503420Y-65390882D01*
X119665411Y-65493396D01*
X119852276Y-65523952D01*
X120300972Y-65507020D01*
X121008000Y-66187870D01*
X121008000Y-70235000D01*
X121043059Y-70414492D01*
X121147710Y-70572290D01*
X122147710Y-71572290D01*
X122299420Y-71674419D01*
X122485000Y-71712000D01*
X129685000Y-71712000D01*
X129864492Y-71676941D01*
X130022290Y-71572290D01*
X131022290Y-70572290D01*
X131124419Y-70420580D01*
X131162000Y-70235000D01*
X131162000Y-66982750D01*
X131522766Y-66982750D01*
X131728162Y-67479846D01*
X132108154Y-67860501D01*
X132604891Y-68066765D01*
X133142750Y-68067234D01*
X133639846Y-67861838D01*
X134020501Y-67481846D01*
X134125002Y-67230180D01*
X134228162Y-67479846D01*
X134608154Y-67860501D01*
X135104891Y-68066765D01*
X135642750Y-68067234D01*
X136139846Y-67861838D01*
X136224771Y-67777060D01*
X136992545Y-67777060D01*
X137075884Y-68030953D01*
X137640306Y-68236590D01*
X138240458Y-68210579D01*
X138674116Y-68030953D01*
X138757455Y-67777060D01*
X137875000Y-66894605D01*
X136992545Y-67777060D01*
X136224771Y-67777060D01*
X136520501Y-67481846D01*
X136533106Y-67451489D01*
X136559047Y-67514116D01*
X136812940Y-67597455D01*
X137695395Y-66715000D01*
X138054605Y-66715000D01*
X138937060Y-67597455D01*
X139013656Y-67572313D01*
X139013656Y-67590000D01*
X139046917Y-67766765D01*
X139151385Y-67929113D01*
X139310785Y-68038027D01*
X139500000Y-68076344D01*
X141250000Y-68076344D01*
X141426765Y-68043083D01*
X141589113Y-67938615D01*
X141698027Y-67779215D01*
X141736344Y-67590000D01*
X141736344Y-65840000D01*
X141703083Y-65663235D01*
X141598615Y-65500887D01*
X141439215Y-65391973D01*
X141250000Y-65353656D01*
X139500000Y-65353656D01*
X139323235Y-65386917D01*
X139160887Y-65491385D01*
X139051973Y-65650785D01*
X139013656Y-65840000D01*
X139013656Y-65857687D01*
X138937060Y-65832545D01*
X138054605Y-66715000D01*
X137695395Y-66715000D01*
X136812940Y-65832545D01*
X136559047Y-65915884D01*
X136534976Y-65981952D01*
X136521838Y-65950154D01*
X136225142Y-65652940D01*
X136992545Y-65652940D01*
X137875000Y-66535395D01*
X138757455Y-65652940D01*
X138674116Y-65399047D01*
X138109694Y-65193410D01*
X137509542Y-65219421D01*
X137075884Y-65399047D01*
X136992545Y-65652940D01*
X136225142Y-65652940D01*
X136141846Y-65569499D01*
X135645109Y-65363235D01*
X135107250Y-65362766D01*
X134610154Y-65568162D01*
X134229499Y-65948154D01*
X134124998Y-66199820D01*
X134021838Y-65950154D01*
X133641846Y-65569499D01*
X133145109Y-65363235D01*
X132607250Y-65362766D01*
X132110154Y-65568162D01*
X131729499Y-65948154D01*
X131523235Y-66444891D01*
X131522766Y-66982750D01*
X131162000Y-66982750D01*
X131162000Y-65482580D01*
X131882580Y-64762000D01*
X144335000Y-64762000D01*
X144514492Y-64726941D01*
X144672290Y-64622290D01*
X144783000Y-64511580D01*
X144783000Y-75680630D01*
X144548606Y-76859013D01*
X143911904Y-77811904D01*
X142959012Y-78448606D01*
X141780635Y-78683000D01*
X120603367Y-78683000D01*
X121580938Y-77707134D01*
X122111395Y-76429652D01*
X122112602Y-75046416D01*
X121929284Y-74602750D01*
X131522766Y-74602750D01*
X131728162Y-75099846D01*
X132108154Y-75480501D01*
X132604891Y-75686765D01*
X133142750Y-75687234D01*
X133639846Y-75481838D01*
X134020501Y-75101846D01*
X134125002Y-74850180D01*
X134228162Y-75099846D01*
X134608154Y-75480501D01*
X135104891Y-75686765D01*
X135642750Y-75687234D01*
X136139846Y-75481838D01*
X136224771Y-75397060D01*
X136992545Y-75397060D01*
X137075884Y-75650953D01*
X137640306Y-75856590D01*
X138240458Y-75830579D01*
X138674116Y-75650953D01*
X138757455Y-75397060D01*
X137875000Y-74514605D01*
X136992545Y-75397060D01*
X136224771Y-75397060D01*
X136520501Y-75101846D01*
X136533106Y-75071489D01*
X136559047Y-75134116D01*
X136812940Y-75217455D01*
X137695395Y-74335000D01*
X138054605Y-74335000D01*
X138937060Y-75217455D01*
X139013656Y-75192313D01*
X139013656Y-75210000D01*
X139046917Y-75386765D01*
X139151385Y-75549113D01*
X139310785Y-75658027D01*
X139500000Y-75696344D01*
X141250000Y-75696344D01*
X141426765Y-75663083D01*
X141589113Y-75558615D01*
X141698027Y-75399215D01*
X141736344Y-75210000D01*
X141736344Y-73460000D01*
X141703083Y-73283235D01*
X141598615Y-73120887D01*
X141439215Y-73011973D01*
X141250000Y-72973656D01*
X139500000Y-72973656D01*
X139323235Y-73006917D01*
X139160887Y-73111385D01*
X139051973Y-73270785D01*
X139013656Y-73460000D01*
X139013656Y-73477687D01*
X138937060Y-73452545D01*
X138054605Y-74335000D01*
X137695395Y-74335000D01*
X136812940Y-73452545D01*
X136559047Y-73535884D01*
X136534976Y-73601952D01*
X136521838Y-73570154D01*
X136225142Y-73272940D01*
X136992545Y-73272940D01*
X137875000Y-74155395D01*
X138757455Y-73272940D01*
X138674116Y-73019047D01*
X138109694Y-72813410D01*
X137509542Y-72839421D01*
X137075884Y-73019047D01*
X136992545Y-73272940D01*
X136225142Y-73272940D01*
X136141846Y-73189499D01*
X135645109Y-72983235D01*
X135107250Y-72982766D01*
X134610154Y-73188162D01*
X134229499Y-73568154D01*
X134124998Y-73819820D01*
X134021838Y-73570154D01*
X133641846Y-73189499D01*
X133145109Y-72983235D01*
X132607250Y-72982766D01*
X132110154Y-73188162D01*
X131729499Y-73568154D01*
X131523235Y-74064891D01*
X131522766Y-74602750D01*
X121929284Y-74602750D01*
X121584376Y-73768011D01*
X120607134Y-72789062D01*
X119329652Y-72258605D01*
X117946416Y-72257398D01*
X116668011Y-72785624D01*
X115689062Y-73762866D01*
X115158605Y-75040348D01*
X115157398Y-76423584D01*
X115685624Y-77701989D01*
X116662866Y-78680938D01*
X116667832Y-78683000D01*
X104189369Y-78683000D01*
X103967696Y-78638907D01*
X103825863Y-78544137D01*
X103782302Y-78478944D01*
X105932600Y-78478944D01*
X106090594Y-78449215D01*
X106237400Y-78478944D01*
X108472600Y-78478944D01*
X108630594Y-78449215D01*
X108777400Y-78478944D01*
X111012600Y-78478944D01*
X111170594Y-78449215D01*
X111317400Y-78478944D01*
X113552600Y-78478944D01*
X113729365Y-78445683D01*
X113891713Y-78341215D01*
X114000627Y-78181815D01*
X114038944Y-77992600D01*
X114038944Y-75757400D01*
X114009215Y-75599406D01*
X114038944Y-75452600D01*
X114038944Y-73217400D01*
X114005683Y-73040635D01*
X113901215Y-72878287D01*
X113741815Y-72769373D01*
X113552600Y-72731056D01*
X111317400Y-72731056D01*
X111159406Y-72760785D01*
X111012600Y-72731056D01*
X108958944Y-72731056D01*
X108958944Y-70677400D01*
X108929215Y-70519406D01*
X108958944Y-70372600D01*
X108958944Y-68244282D01*
X109010927Y-68192299D01*
X109107600Y-67958910D01*
X109107600Y-67000750D01*
X108948850Y-66842000D01*
X107482000Y-66842000D01*
X107482000Y-66862000D01*
X107228000Y-66862000D01*
X107228000Y-66842000D01*
X107208000Y-66842000D01*
X107208000Y-66588000D01*
X107228000Y-66588000D01*
X107228000Y-65121150D01*
X107482000Y-65121150D01*
X107482000Y-66588000D01*
X108948850Y-66588000D01*
X109107600Y-66429250D01*
X109107600Y-65471090D01*
X109010927Y-65237701D01*
X108832298Y-65059073D01*
X108598909Y-64962400D01*
X107640750Y-64962400D01*
X107482000Y-65121150D01*
X107228000Y-65121150D01*
X107069250Y-64962400D01*
X106111091Y-64962400D01*
X105877702Y-65059073D01*
X105825719Y-65111056D01*
X103712000Y-65111056D01*
X103712000Y-61885000D01*
X104408000Y-61885000D01*
X104596550Y-62832907D01*
X105133497Y-63636503D01*
X105937093Y-64173450D01*
X106885000Y-64362000D01*
X108784980Y-64362000D01*
X109036348Y-64312000D01*
X113584998Y-64312000D01*
X114532905Y-64123450D01*
X115336501Y-63586503D01*
X115873448Y-62782907D01*
X116061998Y-61835000D01*
X115873448Y-60887093D01*
X115336501Y-60083497D01*
X114532905Y-59546550D01*
X113584998Y-59358000D01*
X108834980Y-59358000D01*
X108583612Y-59408000D01*
X106885000Y-59408000D01*
X105937093Y-59596550D01*
X105133497Y-60133497D01*
X104596550Y-60937093D01*
X104408000Y-61885000D01*
X103712000Y-61885000D01*
X103712000Y-55469886D01*
X103775910Y-55624560D01*
X103994292Y-55843324D01*
X104279769Y-55961865D01*
X104588879Y-55962134D01*
X104874562Y-55844092D01*
X105093326Y-55625710D01*
X105211867Y-55340233D01*
X105212136Y-55031123D01*
X105094094Y-54745440D01*
X105037002Y-54688248D01*
X105037002Y-54638877D01*
X108457866Y-54638877D01*
X108575908Y-54924560D01*
X108794290Y-55143324D01*
X109079767Y-55261865D01*
X109388877Y-55262134D01*
X109674560Y-55144092D01*
X109677284Y-55141373D01*
X109878934Y-55225106D01*
X110188044Y-55225375D01*
X110473727Y-55107333D01*
X110692491Y-54888951D01*
X110811032Y-54603474D01*
X110811301Y-54294364D01*
X110693259Y-54008681D01*
X110636167Y-53951489D01*
X110636167Y-53082767D01*
X110693324Y-53025710D01*
X110811865Y-52740233D01*
X110812134Y-52431123D01*
X110694092Y-52145440D01*
X110619533Y-52070750D01*
X110825000Y-52070750D01*
X110825000Y-52661309D01*
X110921673Y-52894698D01*
X111100301Y-53073327D01*
X111333690Y-53170000D01*
X111799250Y-53170000D01*
X111958000Y-53011250D01*
X111958000Y-51912000D01*
X112212000Y-51912000D01*
X112212000Y-53011250D01*
X112370750Y-53170000D01*
X112836310Y-53170000D01*
X113069699Y-53073327D01*
X113248327Y-52894698D01*
X113345000Y-52661309D01*
X113345000Y-52070750D01*
X113186250Y-51912000D01*
X112212000Y-51912000D01*
X111958000Y-51912000D01*
X110983750Y-51912000D01*
X110825000Y-52070750D01*
X110619533Y-52070750D01*
X110475710Y-51926676D01*
X110190233Y-51808135D01*
X109881123Y-51807866D01*
X109837000Y-51826097D01*
X109837000Y-50971590D01*
X109989227Y-50908691D01*
X110825000Y-50908691D01*
X110825000Y-51499250D01*
X110983750Y-51658000D01*
X111958000Y-51658000D01*
X111958000Y-51638000D01*
X112212000Y-51638000D01*
X112212000Y-51658000D01*
X113186250Y-51658000D01*
X113345000Y-51499250D01*
X113345000Y-50908691D01*
X113248327Y-50675302D01*
X113069699Y-50496673D01*
X112950284Y-50447210D01*
X113049113Y-50383615D01*
X113158027Y-50224215D01*
X113196344Y-50035000D01*
X113196344Y-48535000D01*
X113163083Y-48358235D01*
X113058615Y-48195887D01*
X113037330Y-48181344D01*
X113243324Y-47975710D01*
X113361865Y-47690233D01*
X113362134Y-47381123D01*
X113244092Y-47095440D01*
X113025710Y-46876676D01*
X112740233Y-46758135D01*
X112431123Y-46757866D01*
X112145440Y-46875908D01*
X111926676Y-47094290D01*
X111808135Y-47379767D01*
X111808065Y-47460579D01*
X111659322Y-47609322D01*
X111528825Y-47804625D01*
X111483000Y-48035000D01*
X111483000Y-48048656D01*
X111460000Y-48048656D01*
X111283235Y-48081917D01*
X111120887Y-48186385D01*
X111011973Y-48345785D01*
X110973656Y-48535000D01*
X110973656Y-50035000D01*
X111006917Y-50211765D01*
X111111385Y-50374113D01*
X111218875Y-50447558D01*
X111100301Y-50496673D01*
X110921673Y-50675302D01*
X110825000Y-50908691D01*
X109989227Y-50908691D01*
X110024560Y-50894092D01*
X110243324Y-50675710D01*
X110361865Y-50390233D01*
X110362134Y-50081123D01*
X110244092Y-49795440D01*
X110025710Y-49576676D01*
X109740233Y-49458135D01*
X109431123Y-49457866D01*
X109145440Y-49575908D01*
X108926676Y-49794290D01*
X108808135Y-50079767D01*
X108808064Y-50161205D01*
X108678825Y-50354625D01*
X108633000Y-50585000D01*
X108633000Y-53988064D01*
X108576676Y-54044290D01*
X108458135Y-54329767D01*
X108457866Y-54638877D01*
X105037002Y-54638877D01*
X105037002Y-53985002D01*
X104991177Y-53754627D01*
X104960112Y-53708135D01*
X104862064Y-53561394D01*
X104862134Y-53481123D01*
X104744092Y-53195440D01*
X104525710Y-52976676D01*
X104240233Y-52858135D01*
X103931123Y-52857866D01*
X103645440Y-52975908D01*
X103426676Y-53194290D01*
X103308135Y-53479767D01*
X103307866Y-53788877D01*
X103425908Y-54074560D01*
X103644290Y-54293324D01*
X103833002Y-54371684D01*
X103833002Y-54688064D01*
X103776678Y-54744290D01*
X103712000Y-54900051D01*
X103712000Y-54835000D01*
X103679378Y-54661631D01*
X103576917Y-54502402D01*
X103420580Y-54395581D01*
X103235000Y-54358000D01*
X95835000Y-54358000D01*
X95659517Y-54391452D01*
X95500777Y-54494670D01*
X95394702Y-54651515D01*
X95358005Y-54837271D01*
X95371801Y-57734484D01*
X94929694Y-57573410D01*
X94329542Y-57599421D01*
X93895884Y-57779047D01*
X93812545Y-58032940D01*
X94695000Y-58915395D01*
X94709143Y-58901253D01*
X94888748Y-59080858D01*
X94874605Y-59095000D01*
X94888748Y-59109143D01*
X94709143Y-59288748D01*
X94695000Y-59274605D01*
X93812545Y-60157060D01*
X93895884Y-60410953D01*
X94460306Y-60616590D01*
X95060458Y-60590579D01*
X95384762Y-60456249D01*
X95408150Y-65367727D01*
X94929694Y-65193410D01*
X94329542Y-65219421D01*
X93895884Y-65399047D01*
X93812545Y-65652940D01*
X94695000Y-66535395D01*
X94709143Y-66521253D01*
X94888748Y-66700858D01*
X94874605Y-66715000D01*
X94888748Y-66729143D01*
X94709143Y-66908748D01*
X94695000Y-66894605D01*
X93812545Y-67777060D01*
X93895884Y-68030953D01*
X94460306Y-68236590D01*
X95060458Y-68210579D01*
X95420976Y-68061248D01*
X95444499Y-73000970D01*
X94929694Y-72813410D01*
X94329542Y-72839421D01*
X93895884Y-73019047D01*
X93812545Y-73272940D01*
X94695000Y-74155395D01*
X94709143Y-74141253D01*
X94888748Y-74320858D01*
X94874605Y-74335000D01*
X94888748Y-74349143D01*
X94709143Y-74528748D01*
X94695000Y-74514605D01*
X94680858Y-74528748D01*
X94501253Y-74349143D01*
X94515395Y-74335000D01*
X93632940Y-73452545D01*
X93379047Y-73535884D01*
X93354976Y-73601952D01*
X93341838Y-73570154D01*
X92961846Y-73189499D01*
X92465109Y-72983235D01*
X91927250Y-72982766D01*
X91430154Y-73188162D01*
X91049499Y-73568154D01*
X90944998Y-73819820D01*
X90841838Y-73570154D01*
X90461846Y-73189499D01*
X89965109Y-72983235D01*
X89427250Y-72982766D01*
X88930154Y-73188162D01*
X88549499Y-73568154D01*
X88343235Y-74064891D01*
X88342766Y-74602750D01*
X88548162Y-75099846D01*
X88805866Y-75358000D01*
X83287000Y-75358000D01*
X83287000Y-68081936D01*
X83343324Y-68025710D01*
X83461865Y-67740233D01*
X83462134Y-67431123D01*
X83344092Y-67145440D01*
X83181687Y-66982750D01*
X88342766Y-66982750D01*
X88548162Y-67479846D01*
X88928154Y-67860501D01*
X89424891Y-68066765D01*
X89962750Y-68067234D01*
X90459846Y-67861838D01*
X90840501Y-67481846D01*
X90945002Y-67230180D01*
X91048162Y-67479846D01*
X91428154Y-67860501D01*
X91924891Y-68066765D01*
X92462750Y-68067234D01*
X92959846Y-67861838D01*
X93340501Y-67481846D01*
X93353106Y-67451489D01*
X93379047Y-67514116D01*
X93632940Y-67597455D01*
X94515395Y-66715000D01*
X93632940Y-65832545D01*
X93379047Y-65915884D01*
X93354976Y-65981952D01*
X93341838Y-65950154D01*
X92961846Y-65569499D01*
X92465109Y-65363235D01*
X91927250Y-65362766D01*
X91430154Y-65568162D01*
X91049499Y-65948154D01*
X90944998Y-66199820D01*
X90841838Y-65950154D01*
X90461846Y-65569499D01*
X89965109Y-65363235D01*
X89427250Y-65362766D01*
X88930154Y-65568162D01*
X88549499Y-65948154D01*
X88343235Y-66444891D01*
X88342766Y-66982750D01*
X83181687Y-66982750D01*
X83125710Y-66926676D01*
X82840233Y-66808135D01*
X82531123Y-66807866D01*
X82245440Y-66925908D01*
X82026676Y-67144290D01*
X81908135Y-67429767D01*
X81907866Y-67738877D01*
X82025908Y-68024560D01*
X82083000Y-68081752D01*
X82083000Y-75358000D01*
X78614686Y-75358000D01*
X76900843Y-73644157D01*
X76790090Y-73570154D01*
X76583882Y-73432370D01*
X76210000Y-73358000D01*
X75677151Y-73358000D01*
X75663083Y-73283235D01*
X75558615Y-73120887D01*
X75399215Y-73011973D01*
X75312000Y-72994312D01*
X75312000Y-68057151D01*
X75386765Y-68043083D01*
X75549113Y-67938615D01*
X75658027Y-67779215D01*
X75696344Y-67590000D01*
X75696344Y-65840000D01*
X75663083Y-65663235D01*
X75558615Y-65500887D01*
X75399215Y-65391973D01*
X75210000Y-65353656D01*
X75192000Y-65353656D01*
X75192000Y-60437151D01*
X75266765Y-60423083D01*
X75429113Y-60318615D01*
X75538027Y-60159215D01*
X75576344Y-59970000D01*
X75576344Y-59362750D01*
X88342766Y-59362750D01*
X88548162Y-59859846D01*
X88928154Y-60240501D01*
X89424891Y-60446765D01*
X89962750Y-60447234D01*
X90459846Y-60241838D01*
X90840501Y-59861846D01*
X90945002Y-59610180D01*
X91048162Y-59859846D01*
X91428154Y-60240501D01*
X91924891Y-60446765D01*
X92462750Y-60447234D01*
X92959846Y-60241838D01*
X93340501Y-59861846D01*
X93353106Y-59831489D01*
X93379047Y-59894116D01*
X93632940Y-59977455D01*
X94515395Y-59095000D01*
X93632940Y-58212545D01*
X93379047Y-58295884D01*
X93354976Y-58361952D01*
X93341838Y-58330154D01*
X92961846Y-57949499D01*
X92465109Y-57743235D01*
X91927250Y-57742766D01*
X91430154Y-57948162D01*
X91049499Y-58328154D01*
X90944998Y-58579820D01*
X90841838Y-58330154D01*
X90461846Y-57949499D01*
X89965109Y-57743235D01*
X89427250Y-57742766D01*
X88930154Y-57948162D01*
X88549499Y-58328154D01*
X88343235Y-58824891D01*
X88342766Y-59362750D01*
X75576344Y-59362750D01*
X75576344Y-58220000D01*
X75543083Y-58043235D01*
X75438615Y-57880887D01*
X75279215Y-57771973D01*
X75090000Y-57733656D01*
X73340000Y-57733656D01*
X73163235Y-57766917D01*
X73000887Y-57871385D01*
X72891973Y-58030785D01*
X72853656Y-58220000D01*
X72853656Y-58237687D01*
X72777060Y-58212545D01*
X71894605Y-59095000D01*
X72777060Y-59977455D01*
X72853656Y-59952313D01*
X72853656Y-59970000D01*
X72886917Y-60146765D01*
X72991385Y-60309113D01*
X73150785Y-60418027D01*
X73238000Y-60435688D01*
X73238000Y-65416025D01*
X73120887Y-65491385D01*
X73011973Y-65650785D01*
X72973656Y-65840000D01*
X72973656Y-65857687D01*
X72897060Y-65832545D01*
X72014605Y-66715000D01*
X72897060Y-67597455D01*
X72973656Y-67572313D01*
X72973656Y-67590000D01*
X73006917Y-67766765D01*
X73111385Y-67929113D01*
X73270785Y-68038027D01*
X73358000Y-68055688D01*
X73358000Y-72992849D01*
X73283235Y-73006917D01*
X73120887Y-73111385D01*
X73011973Y-73270785D01*
X72973656Y-73460000D01*
X72973656Y-73477687D01*
X72897060Y-73452545D01*
X72014605Y-74335000D01*
X72028748Y-74349143D01*
X71849143Y-74528748D01*
X71835000Y-74514605D01*
X71820858Y-74528748D01*
X71641253Y-74349143D01*
X71655395Y-74335000D01*
X70772940Y-73452545D01*
X70519047Y-73535884D01*
X70494976Y-73601952D01*
X70481838Y-73570154D01*
X70185142Y-73272940D01*
X70952545Y-73272940D01*
X71835000Y-74155395D01*
X72717455Y-73272940D01*
X72634116Y-73019047D01*
X72069694Y-72813410D01*
X71469542Y-72839421D01*
X71035884Y-73019047D01*
X70952545Y-73272940D01*
X70185142Y-73272940D01*
X70101846Y-73189499D01*
X69605109Y-72983235D01*
X69067250Y-72982766D01*
X68570154Y-73188162D01*
X68189499Y-73568154D01*
X68084998Y-73819820D01*
X67981838Y-73570154D01*
X67601846Y-73189499D01*
X67105109Y-72983235D01*
X66567250Y-72982766D01*
X66070154Y-73188162D01*
X65723848Y-73533865D01*
X65711648Y-73216667D01*
X65676941Y-73055508D01*
X65572290Y-72897710D01*
X63172290Y-70497710D01*
X63020580Y-70395581D01*
X62835000Y-70358000D01*
X61162000Y-70358000D01*
X61162000Y-66982750D01*
X65482766Y-66982750D01*
X65688162Y-67479846D01*
X66068154Y-67860501D01*
X66564891Y-68066765D01*
X67102750Y-68067234D01*
X67599846Y-67861838D01*
X67980501Y-67481846D01*
X68085002Y-67230180D01*
X68188162Y-67479846D01*
X68568154Y-67860501D01*
X69064891Y-68066765D01*
X69602750Y-68067234D01*
X70099846Y-67861838D01*
X70184771Y-67777060D01*
X70952545Y-67777060D01*
X71035884Y-68030953D01*
X71600306Y-68236590D01*
X72200458Y-68210579D01*
X72634116Y-68030953D01*
X72717455Y-67777060D01*
X71835000Y-66894605D01*
X70952545Y-67777060D01*
X70184771Y-67777060D01*
X70480501Y-67481846D01*
X70493106Y-67451489D01*
X70519047Y-67514116D01*
X70772940Y-67597455D01*
X71655395Y-66715000D01*
X70772940Y-65832545D01*
X70519047Y-65915884D01*
X70494976Y-65981952D01*
X70481838Y-65950154D01*
X70185142Y-65652940D01*
X70952545Y-65652940D01*
X71835000Y-66535395D01*
X72717455Y-65652940D01*
X72634116Y-65399047D01*
X72069694Y-65193410D01*
X71469542Y-65219421D01*
X71035884Y-65399047D01*
X70952545Y-65652940D01*
X70185142Y-65652940D01*
X70101846Y-65569499D01*
X69605109Y-65363235D01*
X69067250Y-65362766D01*
X68570154Y-65568162D01*
X68189499Y-65948154D01*
X68084998Y-66199820D01*
X67981838Y-65950154D01*
X67601846Y-65569499D01*
X67105109Y-65363235D01*
X66567250Y-65362766D01*
X66070154Y-65568162D01*
X65689499Y-65948154D01*
X65483235Y-66444891D01*
X65482766Y-66982750D01*
X61162000Y-66982750D01*
X61162000Y-59362750D01*
X65362766Y-59362750D01*
X65568162Y-59859846D01*
X65948154Y-60240501D01*
X66444891Y-60446765D01*
X66982750Y-60447234D01*
X67479846Y-60241838D01*
X67860501Y-59861846D01*
X67965002Y-59610180D01*
X68068162Y-59859846D01*
X68448154Y-60240501D01*
X68944891Y-60446765D01*
X69482750Y-60447234D01*
X69979846Y-60241838D01*
X70064771Y-60157060D01*
X70832545Y-60157060D01*
X70915884Y-60410953D01*
X71480306Y-60616590D01*
X72080458Y-60590579D01*
X72514116Y-60410953D01*
X72597455Y-60157060D01*
X71715000Y-59274605D01*
X70832545Y-60157060D01*
X70064771Y-60157060D01*
X70360501Y-59861846D01*
X70373106Y-59831489D01*
X70399047Y-59894116D01*
X70652940Y-59977455D01*
X71535395Y-59095000D01*
X70652940Y-58212545D01*
X70399047Y-58295884D01*
X70374976Y-58361952D01*
X70361838Y-58330154D01*
X70065142Y-58032940D01*
X70832545Y-58032940D01*
X71715000Y-58915395D01*
X72597455Y-58032940D01*
X72514116Y-57779047D01*
X71949694Y-57573410D01*
X71349542Y-57599421D01*
X70915884Y-57779047D01*
X70832545Y-58032940D01*
X70065142Y-58032940D01*
X69981846Y-57949499D01*
X69485109Y-57743235D01*
X68947250Y-57742766D01*
X68450154Y-57948162D01*
X68069499Y-58328154D01*
X67964998Y-58579820D01*
X67861838Y-58330154D01*
X67481846Y-57949499D01*
X66985109Y-57743235D01*
X66447250Y-57742766D01*
X65950154Y-57948162D01*
X65569499Y-58328154D01*
X65363235Y-58824891D01*
X65362766Y-59362750D01*
X61162000Y-59362750D01*
X61162000Y-55618944D01*
X62752600Y-55618944D01*
X62910594Y-55589215D01*
X63057400Y-55618944D01*
X65292600Y-55618944D01*
X65450594Y-55589215D01*
X65597400Y-55618944D01*
X67832600Y-55618944D01*
X67990594Y-55589215D01*
X68137400Y-55618944D01*
X70372600Y-55618944D01*
X70530594Y-55589215D01*
X70677400Y-55618944D01*
X72912600Y-55618944D01*
X73089365Y-55585683D01*
X73251713Y-55481215D01*
X73360627Y-55321815D01*
X73398944Y-55132600D01*
X73398944Y-52897400D01*
X73369215Y-52739406D01*
X73398944Y-52592600D01*
X73398944Y-50464282D01*
X73450927Y-50412299D01*
X73547600Y-50178910D01*
X73547600Y-49220750D01*
X73388850Y-49062000D01*
X71922000Y-49062000D01*
X71922000Y-49082000D01*
X71668000Y-49082000D01*
X71668000Y-49062000D01*
X71648000Y-49062000D01*
X71648000Y-48808000D01*
X71668000Y-48808000D01*
X71668000Y-46522000D01*
X71922000Y-46522000D01*
X71922000Y-48808000D01*
X73388850Y-48808000D01*
X73547600Y-48649250D01*
X73547600Y-47691090D01*
X73536793Y-47665000D01*
X73547600Y-47638910D01*
X73547600Y-46680750D01*
X73405727Y-46538877D01*
X92707866Y-46538877D01*
X92825908Y-46824560D01*
X93044290Y-47043324D01*
X93329767Y-47161865D01*
X93460623Y-47161979D01*
X93573656Y-47275012D01*
X93573656Y-48285000D01*
X93606917Y-48461765D01*
X93711385Y-48624113D01*
X93870785Y-48733027D01*
X93980595Y-48755264D01*
X93908135Y-48929767D01*
X93907866Y-49238877D01*
X94025908Y-49524560D01*
X94244290Y-49743324D01*
X94529767Y-49861865D01*
X94838877Y-49862134D01*
X95124560Y-49744092D01*
X95343324Y-49525710D01*
X95461865Y-49240233D01*
X95462134Y-48931123D01*
X95389902Y-48756309D01*
X95486765Y-48738083D01*
X95513701Y-48720750D01*
X96200000Y-48720750D01*
X96200000Y-49186310D01*
X96296673Y-49419699D01*
X96475302Y-49598327D01*
X96708691Y-49695000D01*
X97299250Y-49695000D01*
X97458000Y-49536250D01*
X97458000Y-48562000D01*
X96358750Y-48562000D01*
X96200000Y-48720750D01*
X95513701Y-48720750D01*
X95649113Y-48633615D01*
X95758027Y-48474215D01*
X95796344Y-48285000D01*
X95796344Y-47683690D01*
X96200000Y-47683690D01*
X96200000Y-48149250D01*
X96358750Y-48308000D01*
X97458000Y-48308000D01*
X97458000Y-47333750D01*
X97712000Y-47333750D01*
X97712000Y-48308000D01*
X97732000Y-48308000D01*
X97732000Y-48562000D01*
X97712000Y-48562000D01*
X97712000Y-49536250D01*
X97870750Y-49695000D01*
X98461309Y-49695000D01*
X98694698Y-49598327D01*
X98873327Y-49419699D01*
X98922790Y-49300284D01*
X98986385Y-49399113D01*
X99045590Y-49439567D01*
X99008135Y-49529769D01*
X99007866Y-49838879D01*
X99125908Y-50124562D01*
X99344290Y-50343326D01*
X99629767Y-50461867D01*
X99938877Y-50462136D01*
X100224560Y-50344094D01*
X100443324Y-50125712D01*
X100561865Y-49840235D01*
X100561958Y-49733935D01*
X100641175Y-49615377D01*
X100654907Y-49546344D01*
X100835000Y-49546344D01*
X101011765Y-49513083D01*
X101174113Y-49408615D01*
X101283027Y-49249215D01*
X101309142Y-49120253D01*
X101529767Y-49211865D01*
X101838877Y-49212134D01*
X102124560Y-49094092D01*
X102343324Y-48875710D01*
X102461865Y-48590233D01*
X102462134Y-48281123D01*
X102344092Y-47995440D01*
X102125710Y-47776676D01*
X101840233Y-47658135D01*
X101531123Y-47657866D01*
X101309916Y-47749267D01*
X101288083Y-47633235D01*
X101183615Y-47470887D01*
X101024215Y-47361973D01*
X100835000Y-47323656D01*
X100764939Y-47323656D01*
X100786907Y-47270750D01*
X105225000Y-47270750D01*
X105225000Y-47861309D01*
X105321673Y-48094698D01*
X105500301Y-48273327D01*
X105733690Y-48370000D01*
X106199250Y-48370000D01*
X106358000Y-48211250D01*
X106358000Y-47112000D01*
X106612000Y-47112000D01*
X106612000Y-48211250D01*
X106770750Y-48370000D01*
X107236310Y-48370000D01*
X107469699Y-48273327D01*
X107648327Y-48094698D01*
X107745000Y-47861309D01*
X107745000Y-47270750D01*
X107586250Y-47112000D01*
X106612000Y-47112000D01*
X106358000Y-47112000D01*
X105383750Y-47112000D01*
X105225000Y-47270750D01*
X100786907Y-47270750D01*
X100861865Y-47090233D01*
X100862134Y-46781123D01*
X100744092Y-46495440D01*
X100525710Y-46276676D01*
X100240233Y-46158135D01*
X99931123Y-46157866D01*
X99645440Y-46275908D01*
X99426676Y-46494290D01*
X99308135Y-46779767D01*
X99307866Y-47088877D01*
X99404875Y-47323656D01*
X99335000Y-47323656D01*
X99158235Y-47356917D01*
X98995887Y-47461385D01*
X98922442Y-47568875D01*
X98873327Y-47450301D01*
X98694698Y-47271673D01*
X98461309Y-47175000D01*
X97870750Y-47175000D01*
X97712000Y-47333750D01*
X97458000Y-47333750D01*
X97299250Y-47175000D01*
X96708691Y-47175000D01*
X96475302Y-47271673D01*
X96296673Y-47450301D01*
X96200000Y-47683690D01*
X95796344Y-47683690D01*
X95796344Y-47675012D01*
X96309292Y-47162065D01*
X96388877Y-47162134D01*
X96674560Y-47044092D01*
X96893324Y-46825710D01*
X97011865Y-46540233D01*
X97012134Y-46231123D01*
X96894092Y-45945440D01*
X96675710Y-45726676D01*
X96390233Y-45608135D01*
X96081123Y-45607866D01*
X95945000Y-45664111D01*
X95945000Y-45320750D01*
X95786250Y-45162000D01*
X94812000Y-45162000D01*
X94812000Y-45182000D01*
X94558000Y-45182000D01*
X94558000Y-45162000D01*
X93583750Y-45162000D01*
X93425000Y-45320750D01*
X93425000Y-45607948D01*
X93331123Y-45607866D01*
X93045440Y-45725908D01*
X92826676Y-45944290D01*
X92708135Y-46229767D01*
X92707866Y-46538877D01*
X73405727Y-46538877D01*
X73388850Y-46522000D01*
X71922000Y-46522000D01*
X71668000Y-46522000D01*
X71648000Y-46522000D01*
X71648000Y-46268000D01*
X71668000Y-46268000D01*
X71668000Y-44801150D01*
X71922000Y-44801150D01*
X71922000Y-46268000D01*
X73388850Y-46268000D01*
X73547600Y-46109250D01*
X73547600Y-45151090D01*
X73450927Y-44917701D01*
X73272298Y-44739073D01*
X73038909Y-44642400D01*
X72080750Y-44642400D01*
X71922000Y-44801150D01*
X71668000Y-44801150D01*
X71509250Y-44642400D01*
X70858944Y-44642400D01*
X70858944Y-44158691D01*
X93425000Y-44158691D01*
X93425000Y-44749250D01*
X93583750Y-44908000D01*
X94558000Y-44908000D01*
X94558000Y-43808750D01*
X94812000Y-43808750D01*
X94812000Y-44908000D01*
X95786250Y-44908000D01*
X95945000Y-44749250D01*
X95945000Y-44638877D01*
X104407866Y-44638877D01*
X104525908Y-44924560D01*
X104744290Y-45143324D01*
X105029767Y-45261865D01*
X105338877Y-45262134D01*
X105375884Y-45246843D01*
X105406917Y-45411765D01*
X105511385Y-45574113D01*
X105618875Y-45647558D01*
X105500301Y-45696673D01*
X105321673Y-45875302D01*
X105225000Y-46108691D01*
X105225000Y-46699250D01*
X105383750Y-46858000D01*
X106358000Y-46858000D01*
X106358000Y-46838000D01*
X106612000Y-46838000D01*
X106612000Y-46858000D01*
X107586250Y-46858000D01*
X107745000Y-46699250D01*
X107745000Y-46108691D01*
X107648327Y-45875302D01*
X107469699Y-45696673D01*
X107350284Y-45647210D01*
X107449113Y-45583615D01*
X107558027Y-45424215D01*
X107596344Y-45235000D01*
X107596344Y-43735000D01*
X107563083Y-43558235D01*
X107458615Y-43395887D01*
X107299215Y-43286973D01*
X107110000Y-43248656D01*
X105860000Y-43248656D01*
X105683235Y-43281917D01*
X105520887Y-43386385D01*
X105411973Y-43545785D01*
X105376082Y-43723021D01*
X105340233Y-43708135D01*
X105031123Y-43707866D01*
X104745440Y-43825908D01*
X104526676Y-44044290D01*
X104408135Y-44329767D01*
X104407866Y-44638877D01*
X95945000Y-44638877D01*
X95945000Y-44158691D01*
X95848327Y-43925302D01*
X95669699Y-43746673D01*
X95436310Y-43650000D01*
X94970750Y-43650000D01*
X94812000Y-43808750D01*
X94558000Y-43808750D01*
X94399250Y-43650000D01*
X93933690Y-43650000D01*
X93700301Y-43746673D01*
X93521673Y-43925302D01*
X93425000Y-44158691D01*
X70858944Y-44158691D01*
X70858944Y-42737400D01*
X70829215Y-42579406D01*
X70858944Y-42432600D01*
X70858944Y-40197400D01*
X70829215Y-40039406D01*
X70858944Y-39892600D01*
X70858944Y-37657400D01*
X70829215Y-37499406D01*
X70858944Y-37352600D01*
X70858944Y-35117400D01*
X70825683Y-34940635D01*
X70721215Y-34778287D01*
X70561815Y-34669373D01*
X70372600Y-34631056D01*
X68137400Y-34631056D01*
X67960635Y-34664317D01*
X67798287Y-34768785D01*
X67689373Y-34928185D01*
X67651056Y-35117400D01*
X67651056Y-37352600D01*
X67680785Y-37510594D01*
X67651056Y-37657400D01*
X67651056Y-39711056D01*
X65597400Y-39711056D01*
X65439406Y-39740785D01*
X65292600Y-39711056D01*
X63057400Y-39711056D01*
X62899406Y-39740785D01*
X62752600Y-39711056D01*
X60517400Y-39711056D01*
X60359406Y-39740785D01*
X60212600Y-39711056D01*
X57977400Y-39711056D01*
X57800635Y-39744317D01*
X57687000Y-39817439D01*
X57687000Y-34165000D01*
X58443656Y-34165000D01*
X58443656Y-35765000D01*
X58476917Y-35941765D01*
X58581385Y-36104113D01*
X58740785Y-36213027D01*
X58930000Y-36251344D01*
X60530000Y-36251344D01*
X60706765Y-36218083D01*
X60869113Y-36113615D01*
X60965365Y-35972745D01*
X62401861Y-35972745D01*
X62475995Y-36218864D01*
X63013223Y-36411965D01*
X63583454Y-36384778D01*
X63984005Y-36218864D01*
X64058139Y-35972745D01*
X63230000Y-35144605D01*
X62401861Y-35972745D01*
X60965365Y-35972745D01*
X60978027Y-35954215D01*
X61016344Y-35765000D01*
X61016344Y-34748223D01*
X61783035Y-34748223D01*
X61810222Y-35318454D01*
X61976136Y-35719005D01*
X62222255Y-35793139D01*
X63050395Y-34965000D01*
X63409605Y-34965000D01*
X64237745Y-35793139D01*
X64483864Y-35719005D01*
X64676965Y-35181777D01*
X64649778Y-34611546D01*
X64483864Y-34210995D01*
X64237745Y-34136861D01*
X63409605Y-34965000D01*
X63050395Y-34965000D01*
X62222255Y-34136861D01*
X61976136Y-34210995D01*
X61783035Y-34748223D01*
X61016344Y-34748223D01*
X61016344Y-34165000D01*
X60983083Y-33988235D01*
X60963148Y-33957255D01*
X62401861Y-33957255D01*
X63230000Y-34785395D01*
X64058139Y-33957255D01*
X63984005Y-33711136D01*
X63446777Y-33518035D01*
X62876546Y-33545222D01*
X62475995Y-33711136D01*
X62401861Y-33957255D01*
X60963148Y-33957255D01*
X60878615Y-33825887D01*
X60719215Y-33716973D01*
X60530000Y-33678656D01*
X58930000Y-33678656D01*
X58753235Y-33711917D01*
X58590887Y-33816385D01*
X58481973Y-33975785D01*
X58443656Y-34165000D01*
X57687000Y-34165000D01*
X57687000Y-28703367D01*
X58662866Y-29680938D01*
X59940348Y-30211395D01*
X61323584Y-30212602D01*
X62601989Y-29684376D01*
X63580938Y-28707134D01*
X64111395Y-27429652D01*
X64112602Y-26046416D01*
X64098382Y-26012000D01*
X64314479Y-26012000D01*
X64596669Y-26434328D01*
X64941192Y-26664530D01*
X64927534Y-26673656D01*
X64685000Y-26673656D01*
X64508235Y-26706917D01*
X64345887Y-26811385D01*
X64236973Y-26970785D01*
X64198656Y-27160000D01*
X64198656Y-27402534D01*
X64170430Y-27444777D01*
X64058000Y-28010000D01*
X64058000Y-30385000D01*
X64170430Y-30950223D01*
X64490603Y-31429397D01*
X64969777Y-31749570D01*
X65535000Y-31862000D01*
X66208000Y-31862000D01*
X66208000Y-32085000D01*
X66240622Y-32258369D01*
X66343083Y-32417598D01*
X66499420Y-32524419D01*
X66685000Y-32562000D01*
X78860628Y-32562000D01*
X78908007Y-41137635D01*
X78956456Y-41344473D01*
X79071716Y-41494697D01*
X80621716Y-42844697D01*
X80822020Y-42948427D01*
X81011220Y-42955871D01*
X81188410Y-42889119D01*
X81325670Y-42758690D01*
X82390397Y-41238878D01*
X87157865Y-41238878D01*
X87275907Y-41524561D01*
X87494289Y-41743325D01*
X87779766Y-41861866D01*
X88088876Y-41862135D01*
X88374559Y-41744093D01*
X88435001Y-41683756D01*
X88594290Y-41843324D01*
X88879767Y-41961865D01*
X89188877Y-41962134D01*
X89474560Y-41844092D01*
X89693324Y-41625710D01*
X89811865Y-41340233D01*
X89812134Y-41031123D01*
X89694092Y-40745440D01*
X89637000Y-40688248D01*
X89637000Y-38981936D01*
X89662350Y-38956630D01*
X89662253Y-39068162D01*
X89780295Y-39353845D01*
X89998677Y-39572609D01*
X90284154Y-39691150D01*
X90439929Y-39691286D01*
X93457935Y-42709292D01*
X93457866Y-42788877D01*
X93575908Y-43074560D01*
X93794290Y-43293324D01*
X94079767Y-43411865D01*
X94388877Y-43412134D01*
X94674560Y-43294092D01*
X94893324Y-43075710D01*
X95011865Y-42790233D01*
X95012134Y-42481123D01*
X94894092Y-42195440D01*
X94675710Y-41976676D01*
X94390233Y-41858135D01*
X94309422Y-41858065D01*
X94036357Y-41585000D01*
X98958000Y-41585000D01*
X99070430Y-42150223D01*
X99141624Y-42256772D01*
X99196550Y-42532907D01*
X99733497Y-43336503D01*
X100537093Y-43873450D01*
X100600129Y-43885989D01*
X100919777Y-44099570D01*
X101485000Y-44212000D01*
X102050223Y-44099570D01*
X102369871Y-43885989D01*
X102432907Y-43873450D01*
X103236503Y-43336503D01*
X105185825Y-41387182D01*
X105336503Y-41286502D01*
X105752180Y-40664399D01*
X105879396Y-40579396D01*
X106199569Y-40100223D01*
X106312000Y-39535000D01*
X106199569Y-38969776D01*
X106137361Y-38876675D01*
X105879396Y-38490602D01*
X105871012Y-38485000D01*
X105752180Y-38405599D01*
X105336503Y-37783496D01*
X104532907Y-37246549D01*
X104292125Y-37198655D01*
X104100223Y-37070430D01*
X103535000Y-36958000D01*
X102969777Y-37070430D01*
X102756680Y-37212816D01*
X102587094Y-37246549D01*
X101783497Y-37783496D01*
X99733497Y-39833497D01*
X99196550Y-40637093D01*
X99141624Y-40913228D01*
X99070430Y-41019777D01*
X98958000Y-41585000D01*
X94036357Y-41585000D01*
X91216517Y-38765161D01*
X91216521Y-38760408D01*
X91098479Y-38474725D01*
X90880097Y-38255961D01*
X90594620Y-38137420D01*
X90285510Y-38137151D01*
X89999827Y-38255193D01*
X89812037Y-38442655D01*
X89812134Y-38331123D01*
X89694092Y-38045440D01*
X89475710Y-37826676D01*
X89190233Y-37708135D01*
X88881123Y-37707866D01*
X88616266Y-37817303D01*
X88575710Y-37776676D01*
X88290233Y-37658135D01*
X87981123Y-37657866D01*
X87695440Y-37775908D01*
X87476676Y-37994290D01*
X87358135Y-38279767D01*
X87357866Y-38588877D01*
X87475908Y-38874560D01*
X87533000Y-38931752D01*
X87533000Y-40410389D01*
X87495439Y-40425909D01*
X87276675Y-40644291D01*
X87158134Y-40929768D01*
X87157865Y-41238878D01*
X82390397Y-41238878D01*
X85402827Y-36938877D01*
X93857866Y-36938877D01*
X93975908Y-37224560D01*
X94194290Y-37443324D01*
X94479767Y-37561865D01*
X94788877Y-37562134D01*
X95018813Y-37467126D01*
X95031917Y-37536765D01*
X95136385Y-37699113D01*
X95295785Y-37808027D01*
X95485000Y-37846344D01*
X95572014Y-37846344D01*
X95558135Y-37879767D01*
X95557866Y-38188877D01*
X95675908Y-38474560D01*
X95894290Y-38693324D01*
X96179767Y-38811865D01*
X96488877Y-38812134D01*
X96774560Y-38694092D01*
X96993324Y-38475710D01*
X97111865Y-38190233D01*
X97112134Y-37881123D01*
X97089629Y-37826657D01*
X97161765Y-37813083D01*
X97324113Y-37708615D01*
X97397558Y-37601125D01*
X97446673Y-37719699D01*
X97625302Y-37898327D01*
X97858691Y-37995000D01*
X98449250Y-37995000D01*
X98608000Y-37836250D01*
X98608000Y-36862000D01*
X98862000Y-36862000D01*
X98862000Y-37836250D01*
X99020750Y-37995000D01*
X99611309Y-37995000D01*
X99844698Y-37898327D01*
X100023327Y-37719699D01*
X100120000Y-37486310D01*
X100120000Y-37020750D01*
X99961250Y-36862000D01*
X98862000Y-36862000D01*
X98608000Y-36862000D01*
X98588000Y-36862000D01*
X98588000Y-36608000D01*
X98608000Y-36608000D01*
X98608000Y-35633750D01*
X98862000Y-35633750D01*
X98862000Y-36608000D01*
X99961250Y-36608000D01*
X100120000Y-36449250D01*
X100120000Y-35983690D01*
X100023327Y-35750301D01*
X99844698Y-35571673D01*
X99611309Y-35475000D01*
X99020750Y-35475000D01*
X98862000Y-35633750D01*
X98608000Y-35633750D01*
X98449250Y-35475000D01*
X97858691Y-35475000D01*
X97625302Y-35571673D01*
X97446673Y-35750301D01*
X97397210Y-35869716D01*
X97333615Y-35770887D01*
X97174215Y-35661973D01*
X96985000Y-35623656D01*
X95485000Y-35623656D01*
X95308235Y-35656917D01*
X95145887Y-35761385D01*
X95036973Y-35920785D01*
X95001518Y-36095869D01*
X94790233Y-36008135D01*
X94481123Y-36007866D01*
X94195440Y-36125908D01*
X93976676Y-36344290D01*
X93858135Y-36629767D01*
X93857866Y-36938877D01*
X85402827Y-36938877D01*
X85596807Y-36661987D01*
X86899394Y-35359399D01*
X86899397Y-35359397D01*
X87219570Y-34880223D01*
X87332000Y-34315000D01*
X87332000Y-34185138D01*
X87525670Y-33908690D01*
X87574419Y-33820580D01*
X87612000Y-33635000D01*
X87612000Y-29535000D01*
X87579378Y-29361631D01*
X87476917Y-29202402D01*
X87332000Y-29103384D01*
X87332000Y-28787747D01*
X87456669Y-28974328D01*
X87887179Y-29261985D01*
X88395000Y-29362997D01*
X88902821Y-29261985D01*
X89333331Y-28974328D01*
X89620988Y-28543818D01*
X89665000Y-28322555D01*
X89709012Y-28543818D01*
X89996669Y-28974328D01*
X90427179Y-29261985D01*
X90935000Y-29362997D01*
X91442821Y-29261985D01*
X91873331Y-28974328D01*
X92160988Y-28543818D01*
X92205000Y-28322555D01*
X92249012Y-28543818D01*
X92536669Y-28974328D01*
X92967179Y-29261985D01*
X93475000Y-29362997D01*
X93982821Y-29261985D01*
X94413331Y-28974328D01*
X94674923Y-28582827D01*
X94819817Y-28891358D01*
X95248076Y-29281645D01*
X95658110Y-29451476D01*
X95888000Y-29330155D01*
X95888000Y-28137000D01*
X95868000Y-28137000D01*
X95868000Y-27883000D01*
X95888000Y-27883000D01*
X95888000Y-27863000D01*
X96142000Y-27863000D01*
X96142000Y-27883000D01*
X96162000Y-27883000D01*
X96162000Y-28137000D01*
X96142000Y-28137000D01*
X96142000Y-29330155D01*
X96371890Y-29451476D01*
X96781924Y-29281645D01*
X97210183Y-28891358D01*
X97355077Y-28582827D01*
X97616669Y-28974328D01*
X98047179Y-29261985D01*
X98555000Y-29362997D01*
X99062821Y-29261985D01*
X99493331Y-28974328D01*
X99780988Y-28543818D01*
X99825000Y-28322555D01*
X99869012Y-28543818D01*
X100156669Y-28974328D01*
X100587179Y-29261985D01*
X101095000Y-29362997D01*
X101602821Y-29261985D01*
X102033331Y-28974328D01*
X102320988Y-28543818D01*
X102365000Y-28322555D01*
X102409012Y-28543818D01*
X102696669Y-28974328D01*
X103127179Y-29261985D01*
X103635000Y-29362997D01*
X104142821Y-29261985D01*
X104573331Y-28974328D01*
X104860988Y-28543818D01*
X104905000Y-28322555D01*
X104949012Y-28543818D01*
X105236669Y-28974328D01*
X105667179Y-29261985D01*
X106175000Y-29362997D01*
X106682821Y-29261985D01*
X107113331Y-28974328D01*
X107400988Y-28543818D01*
X107445000Y-28322555D01*
X107489012Y-28543818D01*
X107776669Y-28974328D01*
X108207179Y-29261985D01*
X108715000Y-29362997D01*
X109222821Y-29261985D01*
X109653331Y-28974328D01*
X109940988Y-28543818D01*
X109985000Y-28322555D01*
X110029012Y-28543818D01*
X110316669Y-28974328D01*
X110747179Y-29261985D01*
X111255000Y-29362997D01*
X111762821Y-29261985D01*
X112193331Y-28974328D01*
X112454923Y-28582827D01*
X112599817Y-28891358D01*
X113028076Y-29281645D01*
X113438110Y-29451476D01*
X113668000Y-29330155D01*
X113668000Y-28137000D01*
X113922000Y-28137000D01*
X113922000Y-29330155D01*
X114151890Y-29451476D01*
X114561924Y-29281645D01*
X114990183Y-28891358D01*
X115236486Y-28366892D01*
X115115819Y-28137000D01*
X113922000Y-28137000D01*
X113668000Y-28137000D01*
X113648000Y-28137000D01*
X113648000Y-27883000D01*
X113668000Y-27883000D01*
X113668000Y-27863000D01*
X113922000Y-27863000D01*
X113922000Y-27883000D01*
X115115819Y-27883000D01*
X115236486Y-27653108D01*
X115128696Y-27423584D01*
X115157398Y-27423584D01*
X115685624Y-28701989D01*
X116662866Y-29680938D01*
X117940348Y-30211395D01*
X119323584Y-30212602D01*
X120601989Y-29684376D01*
X121580938Y-28707134D01*
X122111395Y-27429652D01*
X122112602Y-26046416D01*
X121584376Y-24768011D01*
X120607134Y-23789062D01*
X119329652Y-23258605D01*
X117946416Y-23257398D01*
X116668011Y-23785624D01*
X115689062Y-24762866D01*
X115158605Y-26040348D01*
X115157398Y-27423584D01*
X115128696Y-27423584D01*
X114990183Y-27128642D01*
X114561924Y-26738355D01*
X114386847Y-26665840D01*
X114733331Y-26434328D01*
X115020988Y-26003818D01*
X115122000Y-25495997D01*
X115122000Y-25444003D01*
X115020988Y-24936182D01*
X114733331Y-24505672D01*
X114302821Y-24218015D01*
X113795000Y-24117003D01*
X113287179Y-24218015D01*
X112856669Y-24505672D01*
X112569012Y-24936182D01*
X112525000Y-25157445D01*
X112480988Y-24936182D01*
X112193331Y-24505672D01*
X111762821Y-24218015D01*
X111255000Y-24117003D01*
X110747179Y-24218015D01*
X110316669Y-24505672D01*
X110029012Y-24936182D01*
X109985000Y-25157445D01*
X109940988Y-24936182D01*
X109653331Y-24505672D01*
X109222821Y-24218015D01*
X108715000Y-24117003D01*
X108207179Y-24218015D01*
X107776669Y-24505672D01*
X107515077Y-24897173D01*
X107370183Y-24588642D01*
X106941924Y-24198355D01*
X106531890Y-24028524D01*
X106302000Y-24149845D01*
X106302000Y-25343000D01*
X106322000Y-25343000D01*
X106322000Y-25597000D01*
X106302000Y-25597000D01*
X106302000Y-25617000D01*
X106048000Y-25617000D01*
X106048000Y-25597000D01*
X106028000Y-25597000D01*
X106028000Y-25343000D01*
X106048000Y-25343000D01*
X106048000Y-24149845D01*
X105818110Y-24028524D01*
X105408076Y-24198355D01*
X104979817Y-24588642D01*
X104834923Y-24897173D01*
X104573331Y-24505672D01*
X104142821Y-24218015D01*
X103635000Y-24117003D01*
X103127179Y-24218015D01*
X102696669Y-24505672D01*
X102435077Y-24897173D01*
X102290183Y-24588642D01*
X101861924Y-24198355D01*
X101451890Y-24028524D01*
X101222000Y-24149845D01*
X101222000Y-25343000D01*
X101242000Y-25343000D01*
X101242000Y-25597000D01*
X101222000Y-25597000D01*
X101222000Y-25617000D01*
X100968000Y-25617000D01*
X100968000Y-25597000D01*
X100948000Y-25597000D01*
X100948000Y-25343000D01*
X100968000Y-25343000D01*
X100968000Y-24149845D01*
X100738110Y-24028524D01*
X100328076Y-24198355D01*
X99899817Y-24588642D01*
X99754923Y-24897173D01*
X99493331Y-24505672D01*
X99062821Y-24218015D01*
X98555000Y-24117003D01*
X98047179Y-24218015D01*
X97616669Y-24505672D01*
X97329012Y-24936182D01*
X97285000Y-25157445D01*
X97240988Y-24936182D01*
X96953331Y-24505672D01*
X96522821Y-24218015D01*
X96015000Y-24117003D01*
X95507179Y-24218015D01*
X95076669Y-24505672D01*
X94789012Y-24936182D01*
X94745000Y-25157445D01*
X94700988Y-24936182D01*
X94413331Y-24505672D01*
X93982821Y-24218015D01*
X93475000Y-24117003D01*
X92967179Y-24218015D01*
X92536669Y-24505672D01*
X92249012Y-24936182D01*
X92205000Y-25157445D01*
X92160988Y-24936182D01*
X91873331Y-24505672D01*
X91442821Y-24218015D01*
X90935000Y-24117003D01*
X90427179Y-24218015D01*
X89996669Y-24505672D01*
X89735077Y-24897173D01*
X89590183Y-24588642D01*
X89161924Y-24198355D01*
X88751890Y-24028524D01*
X88522000Y-24149845D01*
X88522000Y-25343000D01*
X88542000Y-25343000D01*
X88542000Y-25597000D01*
X88522000Y-25597000D01*
X88522000Y-25617000D01*
X88268000Y-25617000D01*
X88268000Y-25597000D01*
X88248000Y-25597000D01*
X88248000Y-25343000D01*
X88268000Y-25343000D01*
X88268000Y-24149845D01*
X88038110Y-24028524D01*
X87628076Y-24198355D01*
X87199817Y-24588642D01*
X87054923Y-24897173D01*
X86793331Y-24505672D01*
X86362821Y-24218015D01*
X85855000Y-24117003D01*
X85347179Y-24218015D01*
X84916669Y-24505672D01*
X84629012Y-24936182D01*
X84585000Y-25157445D01*
X84540988Y-24936182D01*
X84253331Y-24505672D01*
X83822821Y-24218015D01*
X83315000Y-24117003D01*
X82807179Y-24218015D01*
X82376669Y-24505672D01*
X82115077Y-24897173D01*
X81970183Y-24588642D01*
X81541924Y-24198355D01*
X81131890Y-24028524D01*
X80902000Y-24149845D01*
X80902000Y-25343000D01*
X80922000Y-25343000D01*
X80922000Y-25597000D01*
X80902000Y-25597000D01*
X80902000Y-25617000D01*
X80648000Y-25617000D01*
X80648000Y-25597000D01*
X80628000Y-25597000D01*
X80628000Y-25343000D01*
X80648000Y-25343000D01*
X80648000Y-24149845D01*
X80418110Y-24028524D01*
X80008076Y-24198355D01*
X79579817Y-24588642D01*
X79434923Y-24897173D01*
X79173331Y-24505672D01*
X78742821Y-24218015D01*
X78253987Y-24120780D01*
X82022677Y-20612000D01*
X82369226Y-20612000D01*
X82488162Y-20899846D01*
X82868154Y-21280501D01*
X83364891Y-21486765D01*
X83902750Y-21487234D01*
X84399846Y-21281838D01*
X84780501Y-20901846D01*
X84885002Y-20650180D01*
X84988162Y-20899846D01*
X85368154Y-21280501D01*
X85864891Y-21486765D01*
X86402750Y-21487234D01*
X86899846Y-21281838D01*
X87280501Y-20901846D01*
X87385002Y-20650180D01*
X87488162Y-20899846D01*
X87868154Y-21280501D01*
X88033000Y-21348951D01*
X88033000Y-21688058D01*
X87976670Y-21744290D01*
X87858129Y-22029767D01*
X87857860Y-22338877D01*
X87975902Y-22624560D01*
X88194284Y-22843324D01*
X88479761Y-22961865D01*
X88788871Y-22962134D01*
X89074554Y-22844092D01*
X89293318Y-22625710D01*
X89411859Y-22340233D01*
X89412128Y-22031123D01*
X89294086Y-21745440D01*
X89237000Y-21688254D01*
X89237000Y-21349125D01*
X89399846Y-21281838D01*
X89780501Y-20901846D01*
X89885002Y-20650180D01*
X89988162Y-20899846D01*
X90368154Y-21280501D01*
X90864891Y-21486765D01*
X91402750Y-21487234D01*
X91899846Y-21281838D01*
X92280501Y-20901846D01*
X92385002Y-20650180D01*
X92488162Y-20899846D01*
X92868154Y-21280501D01*
X93364891Y-21486765D01*
X93902750Y-21487234D01*
X94399846Y-21281838D01*
X94780501Y-20901846D01*
X94885002Y-20650180D01*
X94988162Y-20899846D01*
X95368154Y-21280501D01*
X95864891Y-21486765D01*
X96402750Y-21487234D01*
X96899846Y-21281838D01*
X97125000Y-21057076D01*
X97125000Y-21136310D01*
X97221673Y-21369699D01*
X97400302Y-21548327D01*
X97633691Y-21645000D01*
X98349250Y-21645000D01*
X98508000Y-21486250D01*
X98508000Y-20262000D01*
X98762000Y-20262000D01*
X98762000Y-21486250D01*
X98920750Y-21645000D01*
X99636309Y-21645000D01*
X99869698Y-21548327D01*
X100048327Y-21369699D01*
X100145000Y-21136310D01*
X100145000Y-20420750D01*
X100127000Y-20402750D01*
X105282766Y-20402750D01*
X105488162Y-20899846D01*
X105868154Y-21280501D01*
X106364891Y-21486765D01*
X106902750Y-21487234D01*
X107399846Y-21281838D01*
X107780501Y-20901846D01*
X107885002Y-20650180D01*
X107988162Y-20899846D01*
X108368154Y-21280501D01*
X108864891Y-21486765D01*
X109402750Y-21487234D01*
X109899846Y-21281838D01*
X110280501Y-20901846D01*
X110385002Y-20650180D01*
X110488162Y-20899846D01*
X110868154Y-21280501D01*
X111364891Y-21486765D01*
X111902750Y-21487234D01*
X112399846Y-21281838D01*
X112780501Y-20901846D01*
X112885002Y-20650180D01*
X112988162Y-20899846D01*
X113368154Y-21280501D01*
X113864891Y-21486765D01*
X114402750Y-21487234D01*
X114899846Y-21281838D01*
X114984771Y-21197060D01*
X115752545Y-21197060D01*
X115835884Y-21450953D01*
X116400306Y-21656590D01*
X117000458Y-21630579D01*
X117434116Y-21450953D01*
X117517455Y-21197060D01*
X116635000Y-20314605D01*
X115752545Y-21197060D01*
X114984771Y-21197060D01*
X115280501Y-20901846D01*
X115293106Y-20871489D01*
X115319047Y-20934116D01*
X115572940Y-21017455D01*
X116455395Y-20135000D01*
X116814605Y-20135000D01*
X117697060Y-21017455D01*
X117773656Y-20992313D01*
X117773656Y-21010000D01*
X117806917Y-21186765D01*
X117911385Y-21349113D01*
X118070785Y-21458027D01*
X118260000Y-21496344D01*
X120010000Y-21496344D01*
X120186765Y-21463083D01*
X120349113Y-21358615D01*
X120458027Y-21199215D01*
X120496344Y-21010000D01*
X120496344Y-19260000D01*
X120463083Y-19083235D01*
X120358615Y-18920887D01*
X120199215Y-18811973D01*
X120010000Y-18773656D01*
X118260000Y-18773656D01*
X118083235Y-18806917D01*
X117920887Y-18911385D01*
X117811973Y-19070785D01*
X117773656Y-19260000D01*
X117773656Y-19277687D01*
X117697060Y-19252545D01*
X116814605Y-20135000D01*
X116455395Y-20135000D01*
X115572940Y-19252545D01*
X115319047Y-19335884D01*
X115294976Y-19401952D01*
X115281838Y-19370154D01*
X114985142Y-19072940D01*
X115752545Y-19072940D01*
X116635000Y-19955395D01*
X117517455Y-19072940D01*
X117434116Y-18819047D01*
X116869694Y-18613410D01*
X116269542Y-18639421D01*
X115835884Y-18819047D01*
X115752545Y-19072940D01*
X114985142Y-19072940D01*
X114901846Y-18989499D01*
X114405109Y-18783235D01*
X113867250Y-18782766D01*
X113370154Y-18988162D01*
X112989499Y-19368154D01*
X112884998Y-19619820D01*
X112781838Y-19370154D01*
X112401846Y-18989499D01*
X111905109Y-18783235D01*
X111367250Y-18782766D01*
X110870154Y-18988162D01*
X110489499Y-19368154D01*
X110384998Y-19619820D01*
X110281838Y-19370154D01*
X109901846Y-18989499D01*
X109405109Y-18783235D01*
X108867250Y-18782766D01*
X108370154Y-18988162D01*
X107989499Y-19368154D01*
X107884998Y-19619820D01*
X107781838Y-19370154D01*
X107401846Y-18989499D01*
X106905109Y-18783235D01*
X106367250Y-18782766D01*
X105870154Y-18988162D01*
X105489499Y-19368154D01*
X105283235Y-19864891D01*
X105282766Y-20402750D01*
X100127000Y-20402750D01*
X99986250Y-20262000D01*
X98762000Y-20262000D01*
X98508000Y-20262000D01*
X98488000Y-20262000D01*
X98488000Y-20008000D01*
X98508000Y-20008000D01*
X98508000Y-18783750D01*
X98762000Y-18783750D01*
X98762000Y-20008000D01*
X99986250Y-20008000D01*
X100145000Y-19849250D01*
X100145000Y-19133690D01*
X100048327Y-18900301D01*
X99869698Y-18721673D01*
X99636309Y-18625000D01*
X98920750Y-18625000D01*
X98762000Y-18783750D01*
X98508000Y-18783750D01*
X98349250Y-18625000D01*
X97844534Y-18625000D01*
X97855584Y-18612000D01*
X120675499Y-18612000D01*
X123834525Y-23494131D01*
X124049420Y-23674419D01*
X124235000Y-23712000D01*
X128035000Y-23712000D01*
X128208369Y-23679378D01*
X128367598Y-23576917D01*
X128474419Y-23420580D01*
X128512000Y-23235000D01*
X128512000Y-22505000D01*
X129149250Y-22505000D01*
X129308000Y-22346250D01*
X129308000Y-21122000D01*
X129562000Y-21122000D01*
X129562000Y-22346250D01*
X129720750Y-22505000D01*
X130436309Y-22505000D01*
X130669698Y-22408327D01*
X130848327Y-22229699D01*
X130945000Y-21996310D01*
X130945000Y-21280750D01*
X130786250Y-21122000D01*
X129562000Y-21122000D01*
X129308000Y-21122000D01*
X129288000Y-21122000D01*
X129288000Y-20868000D01*
X129308000Y-20868000D01*
X129308000Y-19643750D01*
X129562000Y-19643750D01*
X129562000Y-20868000D01*
X130786250Y-20868000D01*
X130945000Y-20709250D01*
X130945000Y-19993690D01*
X130848327Y-19760301D01*
X130669698Y-19581673D01*
X130436309Y-19485000D01*
X129720750Y-19485000D01*
X129562000Y-19643750D01*
X129308000Y-19643750D01*
X129149250Y-19485000D01*
X128512000Y-19485000D01*
X128512000Y-18920750D01*
X130675000Y-18920750D01*
X130675000Y-19396309D01*
X130771673Y-19629698D01*
X130950301Y-19808327D01*
X131183690Y-19905000D01*
X131509250Y-19905000D01*
X131668000Y-19746250D01*
X131668000Y-18762000D01*
X130833750Y-18762000D01*
X130675000Y-18920750D01*
X128512000Y-18920750D01*
X128512000Y-18012000D01*
X130675000Y-18012000D01*
X130675000Y-18349250D01*
G36*
X75822000Y-27883000D02*
X75842000Y-27883000D01*
X75842000Y-28137000D01*
X75822000Y-28137000D01*
X75822000Y-28157000D01*
X75568000Y-28157000D01*
X75568000Y-28137000D01*
X75548000Y-28137000D01*
X75548000Y-27883000D01*
X75568000Y-27883000D01*
X75568000Y-27863000D01*
X75822000Y-27863000D01*
X75822000Y-27883000D01*
X75822000Y-27883000D01*
G37*
X75822000Y-27883000D02*
X75842000Y-27883000D01*
X75842000Y-28137000D01*
X75822000Y-28137000D01*
X75822000Y-28157000D01*
X75568000Y-28157000D01*
X75568000Y-28137000D01*
X75548000Y-28137000D01*
X75548000Y-27883000D01*
X75568000Y-27883000D01*
X75568000Y-27863000D01*
X75822000Y-27863000D01*
X75822000Y-27883000D01*
G36*
X79579817Y-26351358D02*
X80008076Y-26741645D01*
X80183153Y-26814160D01*
X79836669Y-27045672D01*
X79549012Y-27476182D01*
X79505000Y-27697445D01*
X79460988Y-27476182D01*
X79173331Y-27045672D01*
X78742821Y-26758015D01*
X78652254Y-26740000D01*
X78742821Y-26721985D01*
X79173331Y-26434328D01*
X79434923Y-26042827D01*
X79579817Y-26351358D01*
X79579817Y-26351358D01*
G37*
X79579817Y-26351358D02*
X80008076Y-26741645D01*
X80183153Y-26814160D01*
X79836669Y-27045672D01*
X79549012Y-27476182D01*
X79505000Y-27697445D01*
X79460988Y-27476182D01*
X79173331Y-27045672D01*
X78742821Y-26758015D01*
X78652254Y-26740000D01*
X78742821Y-26721985D01*
X79173331Y-26434328D01*
X79434923Y-26042827D01*
X79579817Y-26351358D01*
G36*
X77009012Y-26003818D02*
X77296669Y-26434328D01*
X77727179Y-26721985D01*
X77817746Y-26740000D01*
X77727179Y-26758015D01*
X77296669Y-27045672D01*
X77035077Y-27437173D01*
X76890183Y-27128642D01*
X76461924Y-26738355D01*
X76286847Y-26665840D01*
X76633331Y-26434328D01*
X76920988Y-26003818D01*
X76965000Y-25782555D01*
X77009012Y-26003818D01*
X77009012Y-26003818D01*
G37*
X77009012Y-26003818D02*
X77296669Y-26434328D01*
X77727179Y-26721985D01*
X77817746Y-26740000D01*
X77727179Y-26758015D01*
X77296669Y-27045672D01*
X77035077Y-27437173D01*
X76890183Y-27128642D01*
X76461924Y-26738355D01*
X76286847Y-26665840D01*
X76633331Y-26434328D01*
X76920988Y-26003818D01*
X76965000Y-25782555D01*
X77009012Y-26003818D01*
G36*
X131708000Y-17408000D02*
X128035000Y-17408000D01*
X127985590Y-17418006D01*
X127943965Y-17446447D01*
X127916685Y-17488841D01*
X127908000Y-17535000D01*
X127908000Y-19842392D01*
X127817454Y-19932938D01*
X127734116Y-19679047D01*
X127169694Y-19473410D01*
X126569542Y-19499421D01*
X126135884Y-19679047D01*
X126052545Y-19932940D01*
X126935000Y-20815395D01*
X126949143Y-20801253D01*
X127128748Y-20980858D01*
X127114605Y-20995000D01*
X127128748Y-21009143D01*
X126949143Y-21188748D01*
X126935000Y-21174605D01*
X126052545Y-22057060D01*
X126135884Y-22310953D01*
X126700306Y-22516590D01*
X127300458Y-22490579D01*
X127734116Y-22310953D01*
X127817454Y-22057062D01*
X127908000Y-22147608D01*
X127908000Y-23108000D01*
X124304091Y-23108000D01*
X122784995Y-20760306D01*
X125413410Y-20760306D01*
X125439421Y-21360458D01*
X125619047Y-21794116D01*
X125872940Y-21877455D01*
X126755395Y-20995000D01*
X125872940Y-20112545D01*
X125619047Y-20195884D01*
X125413410Y-20760306D01*
X122784995Y-20760306D01*
X121041625Y-18066007D01*
X121006383Y-18029959D01*
X120935000Y-18008000D01*
X97635000Y-18008000D01*
X97585590Y-18018006D01*
X97538234Y-18052749D01*
X96783697Y-18940439D01*
X96405109Y-18783235D01*
X95867250Y-18782766D01*
X95370154Y-18988162D01*
X94989499Y-19368154D01*
X94884998Y-19619820D01*
X94781838Y-19370154D01*
X94401846Y-18989499D01*
X93905109Y-18783235D01*
X93367250Y-18782766D01*
X92870154Y-18988162D01*
X92489499Y-19368154D01*
X92384998Y-19619820D01*
X92281838Y-19370154D01*
X91901846Y-18989499D01*
X91405109Y-18783235D01*
X90867250Y-18782766D01*
X90370154Y-18988162D01*
X89989499Y-19368154D01*
X89884998Y-19619820D01*
X89781838Y-19370154D01*
X89401846Y-18989499D01*
X88905109Y-18783235D01*
X88367250Y-18782766D01*
X87870154Y-18988162D01*
X87489499Y-19368154D01*
X87384998Y-19619820D01*
X87281838Y-19370154D01*
X86901846Y-18989499D01*
X86405109Y-18783235D01*
X85867250Y-18782766D01*
X85370154Y-18988162D01*
X84989499Y-19368154D01*
X84884998Y-19619820D01*
X84781838Y-19370154D01*
X84401846Y-18989499D01*
X83905109Y-18783235D01*
X83367250Y-18782766D01*
X82870154Y-18988162D01*
X82489499Y-19368154D01*
X82283235Y-19864891D01*
X82283110Y-20008000D01*
X81835000Y-20008000D01*
X81785590Y-20018006D01*
X81748460Y-20042049D01*
X79982995Y-21685758D01*
X79592081Y-21608000D01*
X71595003Y-21608000D01*
X71594998Y-21607999D01*
X71029774Y-21720430D01*
X70897564Y-21808770D01*
X67134397Y-18045603D01*
X66655224Y-17725430D01*
X66090000Y-17613000D01*
X63230000Y-17613000D01*
X62664777Y-17725430D01*
X62185603Y-18045603D01*
X61865430Y-18524777D01*
X61753000Y-19090000D01*
X61865430Y-19655223D01*
X62185603Y-20134397D01*
X62664777Y-20454570D01*
X63230000Y-20567000D01*
X65478206Y-20567000D01*
X68205081Y-23293875D01*
X68205081Y-23335000D01*
X68317511Y-23900223D01*
X68410708Y-24039702D01*
X68202000Y-24149845D01*
X68202000Y-25343000D01*
X68222000Y-25343000D01*
X68222000Y-25408000D01*
X67928000Y-25408000D01*
X67928000Y-25343000D01*
X67948000Y-25343000D01*
X67948000Y-24149845D01*
X67718110Y-24028524D01*
X67308076Y-24198355D01*
X66879817Y-24588642D01*
X66805000Y-24747954D01*
X66730183Y-24588642D01*
X66301924Y-24198355D01*
X65891890Y-24028524D01*
X65662000Y-24149845D01*
X65662000Y-25343000D01*
X65682000Y-25343000D01*
X65682000Y-25408000D01*
X65388000Y-25408000D01*
X65388000Y-25343000D01*
X65408000Y-25343000D01*
X65408000Y-24149845D01*
X65178110Y-24028524D01*
X64768076Y-24198355D01*
X64339817Y-24588642D01*
X64093514Y-25113108D01*
X64214180Y-25342998D01*
X64050000Y-25342998D01*
X64050000Y-25408000D01*
X63848814Y-25408000D01*
X63584376Y-24768011D01*
X62607134Y-23789062D01*
X61329652Y-23258605D01*
X59946416Y-23257398D01*
X58668011Y-23785624D01*
X57689062Y-24762866D01*
X57687000Y-24767832D01*
X57687000Y-19375750D01*
X58295000Y-19375750D01*
X58295000Y-20016310D01*
X58391673Y-20249699D01*
X58570302Y-20428327D01*
X58803691Y-20525000D01*
X59444250Y-20525000D01*
X59603000Y-20366250D01*
X59603000Y-19217000D01*
X59857000Y-19217000D01*
X59857000Y-20366250D01*
X60015750Y-20525000D01*
X60656309Y-20525000D01*
X60889698Y-20428327D01*
X61068327Y-20249699D01*
X61165000Y-20016310D01*
X61165000Y-19375750D01*
X61006250Y-19217000D01*
X59857000Y-19217000D01*
X59603000Y-19217000D01*
X58453750Y-19217000D01*
X58295000Y-19375750D01*
X57687000Y-19375750D01*
X57687000Y-18389365D01*
X57731889Y-18163690D01*
X58295000Y-18163690D01*
X58295000Y-18804250D01*
X58453750Y-18963000D01*
X59603000Y-18963000D01*
X59603000Y-17813750D01*
X59857000Y-17813750D01*
X59857000Y-18963000D01*
X61006250Y-18963000D01*
X61165000Y-18804250D01*
X61165000Y-18163690D01*
X61068327Y-17930301D01*
X60889698Y-17751673D01*
X60656309Y-17655000D01*
X60015750Y-17655000D01*
X59857000Y-17813750D01*
X59603000Y-17813750D01*
X59444250Y-17655000D01*
X58803691Y-17655000D01*
X58570302Y-17751673D01*
X58391673Y-17930301D01*
X58295000Y-18163690D01*
X57731889Y-18163690D01*
X57921394Y-17210988D01*
X58558096Y-16258096D01*
X59510987Y-15621394D01*
X60689370Y-15387000D01*
X131708000Y-15387000D01*
X131708000Y-17408000D01*
X131708000Y-17408000D01*
G37*
X131708000Y-17408000D02*
X128035000Y-17408000D01*
X127985590Y-17418006D01*
X127943965Y-17446447D01*
X127916685Y-17488841D01*
X127908000Y-17535000D01*
X127908000Y-19842392D01*
X127817454Y-19932938D01*
X127734116Y-19679047D01*
X127169694Y-19473410D01*
X126569542Y-19499421D01*
X126135884Y-19679047D01*
X126052545Y-19932940D01*
X126935000Y-20815395D01*
X126949143Y-20801253D01*
X127128748Y-20980858D01*
X127114605Y-20995000D01*
X127128748Y-21009143D01*
X126949143Y-21188748D01*
X126935000Y-21174605D01*
X126052545Y-22057060D01*
X126135884Y-22310953D01*
X126700306Y-22516590D01*
X127300458Y-22490579D01*
X127734116Y-22310953D01*
X127817454Y-22057062D01*
X127908000Y-22147608D01*
X127908000Y-23108000D01*
X124304091Y-23108000D01*
X122784995Y-20760306D01*
X125413410Y-20760306D01*
X125439421Y-21360458D01*
X125619047Y-21794116D01*
X125872940Y-21877455D01*
X126755395Y-20995000D01*
X125872940Y-20112545D01*
X125619047Y-20195884D01*
X125413410Y-20760306D01*
X122784995Y-20760306D01*
X121041625Y-18066007D01*
X121006383Y-18029959D01*
X120935000Y-18008000D01*
X97635000Y-18008000D01*
X97585590Y-18018006D01*
X97538234Y-18052749D01*
X96783697Y-18940439D01*
X96405109Y-18783235D01*
X95867250Y-18782766D01*
X95370154Y-18988162D01*
X94989499Y-19368154D01*
X94884998Y-19619820D01*
X94781838Y-19370154D01*
X94401846Y-18989499D01*
X93905109Y-18783235D01*
X93367250Y-18782766D01*
X92870154Y-18988162D01*
X92489499Y-19368154D01*
X92384998Y-19619820D01*
X92281838Y-19370154D01*
X91901846Y-18989499D01*
X91405109Y-18783235D01*
X90867250Y-18782766D01*
X90370154Y-18988162D01*
X89989499Y-19368154D01*
X89884998Y-19619820D01*
X89781838Y-19370154D01*
X89401846Y-18989499D01*
X88905109Y-18783235D01*
X88367250Y-18782766D01*
X87870154Y-18988162D01*
X87489499Y-19368154D01*
X87384998Y-19619820D01*
X87281838Y-19370154D01*
X86901846Y-18989499D01*
X86405109Y-18783235D01*
X85867250Y-18782766D01*
X85370154Y-18988162D01*
X84989499Y-19368154D01*
X84884998Y-19619820D01*
X84781838Y-19370154D01*
X84401846Y-18989499D01*
X83905109Y-18783235D01*
X83367250Y-18782766D01*
X82870154Y-18988162D01*
X82489499Y-19368154D01*
X82283235Y-19864891D01*
X82283110Y-20008000D01*
X81835000Y-20008000D01*
X81785590Y-20018006D01*
X81748460Y-20042049D01*
X79982995Y-21685758D01*
X79592081Y-21608000D01*
X71595003Y-21608000D01*
X71594998Y-21607999D01*
X71029774Y-21720430D01*
X70897564Y-21808770D01*
X67134397Y-18045603D01*
X66655224Y-17725430D01*
X66090000Y-17613000D01*
X63230000Y-17613000D01*
X62664777Y-17725430D01*
X62185603Y-18045603D01*
X61865430Y-18524777D01*
X61753000Y-19090000D01*
X61865430Y-19655223D01*
X62185603Y-20134397D01*
X62664777Y-20454570D01*
X63230000Y-20567000D01*
X65478206Y-20567000D01*
X68205081Y-23293875D01*
X68205081Y-23335000D01*
X68317511Y-23900223D01*
X68410708Y-24039702D01*
X68202000Y-24149845D01*
X68202000Y-25343000D01*
X68222000Y-25343000D01*
X68222000Y-25408000D01*
X67928000Y-25408000D01*
X67928000Y-25343000D01*
X67948000Y-25343000D01*
X67948000Y-24149845D01*
X67718110Y-24028524D01*
X67308076Y-24198355D01*
X66879817Y-24588642D01*
X66805000Y-24747954D01*
X66730183Y-24588642D01*
X66301924Y-24198355D01*
X65891890Y-24028524D01*
X65662000Y-24149845D01*
X65662000Y-25343000D01*
X65682000Y-25343000D01*
X65682000Y-25408000D01*
X65388000Y-25408000D01*
X65388000Y-25343000D01*
X65408000Y-25343000D01*
X65408000Y-24149845D01*
X65178110Y-24028524D01*
X64768076Y-24198355D01*
X64339817Y-24588642D01*
X64093514Y-25113108D01*
X64214180Y-25342998D01*
X64050000Y-25342998D01*
X64050000Y-25408000D01*
X63848814Y-25408000D01*
X63584376Y-24768011D01*
X62607134Y-23789062D01*
X61329652Y-23258605D01*
X59946416Y-23257398D01*
X58668011Y-23785624D01*
X57689062Y-24762866D01*
X57687000Y-24767832D01*
X57687000Y-19375750D01*
X58295000Y-19375750D01*
X58295000Y-20016310D01*
X58391673Y-20249699D01*
X58570302Y-20428327D01*
X58803691Y-20525000D01*
X59444250Y-20525000D01*
X59603000Y-20366250D01*
X59603000Y-19217000D01*
X59857000Y-19217000D01*
X59857000Y-20366250D01*
X60015750Y-20525000D01*
X60656309Y-20525000D01*
X60889698Y-20428327D01*
X61068327Y-20249699D01*
X61165000Y-20016310D01*
X61165000Y-19375750D01*
X61006250Y-19217000D01*
X59857000Y-19217000D01*
X59603000Y-19217000D01*
X58453750Y-19217000D01*
X58295000Y-19375750D01*
X57687000Y-19375750D01*
X57687000Y-18389365D01*
X57731889Y-18163690D01*
X58295000Y-18163690D01*
X58295000Y-18804250D01*
X58453750Y-18963000D01*
X59603000Y-18963000D01*
X59603000Y-17813750D01*
X59857000Y-17813750D01*
X59857000Y-18963000D01*
X61006250Y-18963000D01*
X61165000Y-18804250D01*
X61165000Y-18163690D01*
X61068327Y-17930301D01*
X60889698Y-17751673D01*
X60656309Y-17655000D01*
X60015750Y-17655000D01*
X59857000Y-17813750D01*
X59603000Y-17813750D01*
X59444250Y-17655000D01*
X58803691Y-17655000D01*
X58570302Y-17751673D01*
X58391673Y-17930301D01*
X58295000Y-18163690D01*
X57731889Y-18163690D01*
X57921394Y-17210988D01*
X58558096Y-16258096D01*
X59510987Y-15621394D01*
X60689370Y-15387000D01*
X131708000Y-15387000D01*
X131708000Y-17408000D01*
G36*
X142959012Y-15621394D02*
X143911904Y-16258096D01*
X144548606Y-17210987D01*
X144783000Y-18389370D01*
X144783000Y-63657394D01*
X144282394Y-64158000D01*
X131685000Y-64158000D01*
X131635590Y-64168006D01*
X131595197Y-64195197D01*
X130595197Y-65195197D01*
X130567334Y-65237211D01*
X130558000Y-65285000D01*
X130558000Y-70182394D01*
X129632394Y-71108000D01*
X122537606Y-71108000D01*
X121612000Y-70182394D01*
X121612000Y-65985000D01*
X121601994Y-65935590D01*
X121573093Y-65893520D01*
X120573804Y-64931229D01*
X120531273Y-64904163D01*
X120480922Y-64895799D01*
X119883475Y-64918344D01*
X118962000Y-64030986D01*
X118962000Y-62285000D01*
X124508000Y-62285000D01*
X124582370Y-62658881D01*
X124794157Y-62975843D01*
X125111119Y-63187630D01*
X125485000Y-63262000D01*
X125858881Y-63187630D01*
X126175843Y-62975843D01*
X128565843Y-60585844D01*
X128777630Y-60268882D01*
X128783275Y-60240501D01*
X128818480Y-60063515D01*
X129020501Y-59861846D01*
X129125002Y-59610180D01*
X129228162Y-59859846D01*
X129608154Y-60240501D01*
X130104891Y-60446765D01*
X130642750Y-60447234D01*
X131139846Y-60241838D01*
X131520501Y-59861846D01*
X131625002Y-59610180D01*
X131728162Y-59859846D01*
X132108154Y-60240501D01*
X132604891Y-60446765D01*
X133142750Y-60447234D01*
X133639846Y-60241838D01*
X134020501Y-59861846D01*
X134125002Y-59610180D01*
X134228162Y-59859846D01*
X134608154Y-60240501D01*
X135104891Y-60446765D01*
X135642750Y-60447234D01*
X136139846Y-60241838D01*
X136520501Y-59861846D01*
X136533106Y-59831489D01*
X136559047Y-59894116D01*
X136812940Y-59977455D01*
X137695395Y-59095000D01*
X136812940Y-58212545D01*
X136559047Y-58295884D01*
X136534976Y-58361952D01*
X136521838Y-58330154D01*
X136225142Y-58032940D01*
X136992545Y-58032940D01*
X137875000Y-58915395D01*
X137889143Y-58901253D01*
X138068748Y-59080858D01*
X138054605Y-59095000D01*
X138068748Y-59109143D01*
X137889143Y-59288748D01*
X137875000Y-59274605D01*
X136992545Y-60157060D01*
X137075884Y-60410953D01*
X137640306Y-60616590D01*
X138240458Y-60590579D01*
X138674116Y-60410953D01*
X138757454Y-60157062D01*
X138872086Y-60271694D01*
X138918444Y-60225336D01*
X138961673Y-60329699D01*
X139140302Y-60508327D01*
X139373691Y-60605000D01*
X140089250Y-60605000D01*
X140248000Y-60446250D01*
X140248000Y-59222000D01*
X140502000Y-59222000D01*
X140502000Y-60446250D01*
X140660750Y-60605000D01*
X141376309Y-60605000D01*
X141609698Y-60508327D01*
X141788327Y-60329699D01*
X141885000Y-60096310D01*
X141885000Y-59380750D01*
X141726250Y-59222000D01*
X140502000Y-59222000D01*
X140248000Y-59222000D01*
X140228000Y-59222000D01*
X140228000Y-58968000D01*
X140248000Y-58968000D01*
X140248000Y-57743750D01*
X140502000Y-57743750D01*
X140502000Y-58968000D01*
X141726250Y-58968000D01*
X141885000Y-58809250D01*
X141885000Y-58093690D01*
X141788327Y-57860301D01*
X141609698Y-57681673D01*
X141376309Y-57585000D01*
X140660750Y-57585000D01*
X140502000Y-57743750D01*
X140248000Y-57743750D01*
X140089250Y-57585000D01*
X139373691Y-57585000D01*
X139140302Y-57681673D01*
X138961673Y-57860301D01*
X138918444Y-57964664D01*
X138872086Y-57918306D01*
X138757454Y-58032938D01*
X138674116Y-57779047D01*
X138109694Y-57573410D01*
X137509542Y-57599421D01*
X137075884Y-57779047D01*
X136992545Y-58032940D01*
X136225142Y-58032940D01*
X136141846Y-57949499D01*
X135645109Y-57743235D01*
X135107250Y-57742766D01*
X134610154Y-57948162D01*
X134229499Y-58328154D01*
X134124998Y-58579820D01*
X134021838Y-58330154D01*
X133641846Y-57949499D01*
X133145109Y-57743235D01*
X132607250Y-57742766D01*
X132110154Y-57948162D01*
X131729499Y-58328154D01*
X131624998Y-58579820D01*
X131521838Y-58330154D01*
X131141846Y-57949499D01*
X130645109Y-57743235D01*
X130107250Y-57742766D01*
X129610154Y-57948162D01*
X129229499Y-58328154D01*
X129124998Y-58579820D01*
X129021838Y-58330154D01*
X128641846Y-57949499D01*
X128145109Y-57743235D01*
X127607250Y-57742766D01*
X127110154Y-57948162D01*
X126729499Y-58328154D01*
X126523235Y-58824891D01*
X126522766Y-59362750D01*
X126669775Y-59718538D01*
X124794157Y-61594157D01*
X124582370Y-61911119D01*
X124508000Y-62285000D01*
X118962000Y-62285000D01*
X118962000Y-62044555D01*
X119186064Y-60175393D01*
X119415248Y-58298431D01*
X119416183Y-58283596D01*
X119444933Y-51742750D01*
X131402766Y-51742750D01*
X131608162Y-52239846D01*
X131988154Y-52620501D01*
X132484891Y-52826765D01*
X133022750Y-52827234D01*
X133519846Y-52621838D01*
X133900501Y-52241846D01*
X134005002Y-51990180D01*
X134108162Y-52239846D01*
X134488154Y-52620501D01*
X134984891Y-52826765D01*
X135522750Y-52827234D01*
X136019846Y-52621838D01*
X136400501Y-52241846D01*
X136505002Y-51990180D01*
X136608162Y-52239846D01*
X136988154Y-52620501D01*
X137484891Y-52826765D01*
X138022750Y-52827234D01*
X138519846Y-52621838D01*
X138745000Y-52397076D01*
X138745000Y-52476310D01*
X138841673Y-52709699D01*
X139020302Y-52888327D01*
X139253691Y-52985000D01*
X139969250Y-52985000D01*
X140128000Y-52826250D01*
X140128000Y-51602000D01*
X140382000Y-51602000D01*
X140382000Y-52826250D01*
X140540750Y-52985000D01*
X141256309Y-52985000D01*
X141489698Y-52888327D01*
X141668327Y-52709699D01*
X141765000Y-52476310D01*
X141765000Y-51760750D01*
X141606250Y-51602000D01*
X140382000Y-51602000D01*
X140128000Y-51602000D01*
X140108000Y-51602000D01*
X140108000Y-51348000D01*
X140128000Y-51348000D01*
X140128000Y-50123750D01*
X140382000Y-50123750D01*
X140382000Y-51348000D01*
X141606250Y-51348000D01*
X141765000Y-51189250D01*
X141765000Y-50473690D01*
X141668327Y-50240301D01*
X141489698Y-50061673D01*
X141256309Y-49965000D01*
X140540750Y-49965000D01*
X140382000Y-50123750D01*
X140128000Y-50123750D01*
X139969250Y-49965000D01*
X139253691Y-49965000D01*
X139020302Y-50061673D01*
X138841673Y-50240301D01*
X138745000Y-50473690D01*
X138745000Y-50553042D01*
X138521846Y-50329499D01*
X138025109Y-50123235D01*
X137487250Y-50122766D01*
X136990154Y-50328162D01*
X136609499Y-50708154D01*
X136504998Y-50959820D01*
X136401838Y-50710154D01*
X136021846Y-50329499D01*
X135525109Y-50123235D01*
X134987250Y-50122766D01*
X134490154Y-50328162D01*
X134109499Y-50708154D01*
X134004998Y-50959820D01*
X133901838Y-50710154D01*
X133521846Y-50329499D01*
X133025109Y-50123235D01*
X132487250Y-50122766D01*
X131990154Y-50328162D01*
X131609499Y-50708154D01*
X131403235Y-51204891D01*
X131402766Y-51742750D01*
X119444933Y-51742750D01*
X119474935Y-44917060D01*
X134412545Y-44917060D01*
X134495884Y-45170953D01*
X135060306Y-45376590D01*
X135660458Y-45350579D01*
X136094116Y-45170953D01*
X136177455Y-44917060D01*
X135295000Y-44034605D01*
X134412545Y-44917060D01*
X119474935Y-44917060D01*
X119480636Y-43620306D01*
X133773410Y-43620306D01*
X133799421Y-44220458D01*
X133979047Y-44654116D01*
X134232940Y-44737455D01*
X135115395Y-43855000D01*
X135474605Y-43855000D01*
X136357060Y-44737455D01*
X136610953Y-44654116D01*
X136635024Y-44588048D01*
X136648162Y-44619846D01*
X137028154Y-45000501D01*
X137524891Y-45206765D01*
X138062750Y-45207234D01*
X138559846Y-45001838D01*
X138933656Y-44628679D01*
X138933656Y-44730000D01*
X138966917Y-44906765D01*
X139071385Y-45069113D01*
X139230785Y-45178027D01*
X139420000Y-45216344D01*
X141170000Y-45216344D01*
X141346765Y-45183083D01*
X141509113Y-45078615D01*
X141618027Y-44919215D01*
X141656344Y-44730000D01*
X141656344Y-42980000D01*
X141623083Y-42803235D01*
X141518615Y-42640887D01*
X141359215Y-42531973D01*
X141170000Y-42493656D01*
X139420000Y-42493656D01*
X139243235Y-42526917D01*
X139080887Y-42631385D01*
X138971973Y-42790785D01*
X138933656Y-42980000D01*
X138933656Y-43081958D01*
X138561846Y-42709499D01*
X138065109Y-42503235D01*
X137527250Y-42502766D01*
X137030154Y-42708162D01*
X136649499Y-43088154D01*
X136636894Y-43118511D01*
X136610953Y-43055884D01*
X136357060Y-42972545D01*
X135474605Y-43855000D01*
X135115395Y-43855000D01*
X134232940Y-42972545D01*
X133979047Y-43055884D01*
X133773410Y-43620306D01*
X119480636Y-43620306D01*
X119484272Y-42792940D01*
X134412545Y-42792940D01*
X135295000Y-43675395D01*
X136177455Y-42792940D01*
X136094116Y-42539047D01*
X135529694Y-42333410D01*
X134929542Y-42359421D01*
X134495884Y-42539047D01*
X134412545Y-42792940D01*
X119484272Y-42792940D01*
X119507485Y-37512404D01*
X119959809Y-36502750D01*
X131522766Y-36502750D01*
X131728162Y-36999846D01*
X132108154Y-37380501D01*
X132604891Y-37586765D01*
X133142750Y-37587234D01*
X133639846Y-37381838D01*
X134020501Y-37001846D01*
X134125002Y-36750180D01*
X134228162Y-36999846D01*
X134608154Y-37380501D01*
X135104891Y-37586765D01*
X135642750Y-37587234D01*
X136139846Y-37381838D01*
X136520501Y-37001846D01*
X136625002Y-36750180D01*
X136728162Y-36999846D01*
X137108154Y-37380501D01*
X137604891Y-37586765D01*
X138142750Y-37587234D01*
X138639846Y-37381838D01*
X138865000Y-37157076D01*
X138865000Y-37236310D01*
X138961673Y-37469699D01*
X139140302Y-37648327D01*
X139373691Y-37745000D01*
X140089250Y-37745000D01*
X140248000Y-37586250D01*
X140248000Y-36362000D01*
X140502000Y-36362000D01*
X140502000Y-37586250D01*
X140660750Y-37745000D01*
X141376309Y-37745000D01*
X141609698Y-37648327D01*
X141788327Y-37469699D01*
X141885000Y-37236310D01*
X141885000Y-36520750D01*
X141726250Y-36362000D01*
X140502000Y-36362000D01*
X140248000Y-36362000D01*
X140228000Y-36362000D01*
X140228000Y-36108000D01*
X140248000Y-36108000D01*
X140248000Y-34883750D01*
X140502000Y-34883750D01*
X140502000Y-36108000D01*
X141726250Y-36108000D01*
X141885000Y-35949250D01*
X141885000Y-35233690D01*
X141788327Y-35000301D01*
X141609698Y-34821673D01*
X141376309Y-34725000D01*
X140660750Y-34725000D01*
X140502000Y-34883750D01*
X140248000Y-34883750D01*
X140089250Y-34725000D01*
X139373691Y-34725000D01*
X139140302Y-34821673D01*
X138961673Y-35000301D01*
X138865000Y-35233690D01*
X138865000Y-35313042D01*
X138641846Y-35089499D01*
X138145109Y-34883235D01*
X137607250Y-34882766D01*
X137110154Y-35088162D01*
X136729499Y-35468154D01*
X136624998Y-35719820D01*
X136521838Y-35470154D01*
X136141846Y-35089499D01*
X135645109Y-34883235D01*
X135107250Y-34882766D01*
X134610154Y-35088162D01*
X134229499Y-35468154D01*
X134124998Y-35719820D01*
X134021838Y-35470154D01*
X133641846Y-35089499D01*
X133145109Y-34883235D01*
X132607250Y-34882766D01*
X132110154Y-35088162D01*
X131729499Y-35468154D01*
X131523235Y-35964891D01*
X131522766Y-36502750D01*
X119959809Y-36502750D01*
X120226500Y-35907457D01*
X121908532Y-35262000D01*
X124392959Y-35262000D01*
X124428624Y-35256889D01*
X125795665Y-34856889D01*
X125850641Y-34823956D01*
X126863844Y-33791561D01*
X126881437Y-33769046D01*
X129393348Y-29677060D01*
X134492545Y-29677060D01*
X134575884Y-29930953D01*
X135140306Y-30136590D01*
X135740458Y-30110579D01*
X136174116Y-29930953D01*
X136257455Y-29677060D01*
X135375000Y-28794605D01*
X134492545Y-29677060D01*
X129393348Y-29677060D01*
X130189375Y-28380306D01*
X133853410Y-28380306D01*
X133879421Y-28980458D01*
X134059047Y-29414116D01*
X134312940Y-29497455D01*
X135195395Y-28615000D01*
X135554605Y-28615000D01*
X136437060Y-29497455D01*
X136690953Y-29414116D01*
X136715024Y-29348048D01*
X136728162Y-29379846D01*
X137108154Y-29760501D01*
X137604891Y-29966765D01*
X138142750Y-29967234D01*
X138639846Y-29761838D01*
X139013656Y-29388679D01*
X139013656Y-29490000D01*
X139046917Y-29666765D01*
X139151385Y-29829113D01*
X139310785Y-29938027D01*
X139500000Y-29976344D01*
X141250000Y-29976344D01*
X141426765Y-29943083D01*
X141589113Y-29838615D01*
X141698027Y-29679215D01*
X141736344Y-29490000D01*
X141736344Y-27740000D01*
X141703083Y-27563235D01*
X141598615Y-27400887D01*
X141439215Y-27291973D01*
X141250000Y-27253656D01*
X139500000Y-27253656D01*
X139323235Y-27286917D01*
X139160887Y-27391385D01*
X139051973Y-27550785D01*
X139013656Y-27740000D01*
X139013656Y-27841958D01*
X138641846Y-27469499D01*
X138145109Y-27263235D01*
X137607250Y-27262766D01*
X137110154Y-27468162D01*
X136729499Y-27848154D01*
X136716894Y-27878511D01*
X136690953Y-27815884D01*
X136437060Y-27732545D01*
X135554605Y-28615000D01*
X135195395Y-28615000D01*
X134312940Y-27732545D01*
X134059047Y-27815884D01*
X133853410Y-28380306D01*
X130189375Y-28380306D01*
X130697263Y-27552940D01*
X134492545Y-27552940D01*
X135375000Y-28435395D01*
X136257455Y-27552940D01*
X136174116Y-27299047D01*
X135609694Y-27093410D01*
X135009542Y-27119421D01*
X134575884Y-27299047D01*
X134492545Y-27552940D01*
X130697263Y-27552940D01*
X132170078Y-25153678D01*
X132183970Y-25122082D01*
X132712445Y-23269859D01*
X132717317Y-23235690D01*
X132727811Y-21262750D01*
X136522766Y-21262750D01*
X136728162Y-21759846D01*
X137108154Y-22140501D01*
X137604891Y-22346765D01*
X138142750Y-22347234D01*
X138639846Y-22141838D01*
X138865000Y-21917076D01*
X138865000Y-21996310D01*
X138961673Y-22229699D01*
X139140302Y-22408327D01*
X139373691Y-22505000D01*
X140089250Y-22505000D01*
X140248000Y-22346250D01*
X140248000Y-21122000D01*
X140502000Y-21122000D01*
X140502000Y-22346250D01*
X140660750Y-22505000D01*
X141376309Y-22505000D01*
X141609698Y-22408327D01*
X141788327Y-22229699D01*
X141885000Y-21996310D01*
X141885000Y-21280750D01*
X141726250Y-21122000D01*
X140502000Y-21122000D01*
X140248000Y-21122000D01*
X140228000Y-21122000D01*
X140228000Y-20868000D01*
X140248000Y-20868000D01*
X140248000Y-19643750D01*
X140502000Y-19643750D01*
X140502000Y-20868000D01*
X141726250Y-20868000D01*
X141885000Y-20709250D01*
X141885000Y-19993690D01*
X141788327Y-19760301D01*
X141609698Y-19581673D01*
X141376309Y-19485000D01*
X140660750Y-19485000D01*
X140502000Y-19643750D01*
X140248000Y-19643750D01*
X140089250Y-19485000D01*
X139373691Y-19485000D01*
X139140302Y-19581673D01*
X138961673Y-19760301D01*
X138865000Y-19993690D01*
X138865000Y-20073042D01*
X138641846Y-19849499D01*
X138145109Y-19643235D01*
X137607250Y-19642766D01*
X137110154Y-19848162D01*
X136729499Y-20228154D01*
X136523235Y-20724891D01*
X136522766Y-21262750D01*
X132727811Y-21262750D01*
X132735033Y-19905000D01*
X132789250Y-19905000D01*
X132948000Y-19746250D01*
X132948000Y-18762000D01*
X133202000Y-18762000D01*
X133202000Y-19746250D01*
X133360750Y-19905000D01*
X133686310Y-19905000D01*
X133919699Y-19808327D01*
X134098327Y-19629698D01*
X134195000Y-19396309D01*
X134195000Y-18920750D01*
X134036250Y-18762000D01*
X133202000Y-18762000D01*
X132948000Y-18762000D01*
X132928000Y-18762000D01*
X132928000Y-18508000D01*
X132948000Y-18508000D01*
X132948000Y-17523750D01*
X133202000Y-17523750D01*
X133202000Y-18508000D01*
X134036250Y-18508000D01*
X134195000Y-18349250D01*
X134195000Y-17873691D01*
X134098327Y-17640302D01*
X133919699Y-17461673D01*
X133686310Y-17365000D01*
X133360750Y-17365000D01*
X133202000Y-17523750D01*
X132948000Y-17523750D01*
X132789250Y-17365000D01*
X132748544Y-17365000D01*
X132756400Y-15888068D01*
X133260140Y-15387000D01*
X141780635Y-15387000D01*
X142959012Y-15621394D01*
X142959012Y-15621394D01*
G37*
X142959012Y-15621394D02*
X143911904Y-16258096D01*
X144548606Y-17210987D01*
X144783000Y-18389370D01*
X144783000Y-63657394D01*
X144282394Y-64158000D01*
X131685000Y-64158000D01*
X131635590Y-64168006D01*
X131595197Y-64195197D01*
X130595197Y-65195197D01*
X130567334Y-65237211D01*
X130558000Y-65285000D01*
X130558000Y-70182394D01*
X129632394Y-71108000D01*
X122537606Y-71108000D01*
X121612000Y-70182394D01*
X121612000Y-65985000D01*
X121601994Y-65935590D01*
X121573093Y-65893520D01*
X120573804Y-64931229D01*
X120531273Y-64904163D01*
X120480922Y-64895799D01*
X119883475Y-64918344D01*
X118962000Y-64030986D01*
X118962000Y-62285000D01*
X124508000Y-62285000D01*
X124582370Y-62658881D01*
X124794157Y-62975843D01*
X125111119Y-63187630D01*
X125485000Y-63262000D01*
X125858881Y-63187630D01*
X126175843Y-62975843D01*
X128565843Y-60585844D01*
X128777630Y-60268882D01*
X128783275Y-60240501D01*
X128818480Y-60063515D01*
X129020501Y-59861846D01*
X129125002Y-59610180D01*
X129228162Y-59859846D01*
X129608154Y-60240501D01*
X130104891Y-60446765D01*
X130642750Y-60447234D01*
X131139846Y-60241838D01*
X131520501Y-59861846D01*
X131625002Y-59610180D01*
X131728162Y-59859846D01*
X132108154Y-60240501D01*
X132604891Y-60446765D01*
X133142750Y-60447234D01*
X133639846Y-60241838D01*
X134020501Y-59861846D01*
X134125002Y-59610180D01*
X134228162Y-59859846D01*
X134608154Y-60240501D01*
X135104891Y-60446765D01*
X135642750Y-60447234D01*
X136139846Y-60241838D01*
X136520501Y-59861846D01*
X136533106Y-59831489D01*
X136559047Y-59894116D01*
X136812940Y-59977455D01*
X137695395Y-59095000D01*
X136812940Y-58212545D01*
X136559047Y-58295884D01*
X136534976Y-58361952D01*
X136521838Y-58330154D01*
X136225142Y-58032940D01*
X136992545Y-58032940D01*
X137875000Y-58915395D01*
X137889143Y-58901253D01*
X138068748Y-59080858D01*
X138054605Y-59095000D01*
X138068748Y-59109143D01*
X137889143Y-59288748D01*
X137875000Y-59274605D01*
X136992545Y-60157060D01*
X137075884Y-60410953D01*
X137640306Y-60616590D01*
X138240458Y-60590579D01*
X138674116Y-60410953D01*
X138757454Y-60157062D01*
X138872086Y-60271694D01*
X138918444Y-60225336D01*
X138961673Y-60329699D01*
X139140302Y-60508327D01*
X139373691Y-60605000D01*
X140089250Y-60605000D01*
X140248000Y-60446250D01*
X140248000Y-59222000D01*
X140502000Y-59222000D01*
X140502000Y-60446250D01*
X140660750Y-60605000D01*
X141376309Y-60605000D01*
X141609698Y-60508327D01*
X141788327Y-60329699D01*
X141885000Y-60096310D01*
X141885000Y-59380750D01*
X141726250Y-59222000D01*
X140502000Y-59222000D01*
X140248000Y-59222000D01*
X140228000Y-59222000D01*
X140228000Y-58968000D01*
X140248000Y-58968000D01*
X140248000Y-57743750D01*
X140502000Y-57743750D01*
X140502000Y-58968000D01*
X141726250Y-58968000D01*
X141885000Y-58809250D01*
X141885000Y-58093690D01*
X141788327Y-57860301D01*
X141609698Y-57681673D01*
X141376309Y-57585000D01*
X140660750Y-57585000D01*
X140502000Y-57743750D01*
X140248000Y-57743750D01*
X140089250Y-57585000D01*
X139373691Y-57585000D01*
X139140302Y-57681673D01*
X138961673Y-57860301D01*
X138918444Y-57964664D01*
X138872086Y-57918306D01*
X138757454Y-58032938D01*
X138674116Y-57779047D01*
X138109694Y-57573410D01*
X137509542Y-57599421D01*
X137075884Y-57779047D01*
X136992545Y-58032940D01*
X136225142Y-58032940D01*
X136141846Y-57949499D01*
X135645109Y-57743235D01*
X135107250Y-57742766D01*
X134610154Y-57948162D01*
X134229499Y-58328154D01*
X134124998Y-58579820D01*
X134021838Y-58330154D01*
X133641846Y-57949499D01*
X133145109Y-57743235D01*
X132607250Y-57742766D01*
X132110154Y-57948162D01*
X131729499Y-58328154D01*
X131624998Y-58579820D01*
X131521838Y-58330154D01*
X131141846Y-57949499D01*
X130645109Y-57743235D01*
X130107250Y-57742766D01*
X129610154Y-57948162D01*
X129229499Y-58328154D01*
X129124998Y-58579820D01*
X129021838Y-58330154D01*
X128641846Y-57949499D01*
X128145109Y-57743235D01*
X127607250Y-57742766D01*
X127110154Y-57948162D01*
X126729499Y-58328154D01*
X126523235Y-58824891D01*
X126522766Y-59362750D01*
X126669775Y-59718538D01*
X124794157Y-61594157D01*
X124582370Y-61911119D01*
X124508000Y-62285000D01*
X118962000Y-62285000D01*
X118962000Y-62044555D01*
X119186064Y-60175393D01*
X119415248Y-58298431D01*
X119416183Y-58283596D01*
X119444933Y-51742750D01*
X131402766Y-51742750D01*
X131608162Y-52239846D01*
X131988154Y-52620501D01*
X132484891Y-52826765D01*
X133022750Y-52827234D01*
X133519846Y-52621838D01*
X133900501Y-52241846D01*
X134005002Y-51990180D01*
X134108162Y-52239846D01*
X134488154Y-52620501D01*
X134984891Y-52826765D01*
X135522750Y-52827234D01*
X136019846Y-52621838D01*
X136400501Y-52241846D01*
X136505002Y-51990180D01*
X136608162Y-52239846D01*
X136988154Y-52620501D01*
X137484891Y-52826765D01*
X138022750Y-52827234D01*
X138519846Y-52621838D01*
X138745000Y-52397076D01*
X138745000Y-52476310D01*
X138841673Y-52709699D01*
X139020302Y-52888327D01*
X139253691Y-52985000D01*
X139969250Y-52985000D01*
X140128000Y-52826250D01*
X140128000Y-51602000D01*
X140382000Y-51602000D01*
X140382000Y-52826250D01*
X140540750Y-52985000D01*
X141256309Y-52985000D01*
X141489698Y-52888327D01*
X141668327Y-52709699D01*
X141765000Y-52476310D01*
X141765000Y-51760750D01*
X141606250Y-51602000D01*
X140382000Y-51602000D01*
X140128000Y-51602000D01*
X140108000Y-51602000D01*
X140108000Y-51348000D01*
X140128000Y-51348000D01*
X140128000Y-50123750D01*
X140382000Y-50123750D01*
X140382000Y-51348000D01*
X141606250Y-51348000D01*
X141765000Y-51189250D01*
X141765000Y-50473690D01*
X141668327Y-50240301D01*
X141489698Y-50061673D01*
X141256309Y-49965000D01*
X140540750Y-49965000D01*
X140382000Y-50123750D01*
X140128000Y-50123750D01*
X139969250Y-49965000D01*
X139253691Y-49965000D01*
X139020302Y-50061673D01*
X138841673Y-50240301D01*
X138745000Y-50473690D01*
X138745000Y-50553042D01*
X138521846Y-50329499D01*
X138025109Y-50123235D01*
X137487250Y-50122766D01*
X136990154Y-50328162D01*
X136609499Y-50708154D01*
X136504998Y-50959820D01*
X136401838Y-50710154D01*
X136021846Y-50329499D01*
X135525109Y-50123235D01*
X134987250Y-50122766D01*
X134490154Y-50328162D01*
X134109499Y-50708154D01*
X134004998Y-50959820D01*
X133901838Y-50710154D01*
X133521846Y-50329499D01*
X133025109Y-50123235D01*
X132487250Y-50122766D01*
X131990154Y-50328162D01*
X131609499Y-50708154D01*
X131403235Y-51204891D01*
X131402766Y-51742750D01*
X119444933Y-51742750D01*
X119474935Y-44917060D01*
X134412545Y-44917060D01*
X134495884Y-45170953D01*
X135060306Y-45376590D01*
X135660458Y-45350579D01*
X136094116Y-45170953D01*
X136177455Y-44917060D01*
X135295000Y-44034605D01*
X134412545Y-44917060D01*
X119474935Y-44917060D01*
X119480636Y-43620306D01*
X133773410Y-43620306D01*
X133799421Y-44220458D01*
X133979047Y-44654116D01*
X134232940Y-44737455D01*
X135115395Y-43855000D01*
X135474605Y-43855000D01*
X136357060Y-44737455D01*
X136610953Y-44654116D01*
X136635024Y-44588048D01*
X136648162Y-44619846D01*
X137028154Y-45000501D01*
X137524891Y-45206765D01*
X138062750Y-45207234D01*
X138559846Y-45001838D01*
X138933656Y-44628679D01*
X138933656Y-44730000D01*
X138966917Y-44906765D01*
X139071385Y-45069113D01*
X139230785Y-45178027D01*
X139420000Y-45216344D01*
X141170000Y-45216344D01*
X141346765Y-45183083D01*
X141509113Y-45078615D01*
X141618027Y-44919215D01*
X141656344Y-44730000D01*
X141656344Y-42980000D01*
X141623083Y-42803235D01*
X141518615Y-42640887D01*
X141359215Y-42531973D01*
X141170000Y-42493656D01*
X139420000Y-42493656D01*
X139243235Y-42526917D01*
X139080887Y-42631385D01*
X138971973Y-42790785D01*
X138933656Y-42980000D01*
X138933656Y-43081958D01*
X138561846Y-42709499D01*
X138065109Y-42503235D01*
X137527250Y-42502766D01*
X137030154Y-42708162D01*
X136649499Y-43088154D01*
X136636894Y-43118511D01*
X136610953Y-43055884D01*
X136357060Y-42972545D01*
X135474605Y-43855000D01*
X135115395Y-43855000D01*
X134232940Y-42972545D01*
X133979047Y-43055884D01*
X133773410Y-43620306D01*
X119480636Y-43620306D01*
X119484272Y-42792940D01*
X134412545Y-42792940D01*
X135295000Y-43675395D01*
X136177455Y-42792940D01*
X136094116Y-42539047D01*
X135529694Y-42333410D01*
X134929542Y-42359421D01*
X134495884Y-42539047D01*
X134412545Y-42792940D01*
X119484272Y-42792940D01*
X119507485Y-37512404D01*
X119959809Y-36502750D01*
X131522766Y-36502750D01*
X131728162Y-36999846D01*
X132108154Y-37380501D01*
X132604891Y-37586765D01*
X133142750Y-37587234D01*
X133639846Y-37381838D01*
X134020501Y-37001846D01*
X134125002Y-36750180D01*
X134228162Y-36999846D01*
X134608154Y-37380501D01*
X135104891Y-37586765D01*
X135642750Y-37587234D01*
X136139846Y-37381838D01*
X136520501Y-37001846D01*
X136625002Y-36750180D01*
X136728162Y-36999846D01*
X137108154Y-37380501D01*
X137604891Y-37586765D01*
X138142750Y-37587234D01*
X138639846Y-37381838D01*
X138865000Y-37157076D01*
X138865000Y-37236310D01*
X138961673Y-37469699D01*
X139140302Y-37648327D01*
X139373691Y-37745000D01*
X140089250Y-37745000D01*
X140248000Y-37586250D01*
X140248000Y-36362000D01*
X140502000Y-36362000D01*
X140502000Y-37586250D01*
X140660750Y-37745000D01*
X141376309Y-37745000D01*
X141609698Y-37648327D01*
X141788327Y-37469699D01*
X141885000Y-37236310D01*
X141885000Y-36520750D01*
X141726250Y-36362000D01*
X140502000Y-36362000D01*
X140248000Y-36362000D01*
X140228000Y-36362000D01*
X140228000Y-36108000D01*
X140248000Y-36108000D01*
X140248000Y-34883750D01*
X140502000Y-34883750D01*
X140502000Y-36108000D01*
X141726250Y-36108000D01*
X141885000Y-35949250D01*
X141885000Y-35233690D01*
X141788327Y-35000301D01*
X141609698Y-34821673D01*
X141376309Y-34725000D01*
X140660750Y-34725000D01*
X140502000Y-34883750D01*
X140248000Y-34883750D01*
X140089250Y-34725000D01*
X139373691Y-34725000D01*
X139140302Y-34821673D01*
X138961673Y-35000301D01*
X138865000Y-35233690D01*
X138865000Y-35313042D01*
X138641846Y-35089499D01*
X138145109Y-34883235D01*
X137607250Y-34882766D01*
X137110154Y-35088162D01*
X136729499Y-35468154D01*
X136624998Y-35719820D01*
X136521838Y-35470154D01*
X136141846Y-35089499D01*
X135645109Y-34883235D01*
X135107250Y-34882766D01*
X134610154Y-35088162D01*
X134229499Y-35468154D01*
X134124998Y-35719820D01*
X134021838Y-35470154D01*
X133641846Y-35089499D01*
X133145109Y-34883235D01*
X132607250Y-34882766D01*
X132110154Y-35088162D01*
X131729499Y-35468154D01*
X131523235Y-35964891D01*
X131522766Y-36502750D01*
X119959809Y-36502750D01*
X120226500Y-35907457D01*
X121908532Y-35262000D01*
X124392959Y-35262000D01*
X124428624Y-35256889D01*
X125795665Y-34856889D01*
X125850641Y-34823956D01*
X126863844Y-33791561D01*
X126881437Y-33769046D01*
X129393348Y-29677060D01*
X134492545Y-29677060D01*
X134575884Y-29930953D01*
X135140306Y-30136590D01*
X135740458Y-30110579D01*
X136174116Y-29930953D01*
X136257455Y-29677060D01*
X135375000Y-28794605D01*
X134492545Y-29677060D01*
X129393348Y-29677060D01*
X130189375Y-28380306D01*
X133853410Y-28380306D01*
X133879421Y-28980458D01*
X134059047Y-29414116D01*
X134312940Y-29497455D01*
X135195395Y-28615000D01*
X135554605Y-28615000D01*
X136437060Y-29497455D01*
X136690953Y-29414116D01*
X136715024Y-29348048D01*
X136728162Y-29379846D01*
X137108154Y-29760501D01*
X137604891Y-29966765D01*
X138142750Y-29967234D01*
X138639846Y-29761838D01*
X139013656Y-29388679D01*
X139013656Y-29490000D01*
X139046917Y-29666765D01*
X139151385Y-29829113D01*
X139310785Y-29938027D01*
X139500000Y-29976344D01*
X141250000Y-29976344D01*
X141426765Y-29943083D01*
X141589113Y-29838615D01*
X141698027Y-29679215D01*
X141736344Y-29490000D01*
X141736344Y-27740000D01*
X141703083Y-27563235D01*
X141598615Y-27400887D01*
X141439215Y-27291973D01*
X141250000Y-27253656D01*
X139500000Y-27253656D01*
X139323235Y-27286917D01*
X139160887Y-27391385D01*
X139051973Y-27550785D01*
X139013656Y-27740000D01*
X139013656Y-27841958D01*
X138641846Y-27469499D01*
X138145109Y-27263235D01*
X137607250Y-27262766D01*
X137110154Y-27468162D01*
X136729499Y-27848154D01*
X136716894Y-27878511D01*
X136690953Y-27815884D01*
X136437060Y-27732545D01*
X135554605Y-28615000D01*
X135195395Y-28615000D01*
X134312940Y-27732545D01*
X134059047Y-27815884D01*
X133853410Y-28380306D01*
X130189375Y-28380306D01*
X130697263Y-27552940D01*
X134492545Y-27552940D01*
X135375000Y-28435395D01*
X136257455Y-27552940D01*
X136174116Y-27299047D01*
X135609694Y-27093410D01*
X135009542Y-27119421D01*
X134575884Y-27299047D01*
X134492545Y-27552940D01*
X130697263Y-27552940D01*
X132170078Y-25153678D01*
X132183970Y-25122082D01*
X132712445Y-23269859D01*
X132717317Y-23235690D01*
X132727811Y-21262750D01*
X136522766Y-21262750D01*
X136728162Y-21759846D01*
X137108154Y-22140501D01*
X137604891Y-22346765D01*
X138142750Y-22347234D01*
X138639846Y-22141838D01*
X138865000Y-21917076D01*
X138865000Y-21996310D01*
X138961673Y-22229699D01*
X139140302Y-22408327D01*
X139373691Y-22505000D01*
X140089250Y-22505000D01*
X140248000Y-22346250D01*
X140248000Y-21122000D01*
X140502000Y-21122000D01*
X140502000Y-22346250D01*
X140660750Y-22505000D01*
X141376309Y-22505000D01*
X141609698Y-22408327D01*
X141788327Y-22229699D01*
X141885000Y-21996310D01*
X141885000Y-21280750D01*
X141726250Y-21122000D01*
X140502000Y-21122000D01*
X140248000Y-21122000D01*
X140228000Y-21122000D01*
X140228000Y-20868000D01*
X140248000Y-20868000D01*
X140248000Y-19643750D01*
X140502000Y-19643750D01*
X140502000Y-20868000D01*
X141726250Y-20868000D01*
X141885000Y-20709250D01*
X141885000Y-19993690D01*
X141788327Y-19760301D01*
X141609698Y-19581673D01*
X141376309Y-19485000D01*
X140660750Y-19485000D01*
X140502000Y-19643750D01*
X140248000Y-19643750D01*
X140089250Y-19485000D01*
X139373691Y-19485000D01*
X139140302Y-19581673D01*
X138961673Y-19760301D01*
X138865000Y-19993690D01*
X138865000Y-20073042D01*
X138641846Y-19849499D01*
X138145109Y-19643235D01*
X137607250Y-19642766D01*
X137110154Y-19848162D01*
X136729499Y-20228154D01*
X136523235Y-20724891D01*
X136522766Y-21262750D01*
X132727811Y-21262750D01*
X132735033Y-19905000D01*
X132789250Y-19905000D01*
X132948000Y-19746250D01*
X132948000Y-18762000D01*
X133202000Y-18762000D01*
X133202000Y-19746250D01*
X133360750Y-19905000D01*
X133686310Y-19905000D01*
X133919699Y-19808327D01*
X134098327Y-19629698D01*
X134195000Y-19396309D01*
X134195000Y-18920750D01*
X134036250Y-18762000D01*
X133202000Y-18762000D01*
X132948000Y-18762000D01*
X132928000Y-18762000D01*
X132928000Y-18508000D01*
X132948000Y-18508000D01*
X132948000Y-17523750D01*
X133202000Y-17523750D01*
X133202000Y-18508000D01*
X134036250Y-18508000D01*
X134195000Y-18349250D01*
X134195000Y-17873691D01*
X134098327Y-17640302D01*
X133919699Y-17461673D01*
X133686310Y-17365000D01*
X133360750Y-17365000D01*
X133202000Y-17523750D01*
X132948000Y-17523750D01*
X132789250Y-17365000D01*
X132748544Y-17365000D01*
X132756400Y-15888068D01*
X133260140Y-15387000D01*
X141780635Y-15387000D01*
X142959012Y-15621394D01*
G36*
X103108000Y-58601807D02*
X102796582Y-58393724D01*
X102796579Y-58393721D01*
X102706099Y-58356244D01*
X102615618Y-58318765D01*
X102615613Y-58318765D01*
X102232942Y-58242647D01*
X102232936Y-58242645D01*
X102135000Y-58242646D01*
X102037064Y-58242645D01*
X102037058Y-58242647D01*
X101654382Y-58318766D01*
X101654381Y-58318766D01*
X101473421Y-58393722D01*
X101148999Y-58610494D01*
X101148996Y-58610495D01*
X101079746Y-58679746D01*
X101010495Y-58748996D01*
X101010495Y-58748997D01*
X100793724Y-59073418D01*
X100793721Y-59073421D01*
X100761008Y-59152398D01*
X100718765Y-59254382D01*
X100718765Y-59254387D01*
X100642646Y-59637065D01*
X100642646Y-59686507D01*
X100633000Y-59735000D01*
X100633000Y-78185559D01*
X100586007Y-78421812D01*
X100480185Y-78580185D01*
X100321812Y-78686007D01*
X100085246Y-78733062D01*
X62368614Y-78780805D01*
X62601989Y-78684376D01*
X63580938Y-77707134D01*
X64111395Y-76429652D01*
X64112602Y-75046416D01*
X63584376Y-73768011D01*
X62607134Y-72789062D01*
X61329652Y-72258605D01*
X59946416Y-72257398D01*
X58668011Y-72785624D01*
X57689062Y-73762866D01*
X57637000Y-73888245D01*
X57637000Y-55712000D01*
X60558000Y-55712000D01*
X60558000Y-70835000D01*
X60568006Y-70884410D01*
X60596447Y-70926035D01*
X60638841Y-70953315D01*
X60685000Y-70962000D01*
X62782394Y-70962000D01*
X65110007Y-73289613D01*
X65208094Y-75839881D01*
X65219991Y-75888870D01*
X65250011Y-75929371D01*
X65293422Y-75955001D01*
X65335000Y-75962000D01*
X95935000Y-75962000D01*
X95984410Y-75951994D01*
X96026035Y-75923553D01*
X96053315Y-75881159D01*
X96061999Y-75834395D01*
X96061789Y-75790364D01*
X96193691Y-75845000D01*
X96909250Y-75845000D01*
X97068000Y-75686250D01*
X97068000Y-74462000D01*
X97322000Y-74462000D01*
X97322000Y-75686250D01*
X97480750Y-75845000D01*
X98196309Y-75845000D01*
X98429698Y-75748327D01*
X98608327Y-75569699D01*
X98705000Y-75336310D01*
X98705000Y-74620750D01*
X98546250Y-74462000D01*
X97322000Y-74462000D01*
X97068000Y-74462000D01*
X97048000Y-74462000D01*
X97048000Y-74208000D01*
X97068000Y-74208000D01*
X97068000Y-72983750D01*
X97322000Y-72983750D01*
X97322000Y-74208000D01*
X98546250Y-74208000D01*
X98705000Y-74049250D01*
X98705000Y-73333690D01*
X98608327Y-73100301D01*
X98429698Y-72921673D01*
X98196309Y-72825000D01*
X97480750Y-72825000D01*
X97322000Y-72983750D01*
X97068000Y-72983750D01*
X96909250Y-72825000D01*
X96193691Y-72825000D01*
X96047956Y-72885365D01*
X96025432Y-68155305D01*
X96193691Y-68225000D01*
X96909250Y-68225000D01*
X97068000Y-68066250D01*
X97068000Y-66842000D01*
X97322000Y-66842000D01*
X97322000Y-68066250D01*
X97480750Y-68225000D01*
X98196309Y-68225000D01*
X98429698Y-68128327D01*
X98608327Y-67949699D01*
X98705000Y-67716310D01*
X98705000Y-67000750D01*
X98546250Y-66842000D01*
X97322000Y-66842000D01*
X97068000Y-66842000D01*
X97048000Y-66842000D01*
X97048000Y-66588000D01*
X97068000Y-66588000D01*
X97068000Y-65363750D01*
X97322000Y-65363750D01*
X97322000Y-66588000D01*
X98546250Y-66588000D01*
X98705000Y-66429250D01*
X98705000Y-65713690D01*
X98608327Y-65480301D01*
X98429698Y-65301673D01*
X98196309Y-65205000D01*
X97480750Y-65205000D01*
X97322000Y-65363750D01*
X97068000Y-65363750D01*
X96909250Y-65205000D01*
X96193691Y-65205000D01*
X96011742Y-65280366D01*
X95989075Y-60520245D01*
X96193691Y-60605000D01*
X96909250Y-60605000D01*
X97068000Y-60446250D01*
X97068000Y-59222000D01*
X97322000Y-59222000D01*
X97322000Y-60446250D01*
X97480750Y-60605000D01*
X98196309Y-60605000D01*
X98429698Y-60508327D01*
X98608327Y-60329699D01*
X98705000Y-60096310D01*
X98705000Y-59380750D01*
X98546250Y-59222000D01*
X97322000Y-59222000D01*
X97068000Y-59222000D01*
X97048000Y-59222000D01*
X97048000Y-58968000D01*
X97068000Y-58968000D01*
X97068000Y-57743750D01*
X97322000Y-57743750D01*
X97322000Y-58968000D01*
X98546250Y-58968000D01*
X98705000Y-58809250D01*
X98705000Y-58093690D01*
X98608327Y-57860301D01*
X98429698Y-57681673D01*
X98196309Y-57585000D01*
X97480750Y-57585000D01*
X97322000Y-57743750D01*
X97068000Y-57743750D01*
X96909250Y-57585000D01*
X96193691Y-57585000D01*
X95975528Y-57675366D01*
X95962607Y-54962000D01*
X103108000Y-54962000D01*
X103108000Y-58601807D01*
X103108000Y-58601807D01*
G37*
X103108000Y-58601807D02*
X102796582Y-58393724D01*
X102796579Y-58393721D01*
X102706099Y-58356244D01*
X102615618Y-58318765D01*
X102615613Y-58318765D01*
X102232942Y-58242647D01*
X102232936Y-58242645D01*
X102135000Y-58242646D01*
X102037064Y-58242645D01*
X102037058Y-58242647D01*
X101654382Y-58318766D01*
X101654381Y-58318766D01*
X101473421Y-58393722D01*
X101148999Y-58610494D01*
X101148996Y-58610495D01*
X101079746Y-58679746D01*
X101010495Y-58748996D01*
X101010495Y-58748997D01*
X100793724Y-59073418D01*
X100793721Y-59073421D01*
X100761008Y-59152398D01*
X100718765Y-59254382D01*
X100718765Y-59254387D01*
X100642646Y-59637065D01*
X100642646Y-59686507D01*
X100633000Y-59735000D01*
X100633000Y-78185559D01*
X100586007Y-78421812D01*
X100480185Y-78580185D01*
X100321812Y-78686007D01*
X100085246Y-78733062D01*
X62368614Y-78780805D01*
X62601989Y-78684376D01*
X63580938Y-77707134D01*
X64111395Y-76429652D01*
X64112602Y-75046416D01*
X63584376Y-73768011D01*
X62607134Y-72789062D01*
X61329652Y-72258605D01*
X59946416Y-72257398D01*
X58668011Y-72785624D01*
X57689062Y-73762866D01*
X57637000Y-73888245D01*
X57637000Y-55712000D01*
X60558000Y-55712000D01*
X60558000Y-70835000D01*
X60568006Y-70884410D01*
X60596447Y-70926035D01*
X60638841Y-70953315D01*
X60685000Y-70962000D01*
X62782394Y-70962000D01*
X65110007Y-73289613D01*
X65208094Y-75839881D01*
X65219991Y-75888870D01*
X65250011Y-75929371D01*
X65293422Y-75955001D01*
X65335000Y-75962000D01*
X95935000Y-75962000D01*
X95984410Y-75951994D01*
X96026035Y-75923553D01*
X96053315Y-75881159D01*
X96061999Y-75834395D01*
X96061789Y-75790364D01*
X96193691Y-75845000D01*
X96909250Y-75845000D01*
X97068000Y-75686250D01*
X97068000Y-74462000D01*
X97322000Y-74462000D01*
X97322000Y-75686250D01*
X97480750Y-75845000D01*
X98196309Y-75845000D01*
X98429698Y-75748327D01*
X98608327Y-75569699D01*
X98705000Y-75336310D01*
X98705000Y-74620750D01*
X98546250Y-74462000D01*
X97322000Y-74462000D01*
X97068000Y-74462000D01*
X97048000Y-74462000D01*
X97048000Y-74208000D01*
X97068000Y-74208000D01*
X97068000Y-72983750D01*
X97322000Y-72983750D01*
X97322000Y-74208000D01*
X98546250Y-74208000D01*
X98705000Y-74049250D01*
X98705000Y-73333690D01*
X98608327Y-73100301D01*
X98429698Y-72921673D01*
X98196309Y-72825000D01*
X97480750Y-72825000D01*
X97322000Y-72983750D01*
X97068000Y-72983750D01*
X96909250Y-72825000D01*
X96193691Y-72825000D01*
X96047956Y-72885365D01*
X96025432Y-68155305D01*
X96193691Y-68225000D01*
X96909250Y-68225000D01*
X97068000Y-68066250D01*
X97068000Y-66842000D01*
X97322000Y-66842000D01*
X97322000Y-68066250D01*
X97480750Y-68225000D01*
X98196309Y-68225000D01*
X98429698Y-68128327D01*
X98608327Y-67949699D01*
X98705000Y-67716310D01*
X98705000Y-67000750D01*
X98546250Y-66842000D01*
X97322000Y-66842000D01*
X97068000Y-66842000D01*
X97048000Y-66842000D01*
X97048000Y-66588000D01*
X97068000Y-66588000D01*
X97068000Y-65363750D01*
X97322000Y-65363750D01*
X97322000Y-66588000D01*
X98546250Y-66588000D01*
X98705000Y-66429250D01*
X98705000Y-65713690D01*
X98608327Y-65480301D01*
X98429698Y-65301673D01*
X98196309Y-65205000D01*
X97480750Y-65205000D01*
X97322000Y-65363750D01*
X97068000Y-65363750D01*
X96909250Y-65205000D01*
X96193691Y-65205000D01*
X96011742Y-65280366D01*
X95989075Y-60520245D01*
X96193691Y-60605000D01*
X96909250Y-60605000D01*
X97068000Y-60446250D01*
X97068000Y-59222000D01*
X97322000Y-59222000D01*
X97322000Y-60446250D01*
X97480750Y-60605000D01*
X98196309Y-60605000D01*
X98429698Y-60508327D01*
X98608327Y-60329699D01*
X98705000Y-60096310D01*
X98705000Y-59380750D01*
X98546250Y-59222000D01*
X97322000Y-59222000D01*
X97068000Y-59222000D01*
X97048000Y-59222000D01*
X97048000Y-58968000D01*
X97068000Y-58968000D01*
X97068000Y-57743750D01*
X97322000Y-57743750D01*
X97322000Y-58968000D01*
X98546250Y-58968000D01*
X98705000Y-58809250D01*
X98705000Y-58093690D01*
X98608327Y-57860301D01*
X98429698Y-57681673D01*
X98196309Y-57585000D01*
X97480750Y-57585000D01*
X97322000Y-57743750D01*
X97068000Y-57743750D01*
X96909250Y-57585000D01*
X96193691Y-57585000D01*
X95975528Y-57675366D01*
X95962607Y-54962000D01*
X103108000Y-54962000D01*
X103108000Y-58601807D01*
G36*
X87008000Y-33594940D02*
X80911973Y-42296528D01*
X79511681Y-41076919D01*
X79461998Y-32084298D01*
X79451719Y-32034944D01*
X79423049Y-31993478D01*
X79380505Y-31966432D01*
X79335000Y-31958000D01*
X66812000Y-31958000D01*
X66812000Y-29662000D01*
X87008000Y-29662000D01*
X87008000Y-33594940D01*
X87008000Y-33594940D01*
G37*
X87008000Y-33594940D02*
X80911973Y-42296528D01*
X79511681Y-41076919D01*
X79461998Y-32084298D01*
X79451719Y-32034944D01*
X79423049Y-31993478D01*
X79380505Y-31966432D01*
X79335000Y-31958000D01*
X66812000Y-31958000D01*
X66812000Y-29662000D01*
X87008000Y-29662000D01*
X87008000Y-33594940D01*
M02*
