G04 #@! TF.FileFunction,Paste,Top*
%FSLAX46Y46*%
G04 Gerber Fmt 4.6, Leading zero omitted, Abs format (unit mm)*
G04 Created by KiCad (PCBNEW 4.0.7-e2-6376~61~ubuntu18.04.1) date Sun Dec  9 20:36:19 2018*
%MOMM*%
%LPD*%
G01*
G04 APERTURE LIST*
%ADD10C,0.100000*%
%ADD11R,1.100000X0.400000*%
%ADD12R,1.500000X1.250000*%
%ADD13R,1.250000X1.500000*%
%ADD14R,1.500000X1.300000*%
%ADD15R,1.300000X1.500000*%
%ADD16R,0.560000X1.600000*%
%ADD17R,1.600000X0.560000*%
%ADD18R,1.500000X0.600000*%
%ADD19R,1.550000X0.600000*%
%ADD20R,7.875000X2.000000*%
%ADD21R,3.750000X2.500000*%
%ADD22R,2.500000X3.750000*%
G04 APERTURE END LIST*
D10*
D11*
X76567958Y-40260252D03*
X76567958Y-40910252D03*
X76567958Y-41560252D03*
X76567958Y-42210252D03*
X76567958Y-42860252D03*
X76567958Y-43510252D03*
X76567958Y-44160252D03*
X76567958Y-44810252D03*
X76567958Y-45460252D03*
X76567958Y-46110252D03*
X76567958Y-46760252D03*
X76567958Y-47410252D03*
X82267958Y-47410252D03*
X82267958Y-46760252D03*
X82267958Y-46110252D03*
X82267958Y-45460252D03*
X82267958Y-44810252D03*
X82267958Y-44160252D03*
X82267958Y-43510252D03*
X82267958Y-42860252D03*
X82267958Y-42210252D03*
X82267958Y-41560252D03*
X82267958Y-40910252D03*
X82267958Y-40260252D03*
D12*
X80535000Y-38035000D03*
X78035000Y-38035000D03*
D13*
X109480044Y-39036756D03*
X109480044Y-36536756D03*
X124185000Y-37085000D03*
X124185000Y-39585000D03*
X124235000Y-47735000D03*
X124235000Y-50235000D03*
D14*
X90235000Y-37035000D03*
X87535000Y-37035000D03*
D15*
X72535000Y-41585000D03*
X72535000Y-38885000D03*
D14*
X59385000Y-60235000D03*
X62085000Y-60235000D03*
X59385000Y-67385000D03*
X62085000Y-67385000D03*
X81985000Y-60135000D03*
X84685000Y-60135000D03*
X59335000Y-57585000D03*
X62035000Y-57585000D03*
X59385000Y-69735000D03*
X62085000Y-69735000D03*
X81985000Y-57735000D03*
X84685000Y-57735000D03*
X59385000Y-65235000D03*
X62085000Y-65235000D03*
X82785000Y-74735000D03*
X85485000Y-74735000D03*
X82035000Y-65885000D03*
X84735000Y-65885000D03*
X59385000Y-62885000D03*
X62085000Y-62885000D03*
X82785000Y-72535000D03*
X85485000Y-72535000D03*
X82085000Y-63685000D03*
X84785000Y-63685000D03*
D15*
X109485000Y-45635000D03*
X109485000Y-48335000D03*
D14*
X127435000Y-44735000D03*
X124735000Y-44735000D03*
D10*
G36*
X110479543Y-57560305D02*
X109560305Y-58479543D01*
X108499645Y-57418883D01*
X109418883Y-56499645D01*
X110479543Y-57560305D01*
X110479543Y-57560305D01*
G37*
G36*
X108570355Y-55651117D02*
X107651117Y-56570355D01*
X106590457Y-55509695D01*
X107509695Y-54590457D01*
X108570355Y-55651117D01*
X108570355Y-55651117D01*
G37*
D14*
X123435000Y-60535000D03*
X120735000Y-60535000D03*
D15*
X125985000Y-76585000D03*
X125985000Y-73885000D03*
X113435000Y-70085000D03*
X113435000Y-67385000D03*
D14*
X120135000Y-63535000D03*
X122835000Y-63535000D03*
X125385000Y-63585000D03*
X128085000Y-63585000D03*
D16*
X93930044Y-51095041D03*
X94730044Y-51095041D03*
X95530044Y-51095041D03*
X96330044Y-51095041D03*
X97130044Y-51095041D03*
X97930044Y-51095041D03*
X98730044Y-51095041D03*
X99530044Y-51095041D03*
X100330044Y-51095041D03*
X101130044Y-51095041D03*
X101930044Y-51095041D03*
D17*
X103780044Y-49245041D03*
X103780044Y-48445041D03*
X103780044Y-47645041D03*
X103780044Y-46845041D03*
X103780044Y-46045041D03*
X103780044Y-45245041D03*
X103780044Y-44445041D03*
X103780044Y-43645041D03*
X103780044Y-42845041D03*
X103780044Y-42045041D03*
X103780044Y-41245041D03*
D16*
X101930044Y-39395041D03*
X101130044Y-39395041D03*
X100330044Y-39395041D03*
X99530044Y-39395041D03*
X98730044Y-39395041D03*
X97930044Y-39395041D03*
X97130044Y-39395041D03*
X96330044Y-39395041D03*
X95530044Y-39395041D03*
X94730044Y-39395041D03*
X93930044Y-39395041D03*
D17*
X92080044Y-41245041D03*
X92080044Y-42045041D03*
X92080044Y-42845041D03*
X92080044Y-43645041D03*
X92080044Y-44445041D03*
X92080044Y-45245041D03*
X92080044Y-46045041D03*
X92080044Y-46845041D03*
X92080044Y-47645041D03*
X92080044Y-48445041D03*
X92080044Y-49245041D03*
D18*
X112230044Y-37086756D03*
X112230044Y-38356756D03*
X112230044Y-39626756D03*
X112230044Y-40896756D03*
X112230044Y-42166756D03*
X112230044Y-43436756D03*
X112230044Y-44706756D03*
X112230044Y-45976756D03*
X121530044Y-45976756D03*
X121530044Y-44706756D03*
X121530044Y-43436756D03*
X121530044Y-42166756D03*
X121530044Y-40896756D03*
X121530044Y-39626756D03*
X121530044Y-38356756D03*
X121530044Y-37086756D03*
X112330044Y-48986756D03*
X112330044Y-50256756D03*
X112330044Y-51526756D03*
X112330044Y-52796756D03*
X112330044Y-54066756D03*
X112330044Y-55336756D03*
X112330044Y-56606756D03*
X112330044Y-57876756D03*
X121630044Y-57876756D03*
X121630044Y-56606756D03*
X121630044Y-55336756D03*
X121630044Y-54066756D03*
X121630044Y-52796756D03*
X121630044Y-51526756D03*
X121630044Y-50256756D03*
X121630044Y-48986756D03*
D19*
X118185000Y-66730000D03*
X118185000Y-68000000D03*
X118185000Y-69270000D03*
X118185000Y-70540000D03*
X123585000Y-70540000D03*
X123585000Y-69270000D03*
X123585000Y-68000000D03*
X123585000Y-66730000D03*
D20*
X92647500Y-32685000D03*
X104522500Y-32685000D03*
D13*
X115885000Y-66735000D03*
X115885000Y-64235000D03*
X126385000Y-66135000D03*
X126385000Y-68635000D03*
D21*
X80535000Y-34485000D03*
X74285000Y-34485000D03*
D22*
X79535000Y-76410000D03*
X79535000Y-70160000D03*
D10*
G36*
X127983266Y-31207426D02*
X127143222Y-30722426D01*
X127778222Y-29622574D01*
X128618266Y-30107574D01*
X127983266Y-31207426D01*
X127983266Y-31207426D01*
G37*
G36*
X129091778Y-31847426D02*
X128251734Y-31362426D01*
X128886734Y-30262574D01*
X129726778Y-30747574D01*
X129091778Y-31847426D01*
X129091778Y-31847426D01*
G37*
M02*
