G04 #@! TF.FileFunction,Soldermask,Bot*
%FSLAX46Y46*%
G04 Gerber Fmt 4.6, Leading zero omitted, Abs format (unit mm)*
G04 Created by KiCad (PCBNEW 4.0.7-e2-6376~61~ubuntu18.04.1) date Sun Dec  9 20:36:19 2018*
%MOMM*%
%LPD*%
G01*
G04 APERTURE LIST*
%ADD10C,0.100000*%
%ADD11R,2.635200X2.635200*%
%ADD12R,2.150000X2.150000*%
%ADD13C,2.150000*%
%ADD14R,1.900000X1.650000*%
%ADD15R,1.650000X1.900000*%
%ADD16C,3.100000*%
%ADD17R,2.100000X2.100000*%
%ADD18O,2.100000X2.100000*%
%ADD19R,1.370000X1.670000*%
%ADD20R,2.000000X2.000000*%
%ADD21C,2.000000*%
G04 APERTURE END LIST*
D10*
D11*
X112435000Y-74335000D03*
X112435000Y-76875000D03*
X104815000Y-66715000D03*
X107355000Y-66715000D03*
X109895000Y-74335000D03*
X109895000Y-76875000D03*
X104815000Y-69255000D03*
X107355000Y-69255000D03*
X107355000Y-71795000D03*
X104815000Y-71795000D03*
X104815000Y-74335000D03*
X107355000Y-74335000D03*
X107355000Y-76875000D03*
X104815000Y-76875000D03*
X71795000Y-46395000D03*
X71795000Y-48935000D03*
X71795000Y-51475000D03*
X71795000Y-54015000D03*
X69255000Y-36235000D03*
X69255000Y-38775000D03*
X69255000Y-54015000D03*
X66715000Y-54015000D03*
X64175000Y-54015000D03*
X61635000Y-54015000D03*
X59095000Y-54015000D03*
X69255000Y-51475000D03*
X66715000Y-51475000D03*
X64175000Y-51475000D03*
X61635000Y-51475000D03*
X59095000Y-51475000D03*
X69255000Y-48935000D03*
X66715000Y-48935000D03*
X64175000Y-48935000D03*
X61635000Y-48935000D03*
X59095000Y-48935000D03*
X69255000Y-46395000D03*
X66715000Y-46395000D03*
X64175000Y-46395000D03*
X61635000Y-46395000D03*
X59095000Y-46395000D03*
X69255000Y-43855000D03*
X66715000Y-43855000D03*
X64175000Y-43855000D03*
X61635000Y-43855000D03*
X59095000Y-43855000D03*
X69255000Y-41315000D03*
X66715000Y-41315000D03*
X64175000Y-41315000D03*
X61635000Y-41315000D03*
D12*
X129435000Y-20995000D03*
D13*
X126935000Y-20995000D03*
D14*
X96235000Y-36735000D03*
X98735000Y-36735000D03*
D15*
X106485000Y-44485000D03*
X106485000Y-46985000D03*
X94685000Y-47535000D03*
X94685000Y-45035000D03*
D14*
X100085000Y-48435000D03*
X97585000Y-48435000D03*
D15*
X112085000Y-51785000D03*
X112085000Y-49285000D03*
D12*
X140375000Y-20995000D03*
D13*
X137875000Y-20995000D03*
D12*
X98635000Y-20135000D03*
D13*
X96135000Y-20135000D03*
X93635000Y-20135000D03*
X91135000Y-20135000D03*
X88635000Y-20135000D03*
X86135000Y-20135000D03*
X83635000Y-20135000D03*
D12*
X140375000Y-28615000D03*
D13*
X137875000Y-28615000D03*
X135375000Y-28615000D03*
D12*
X140375000Y-36235000D03*
D13*
X137875000Y-36235000D03*
X135375000Y-36235000D03*
X132875000Y-36235000D03*
D12*
X140375000Y-59095000D03*
D13*
X137875000Y-59095000D03*
X135375000Y-59095000D03*
X132875000Y-59095000D03*
X130375000Y-59095000D03*
X127875000Y-59095000D03*
D12*
X140295000Y-43855000D03*
D13*
X137795000Y-43855000D03*
X135295000Y-43855000D03*
D12*
X140255000Y-51475000D03*
D13*
X137755000Y-51475000D03*
X135255000Y-51475000D03*
X132755000Y-51475000D03*
D12*
X140375000Y-66715000D03*
D13*
X137875000Y-66715000D03*
X135375000Y-66715000D03*
X132875000Y-66715000D03*
D12*
X140375000Y-74335000D03*
D13*
X137875000Y-74335000D03*
X135375000Y-74335000D03*
X132875000Y-74335000D03*
D16*
X60635000Y-26735000D03*
X60635000Y-75735000D03*
X118635000Y-26735000D03*
X118635000Y-75735000D03*
D12*
X74215000Y-59095000D03*
D13*
X71715000Y-59095000D03*
X69215000Y-59095000D03*
X66715000Y-59095000D03*
D12*
X74335000Y-74335000D03*
D13*
X71835000Y-74335000D03*
X69335000Y-74335000D03*
X66835000Y-74335000D03*
D12*
X97195000Y-59095000D03*
D13*
X94695000Y-59095000D03*
X92195000Y-59095000D03*
X89695000Y-59095000D03*
D12*
X74335000Y-66715000D03*
D13*
X71835000Y-66715000D03*
X69335000Y-66715000D03*
X66835000Y-66715000D03*
D12*
X97195000Y-74335000D03*
D13*
X94695000Y-74335000D03*
X92195000Y-74335000D03*
X89695000Y-74335000D03*
D12*
X97195000Y-66715000D03*
D13*
X94695000Y-66715000D03*
X92195000Y-66715000D03*
X89695000Y-66715000D03*
D12*
X119135000Y-20135000D03*
D13*
X116635000Y-20135000D03*
X114135000Y-20135000D03*
X111635000Y-20135000D03*
X109135000Y-20135000D03*
X106635000Y-20135000D03*
D17*
X65535000Y-28010000D03*
D18*
X65535000Y-25470000D03*
X68075000Y-28010000D03*
X68075000Y-25470000D03*
X70615000Y-28010000D03*
X70615000Y-25470000D03*
X73155000Y-28010000D03*
X73155000Y-25470000D03*
X75695000Y-28010000D03*
X75695000Y-25470000D03*
X78235000Y-28010000D03*
X78235000Y-25470000D03*
X80775000Y-28010000D03*
X80775000Y-25470000D03*
X83315000Y-28010000D03*
X83315000Y-25470000D03*
X85855000Y-28010000D03*
X85855000Y-25470000D03*
X88395000Y-28010000D03*
X88395000Y-25470000D03*
X90935000Y-28010000D03*
X90935000Y-25470000D03*
X93475000Y-28010000D03*
X93475000Y-25470000D03*
X96015000Y-28010000D03*
X96015000Y-25470000D03*
X98555000Y-28010000D03*
X98555000Y-25470000D03*
X101095000Y-28010000D03*
X101095000Y-25470000D03*
X103635000Y-28010000D03*
X103635000Y-25470000D03*
X106175000Y-28010000D03*
X106175000Y-25470000D03*
X108715000Y-28010000D03*
X108715000Y-25470000D03*
X111255000Y-28010000D03*
X111255000Y-25470000D03*
X113795000Y-28010000D03*
X113795000Y-25470000D03*
D19*
X133075000Y-18635000D03*
X131795000Y-18635000D03*
D20*
X59730000Y-34965000D03*
D21*
X63230000Y-34965000D03*
D11*
X59095000Y-41315000D03*
D20*
X59730000Y-19090000D03*
D21*
X63230000Y-19090000D03*
M02*
